<ttFont>
    <TTGlyph name=".notdef" xMin="102" yMin="0" xMax="950" yMax="1024">
      <contour>
        <pt x="102" y="1024" on="1"/>
        <pt x="950" y="1024" on="1"/>
        <pt x="950" y="0" on="1"/>
        <pt x="102" y="0" on="1"/>
      </contour>
      <contour>
        <pt x="229" y="127" on="1"/>
        <pt x="823" y="127" on="1"/>
        <pt x="823" y="897" on="1"/>
        <pt x="229" y="897" on="1"/>
      </contour>
    </TTGlyph>
    <TTGlyph name="A" xMin="1" yMin="0" xMax="1328" yMax="1487">
      <contour>
        <pt x="1328" y="0" on="1"/>
        <pt x="1097" y="0" on="1"/>
        <pt x="1015" y="193" on="1"/>
        <pt x="202" y="193" on="1"/>
        <pt x="122" y="0" on="1"/>
        <pt x="1" y="0" on="1"/>
        <pt x="546" y="1296" on="1"/>
        <pt x="466" y="1487" on="1"/>
        <pt x="700" y="1487" on="1"/>
      </contour>
      <contour>
        <pt x="243" y="291" on="1"/>
        <pt x="974" y="291" on="1"/>
        <pt x="605" y="1155" on="1"/>
      </contour>
    </TTGlyph>
    <TTGlyph name="AE" xMin="-13" yMin="0" xMax="1894" yMax="1487">
      <contour>
        <pt x="1894" y="1395" on="1"/>
        <pt x="1142" y="1395" on="1"/>
        <pt x="1142" y="938" on="1"/>
        <pt x="1894" y="938" on="1"/>
        <pt x="1894" y="848" on="1"/>
        <pt x="1142" y="848" on="1"/>
        <pt x="1142" y="90" on="1"/>
        <pt x="1894" y="90" on="1"/>
        <pt x="1894" y="0" on="1"/>
        <pt x="923" y="0" on="1"/>
        <pt x="923" y="193" on="1"/>
        <pt x="241" y="193" on="1"/>
        <pt x="129" y="0" on="1"/>
        <pt x="-13" y="0" on="1"/>
        <pt x="864" y="1487" on="1"/>
        <pt x="1894" y="1487" on="1"/>
      </contour>
      <contour>
        <pt x="923" y="285" on="1"/>
        <pt x="923" y="1350" on="1"/>
        <pt x="297" y="285" on="1"/>
      </contour>
    </TTGlyph>
    <TTGlyph name="Aacute" xMin="1" yMin="0" xMax="1328" yMax="1860">
      <component glyphName="A" x="0" y="0" flags="0x204"/>
      <component glyphName="acute.case" x="448" y="0" flags="0x4"/>
    </TTGlyph>
    <TTGlyph name="Acircumflex" xMin="1" yMin="0" xMax="1328" yMax="1862">
      <component glyphName="A" x="0" y="0" flags="0x204"/>
      <component glyphName="circumflex" x="417" y="545" flags="0x4"/>
    </TTGlyph>
    <TTGlyph name="Adieresis" xMin="1" yMin="0" xMax="1328" yMax="1828">
      <component glyphName="A" x="0" y="0" flags="0x204"/>
      <component glyphName="dieresis" x="300" y="604" flags="0x4"/>
    </TTGlyph>
    <TTGlyph name="Agrave" xMin="1" yMin="0" xMax="1328" yMax="1858">
      <component glyphName="A" x="0" y="0" flags="0x204"/>
      <component glyphName="grave" x="241" y="541" flags="0x4"/>
    </TTGlyph>
    <TTGlyph name="Aring" xMin="1" yMin="0" xMax="1328" yMax="1883">
      <component glyphName="A" x="0" y="0" flags="0x204"/>
      <component glyphName="ring" x="296" y="537" flags="0x4"/>
    </TTGlyph>
    <TTGlyph name="Atilde" xMin="1" yMin="0" xMax="1328" yMax="1863">
      <component glyphName="A" x="0" y="0" flags="0x204"/>
      <component glyphName="tilde" x="310" y="586" flags="0x4"/>
    </TTGlyph>
    <TTGlyph name="B" xMin="188" yMin="0" xMax="1233" yMax="1487">
      <contour>
        <pt x="188" y="0" on="1"/>
        <pt x="188" y="1487" on="1"/>
        <pt x="653" y="1487" on="1"/>
        <pt x="773" y="1487" on="0"/>
        <pt x="946" y="1443" on="0"/>
        <pt x="1057" y="1361" on="0"/>
        <pt x="1110" y="1245" on="0"/>
        <pt x="1110" y="1174" on="1"/>
        <pt x="1110" y="1127" on="0"/>
        <pt x="1076" y="1037" on="0"/>
        <pt x="998" y="962" on="0"/>
        <pt x="868" y="907" on="0"/>
        <pt x="772" y="895" on="1"/>
        <pt x="772" y="893" on="1"/>
        <pt x="1008" y="859" on="0"/>
        <pt x="1233" y="630" on="0"/>
        <pt x="1233" y="444" on="1"/>
        <pt x="1233" y="351" on="0"/>
        <pt x="1173" y="189" on="0"/>
        <pt x="1038" y="69" on="0"/>
        <pt x="820" y="0" on="0"/>
        <pt x="661" y="0" on="1"/>
      </contour>
      <contour>
        <pt x="407" y="840" on="1"/>
        <pt x="407" y="98" on="1"/>
        <pt x="604" y="98" on="1"/>
        <pt x="697" y="98" on="0"/>
        <pt x="841" y="146" on="0"/>
        <pt x="938" y="238" on="0"/>
        <pt x="989" y="370" on="0"/>
        <pt x="989" y="453" on="1"/>
        <pt x="989" y="553" on="0"/>
        <pt x="916" y="700" on="0"/>
        <pt x="781" y="794" on="0"/>
        <pt x="589" y="840" on="0"/>
        <pt x="471" y="840" on="1"/>
      </contour>
      <contour>
        <pt x="407" y="1389" on="1"/>
        <pt x="407" y="938" on="1"/>
        <pt x="557" y="938" on="1"/>
        <pt x="626" y="938" on="0"/>
        <pt x="744" y="963" on="0"/>
        <pt x="831" y="1018" on="0"/>
        <pt x="881" y="1108" on="0"/>
        <pt x="881" y="1174" on="1"/>
        <pt x="881" y="1235" on="0"/>
        <pt x="836" y="1318" on="0"/>
        <pt x="752" y="1368" on="0"/>
        <pt x="632" y="1389" on="0"/>
        <pt x="557" y="1389" on="1"/>
      </contour>
    </TTGlyph>
    <TTGlyph name="C" xMin="71" yMin="-35" xMax="1482" yMax="1518">
      <contour>
        <pt x="868" y="1518" on="1"/>
        <pt x="1042" y="1518" on="0"/>
        <pt x="1339" y="1405" on="0"/>
        <pt x="1454" y="1305" on="1"/>
        <pt x="1398" y="1231" on="1"/>
        <pt x="1352" y="1270" on="0"/>
        <pt x="1240" y="1338" on="0"/>
        <pt x="1116" y="1387" on="0"/>
        <pt x="982" y="1416" on="0"/>
        <pt x="914" y="1416" on="1"/>
        <pt x="768" y="1416" on="0"/>
        <pt x="542" y="1310" on="0"/>
        <pt x="388" y="1126" on="0"/>
        <pt x="308" y="880" on="0"/>
        <pt x="308" y="739" on="1"/>
        <pt x="308" y="601" on="0"/>
        <pt x="387" y="357" on="0"/>
        <pt x="540" y="173" on="0"/>
        <pt x="766" y="66" on="0"/>
        <pt x="912" y="66" on="1"/>
        <pt x="982" y="66" on="0"/>
        <pt x="1126" y="94" on="0"/>
        <pt x="1260" y="148" on="0"/>
        <pt x="1379" y="226" on="0"/>
        <pt x="1425" y="276" on="1"/>
        <pt x="1482" y="203" on="1"/>
        <pt x="1364" y="91" on="0"/>
        <pt x="1052" y="-35" on="0"/>
        <pt x="868" y="-35" on="1"/>
        <pt x="757" y="-35" on="0"/>
        <pt x="553" y="20" on="0"/>
        <pt x="376" y="122" on="0"/>
        <pt x="231" y="263" on="0"/>
        <pt x="128" y="435" on="0"/>
        <pt x="71" y="632" on="0"/>
        <pt x="71" y="739" on="1"/>
        <pt x="71" y="846" on="0"/>
        <pt x="128" y="1046" on="0"/>
        <pt x="231" y="1219" on="0"/>
        <pt x="376" y="1361" on="0"/>
        <pt x="553" y="1462" on="0"/>
        <pt x="757" y="1518" on="0"/>
      </contour>
    </TTGlyph>
    <TTGlyph name="Ccedilla" xMin="71" yMin="-487" xMax="1482" yMax="1518">
      <contour>
        <pt x="868" y="1518" on="1"/>
        <pt x="1042" y="1518" on="0"/>
        <pt x="1339" y="1405" on="0"/>
        <pt x="1454" y="1305" on="1"/>
        <pt x="1398" y="1231" on="1"/>
        <pt x="1352" y="1270" on="0"/>
        <pt x="1240" y="1338" on="0"/>
        <pt x="1116" y="1387" on="0"/>
        <pt x="982" y="1416" on="0"/>
        <pt x="914" y="1416" on="1"/>
        <pt x="768" y="1416" on="0"/>
        <pt x="542" y="1310" on="0"/>
        <pt x="388" y="1126" on="0"/>
        <pt x="308" y="880" on="0"/>
        <pt x="308" y="739" on="1"/>
        <pt x="308" y="601" on="0"/>
        <pt x="387" y="357" on="0"/>
        <pt x="540" y="173" on="0"/>
        <pt x="766" y="66" on="0"/>
        <pt x="912" y="66" on="1"/>
        <pt x="982" y="66" on="0"/>
        <pt x="1126" y="94" on="0"/>
        <pt x="1260" y="148" on="0"/>
        <pt x="1379" y="226" on="0"/>
        <pt x="1425" y="276" on="1"/>
        <pt x="1482" y="203" on="1"/>
        <pt x="1364" y="91" on="0"/>
        <pt x="1052" y="-35" on="0"/>
        <pt x="868" y="-35" on="1"/>
        <pt x="868" y="-90" on="1"/>
        <pt x="925" y="-90" on="0"/>
        <pt x="1010" y="-122" on="0"/>
        <pt x="1066" y="-173" on="0"/>
        <pt x="1093" y="-238" on="0"/>
        <pt x="1093" y="-272" on="1"/>
        <pt x="1093" y="-326" on="0"/>
        <pt x="1021" y="-407" on="0"/>
        <pt x="911" y="-461" on="0"/>
        <pt x="779" y="-487" on="0"/>
        <pt x="720" y="-487" on="1"/>
        <pt x="720" y="-428" on="1"/>
        <pt x="757" y="-424" on="0"/>
        <pt x="832" y="-405" on="0"/>
        <pt x="893" y="-368" on="0"/>
        <pt x="931" y="-311" on="0"/>
        <pt x="931" y="-269" on="1"/>
        <pt x="931" y="-247" on="0"/>
        <pt x="916" y="-204" on="0"/>
        <pt x="879" y="-170" on="0"/>
        <pt x="816" y="-149" on="0"/>
        <pt x="769" y="-149" on="1"/>
        <pt x="769" y="-29" on="1"/>
        <pt x="710" y="-22" on="0"/>
        <pt x="655" y="-7" on="1"/>
        <pt x="553" y="20" on="0"/>
        <pt x="376" y="122" on="0"/>
        <pt x="231" y="263" on="0"/>
        <pt x="128" y="435" on="0"/>
        <pt x="71" y="632" on="0"/>
        <pt x="71" y="739" on="1"/>
        <pt x="71" y="846" on="0"/>
        <pt x="128" y="1046" on="0"/>
        <pt x="231" y="1219" on="0"/>
        <pt x="376" y="1361" on="0"/>
        <pt x="553" y="1462" on="0"/>
        <pt x="757" y="1518" on="0"/>
      </contour>
    </TTGlyph>
    <TTGlyph name="D" xMin="188" yMin="0" xMax="1478" yMax="1487">
      <contour>
        <pt x="1246" y="741" on="1"/>
        <pt x="1246" y="877" on="0"/>
        <pt x="1184" y="1079" on="0"/>
        <pt x="1078" y="1223" on="0"/>
        <pt x="936" y="1316" on="0"/>
        <pt x="778" y="1369" on="0"/>
        <pt x="611" y="1389" on="0"/>
        <pt x="532" y="1389" on="1"/>
        <pt x="407" y="1389" on="1"/>
        <pt x="407" y="98" on="1"/>
        <pt x="532" y="98" on="1"/>
        <pt x="611" y="98" on="0"/>
        <pt x="778" y="118" on="0"/>
        <pt x="936" y="171" on="0"/>
        <pt x="1078" y="263" on="0"/>
        <pt x="1184" y="406" on="0"/>
        <pt x="1246" y="606" on="0"/>
      </contour>
      <contour>
        <pt x="1478" y="745" on="1"/>
        <pt x="1478" y="589" on="0"/>
        <pt x="1367" y="318" on="0"/>
        <pt x="1149" y="116" on="0"/>
        <pt x="826" y="0" on="0"/>
        <pt x="614" y="0" on="1"/>
        <pt x="188" y="0" on="1"/>
        <pt x="188" y="1487" on="1"/>
        <pt x="614" y="1487" on="1"/>
        <pt x="826" y="1487" on="0"/>
        <pt x="1149" y="1371" on="0"/>
        <pt x="1367" y="1170" on="0"/>
        <pt x="1478" y="899" on="0"/>
      </contour>
    </TTGlyph>
    <TTGlyph name="E" xMin="188" yMin="0" xMax="1098" yMax="1487">
      <contour>
        <pt x="1098" y="1487" on="1"/>
        <pt x="1098" y="1389" on="1"/>
        <pt x="407" y="1389" on="1"/>
        <pt x="407" y="938" on="1"/>
        <pt x="1077" y="938" on="1"/>
        <pt x="1077" y="840" on="1"/>
        <pt x="407" y="840" on="1"/>
        <pt x="407" y="98" on="1"/>
        <pt x="1098" y="98" on="1"/>
        <pt x="1098" y="0" on="1"/>
        <pt x="188" y="0" on="1"/>
        <pt x="188" y="1487" on="1"/>
      </contour>
    </TTGlyph>
    <TTGlyph name="Eacute" xMin="188" yMin="0" xMax="1098" yMax="1860">
      <component glyphName="E" x="0" y="0" flags="0x204"/>
      <component glyphName="acute.case" x="539" y="0" flags="0x4"/>
    </TTGlyph>
    <TTGlyph name="Ecircumflex" xMin="188" yMin="0" xMax="1098" yMax="1860">
      <component glyphName="E" x="0" y="0" flags="0x204"/>
      <component glyphName="circumflex" x="488" y="543" flags="0x4"/>
    </TTGlyph>
    <TTGlyph name="Edieresis" xMin="188" yMin="0" xMax="1098" yMax="1830">
      <component glyphName="E" x="0" y="0" flags="0x204"/>
      <component glyphName="dieresis" x="350" y="606" flags="0x4"/>
    </TTGlyph>
    <TTGlyph name="Egrave" xMin="188" yMin="0" xMax="1098" yMax="1860">
      <component glyphName="E" x="0" y="0" flags="0x204"/>
      <component glyphName="grave" x="323" y="543" flags="0x4"/>
    </TTGlyph>
    <TTGlyph name="Eth" xMin="36" yMin="0" xMax="1478" yMax="1487">
      <contour>
        <pt x="1478" y="745" on="1"/>
        <pt x="1478" y="589" on="0"/>
        <pt x="1367" y="318" on="0"/>
        <pt x="1149" y="116" on="0"/>
        <pt x="826" y="0" on="0"/>
        <pt x="614" y="0" on="1"/>
        <pt x="188" y="0" on="1"/>
        <pt x="188" y="840" on="1"/>
        <pt x="36" y="840" on="1"/>
        <pt x="36" y="938" on="1"/>
        <pt x="188" y="938" on="1"/>
        <pt x="188" y="1487" on="1"/>
        <pt x="614" y="1487" on="1"/>
        <pt x="826" y="1487" on="0"/>
        <pt x="1149" y="1371" on="0"/>
        <pt x="1367" y="1170" on="0"/>
        <pt x="1478" y="899" on="0"/>
      </contour>
      <contour>
        <pt x="1246" y="741" on="1"/>
        <pt x="1246" y="877" on="0"/>
        <pt x="1184" y="1079" on="0"/>
        <pt x="1078" y="1223" on="0"/>
        <pt x="936" y="1316" on="0"/>
        <pt x="778" y="1369" on="0"/>
        <pt x="611" y="1389" on="0"/>
        <pt x="532" y="1389" on="1"/>
        <pt x="407" y="1389" on="1"/>
        <pt x="407" y="938" on="1"/>
        <pt x="767" y="938" on="1"/>
        <pt x="767" y="840" on="1"/>
        <pt x="407" y="840" on="1"/>
        <pt x="407" y="98" on="1"/>
        <pt x="532" y="98" on="1"/>
        <pt x="611" y="98" on="0"/>
        <pt x="778" y="118" on="0"/>
        <pt x="936" y="171" on="0"/>
        <pt x="1078" y="263" on="0"/>
        <pt x="1184" y="406" on="0"/>
        <pt x="1246" y="606" on="0"/>
      </contour>
    </TTGlyph>
    <TTGlyph name="Euro" xMin="76" yMin="-35" xMax="1295" yMax="1378">
      <contour>
        <pt x="76" y="741" on="1"/>
        <pt x="115" y="831" on="1"/>
        <pt x="244" y="831" on="1"/>
        <pt x="271" y="951" on="0"/>
        <pt x="402" y="1151" on="0"/>
        <pt x="594" y="1297" on="0"/>
        <pt x="840" y="1378" on="0"/>
        <pt x="981" y="1378" on="1"/>
        <pt x="1005" y="1378" on="0"/>
        <pt x="1082" y="1370" on="0"/>
        <pt x="1170" y="1352" on="0"/>
        <pt x="1259" y="1322" on="0"/>
        <pt x="1295" y="1300" on="1"/>
        <pt x="1264" y="1227" on="1"/>
        <pt x="1236" y="1237" on="0"/>
        <pt x="1183" y="1255" on="0"/>
        <pt x="1124" y="1268" on="0"/>
        <pt x="1053" y="1276" on="0"/>
        <pt x="1008" y="1276" on="1"/>
        <pt x="900" y="1276" on="0"/>
        <pt x="719" y="1212" on="0"/>
        <pt x="579" y="1096" on="0"/>
        <pt x="483" y="931" on="0"/>
        <pt x="461" y="831" on="1"/>
        <pt x="1074" y="831" on="1"/>
        <pt x="1043" y="741" on="1"/>
        <pt x="448" y="741" on="1"/>
        <pt x="445" y="706" on="0"/>
        <pt x="445" y="670" on="1"/>
        <pt x="445" y="653" on="0"/>
        <pt x="446" y="619" on="0"/>
        <pt x="447" y="602" on="1"/>
        <pt x="996" y="602" on="1"/>
        <pt x="963" y="512" on="1"/>
        <pt x="460" y="512" on="1"/>
        <pt x="479" y="414" on="0"/>
        <pt x="567" y="251" on="0"/>
        <pt x="703" y="133" on="0"/>
        <pt x="888" y="68" on="0"/>
        <pt x="1004" y="68" on="1"/>
        <pt x="1083" y="68" on="0"/>
        <pt x="1212" y="94" on="0"/>
        <pt x="1278" y="123" on="1"/>
        <pt x="1280" y="39" on="1"/>
        <pt x="1196" y="-4" on="0"/>
        <pt x="1023" y="-35" on="0"/>
        <pt x="938" y="-35" on="1"/>
        <pt x="804" y="-35" on="0"/>
        <pt x="571" y="41" on="0"/>
        <pt x="388" y="183" on="0"/>
        <pt x="264" y="385" on="0"/>
        <pt x="240" y="512" on="1"/>
        <pt x="76" y="512" on="1"/>
        <pt x="115" y="602" on="1"/>
        <pt x="228" y="602" on="1"/>
        <pt x="227" y="619" on="0"/>
        <pt x="226" y="653" on="0"/>
        <pt x="226" y="670" on="1"/>
        <pt x="226" y="705" on="0"/>
        <pt x="229" y="741" on="1"/>
      </contour>
    </TTGlyph>
    <TTGlyph name="F" xMin="188" yMin="0" xMax="1097" yMax="1487">
      <contour>
        <pt x="1097" y="1487" on="1"/>
        <pt x="1097" y="1389" on="1"/>
        <pt x="407" y="1389" on="1"/>
        <pt x="407" y="938" on="1"/>
        <pt x="1076" y="938" on="1"/>
        <pt x="1076" y="840" on="1"/>
        <pt x="407" y="840" on="1"/>
        <pt x="407" y="0" on="1"/>
        <pt x="188" y="0" on="1"/>
        <pt x="188" y="1487" on="1"/>
      </contour>
    </TTGlyph>
    <TTGlyph name="G" xMin="91" yMin="0" xMax="1479" yMax="1518">
      <contour>
        <pt x="328" y="762" on="1"/>
        <pt x="328" y="611" on="0"/>
        <pt x="427" y="366" on="0"/>
        <pt x="611" y="192" on="0"/>
        <pt x="876" y="98" on="0"/>
        <pt x="1041" y="98" on="1"/>
        <pt x="1260" y="98" on="1"/>
        <pt x="1260" y="963" on="1"/>
        <pt x="1479" y="963" on="1"/>
        <pt x="1479" y="0" on="1"/>
        <pt x="951" y="0" on="1"/>
        <pt x="832" y="0" on="0"/>
        <pt x="612" y="42" on="0"/>
        <pt x="420" y="126" on="0"/>
        <pt x="264" y="252" on="0"/>
        <pt x="152" y="422" on="0"/>
        <pt x="91" y="634" on="0"/>
        <pt x="91" y="762" on="1"/>
        <pt x="91" y="869" on="0"/>
        <pt x="148" y="1065" on="0"/>
        <pt x="251" y="1233" on="0"/>
        <pt x="396" y="1369" on="0"/>
        <pt x="573" y="1466" on="0"/>
        <pt x="777" y="1518" on="0"/>
        <pt x="888" y="1518" on="1"/>
        <pt x="1061" y="1518" on="0"/>
        <pt x="1359" y="1404" on="0"/>
        <pt x="1474" y="1305" on="1"/>
        <pt x="1418" y="1231" on="1"/>
        <pt x="1372" y="1270" on="0"/>
        <pt x="1261" y="1338" on="0"/>
        <pt x="1136" y="1388" on="0"/>
        <pt x="1002" y="1416" on="0"/>
        <pt x="934" y="1416" on="1"/>
        <pt x="793" y="1415" on="0"/>
        <pt x="569" y="1316" on="0"/>
        <pt x="412" y="1141" on="0"/>
        <pt x="328" y="903" on="0"/>
      </contour>
    </TTGlyph>
    <TTGlyph name="H" xMin="188" yMin="0" xMax="1297" yMax="1487">
      <contour>
        <pt x="1297" y="0" on="1"/>
        <pt x="1078" y="0" on="1"/>
        <pt x="1078" y="840" on="1"/>
        <pt x="407" y="840" on="1"/>
        <pt x="407" y="0" on="1"/>
        <pt x="188" y="0" on="1"/>
        <pt x="188" y="1487" on="1"/>
        <pt x="407" y="1487" on="1"/>
        <pt x="407" y="938" on="1"/>
        <pt x="1078" y="938" on="1"/>
        <pt x="1078" y="1487" on="1"/>
        <pt x="1297" y="1487" on="1"/>
      </contour>
    </TTGlyph>
    <TTGlyph name="I" xMin="188" yMin="0" xMax="408" yMax="1487">
      <contour>
        <pt x="408" y="0" on="1"/>
        <pt x="188" y="0" on="1"/>
        <pt x="188" y="1487" on="1"/>
        <pt x="408" y="1487" on="1"/>
      </contour>
    </TTGlyph>
    <TTGlyph name="Iacute" xMin="188" yMin="0" xMax="569" yMax="1860">
      <component glyphName="I" x="0" y="0" flags="0x204"/>
      <component glyphName="acute.case" x="166" y="0" flags="0x4"/>
    </TTGlyph>
    <TTGlyph name="Icircumflex" xMin="-2" yMin="0" xMax="596" yMax="1858">
      <component glyphName="I" x="0" y="0" flags="0x204"/>
      <component glyphName="circumflex" x="111" y="541" flags="0x4"/>
    </TTGlyph>
    <TTGlyph name="Idieresis" xMin="38" yMin="0" xMax="560" yMax="1830">
      <component glyphName="I" x="0" y="0" flags="0x204"/>
      <component glyphName="dieresis" x="-7" y="606" flags="0x4"/>
    </TTGlyph>
    <TTGlyph name="Igrave" xMin="31" yMin="0" xMax="408" yMax="1858">
      <component glyphName="I" x="0" y="0" flags="0x204"/>
      <component glyphName="grave" x="-39" y="541" flags="0x4"/>
    </TTGlyph>
    <TTGlyph name="J" xMin="-47" yMin="-395" xMax="542" yMax="1487">
      <contour>
        <pt x="323" y="1389" on="1"/>
        <pt x="28" y="1389" on="1"/>
        <pt x="28" y="1487" on="1"/>
        <pt x="542" y="1487" on="1"/>
        <pt x="542" y="254" on="1"/>
        <pt x="542" y="105" on="0"/>
        <pt x="470" y="-114" on="0"/>
        <pt x="330" y="-269" on="0"/>
        <pt x="122" y="-367" on="0"/>
        <pt x="-13" y="-395" on="1"/>
        <pt x="-47" y="-309" on="1"/>
        <pt x="13" y="-294" on="0"/>
        <pt x="140" y="-242" on="0"/>
        <pt x="246" y="-163" on="0"/>
        <pt x="318" y="-53" on="0"/>
        <pt x="323" y="20" on="1"/>
      </contour>
    </TTGlyph>
    <TTGlyph name="K" xMin="188" yMin="0" xMax="1261" yMax="1487">
      <contour>
        <pt x="407" y="944" on="1"/>
        <pt x="1023" y="1487" on="1"/>
        <pt x="1175" y="1487" on="1"/>
        <pt x="620" y="999" on="1"/>
        <pt x="1261" y="0" on="1"/>
        <pt x="1005" y="0" on="1"/>
        <pt x="460" y="856" on="1"/>
        <pt x="407" y="809" on="1"/>
        <pt x="407" y="0" on="1"/>
        <pt x="188" y="0" on="1"/>
        <pt x="188" y="1487" on="1"/>
        <pt x="407" y="1487" on="1"/>
      </contour>
    </TTGlyph>
    <TTGlyph name="L" xMin="188" yMin="0" xMax="1019" yMax="1487">
      <contour>
        <pt x="407" y="98" on="1"/>
        <pt x="1019" y="98" on="1"/>
        <pt x="1019" y="0" on="1"/>
        <pt x="188" y="0" on="1"/>
        <pt x="188" y="1487" on="1"/>
        <pt x="407" y="1487" on="1"/>
      </contour>
    </TTGlyph>
    <TTGlyph name="M" xMin="112" yMin="0" xMax="1560" yMax="1487">
      <contour>
        <pt x="876" y="889" on="1"/>
        <pt x="1341" y="1425" on="1"/>
        <pt x="1341" y="1487" on="1"/>
        <pt x="1560" y="1487" on="1"/>
        <pt x="1560" y="0" on="1"/>
        <pt x="1341" y="0" on="1"/>
        <pt x="1341" y="1272" on="1"/>
        <pt x="816" y="666" on="1"/>
        <pt x="294" y="1274" on="1"/>
        <pt x="294" y="0" on="1"/>
        <pt x="192" y="0" on="1"/>
        <pt x="192" y="1393" on="1"/>
        <pt x="112" y="1487" on="1"/>
        <pt x="368" y="1487" on="1"/>
      </contour>
    </TTGlyph>
    <TTGlyph name="N" xMin="69" yMin="0" xMax="1296" yMax="1487">
      <contour>
        <pt x="1296" y="0" on="1"/>
        <pt x="1128" y="0" on="1"/>
        <pt x="304" y="1155" on="1"/>
        <pt x="304" y="0" on="1"/>
        <pt x="202" y="0" on="1"/>
        <pt x="202" y="1298" on="1"/>
        <pt x="69" y="1487" on="1"/>
        <pt x="337" y="1487" on="1"/>
        <pt x="1193" y="285" on="1"/>
        <pt x="1193" y="1487" on="1"/>
        <pt x="1296" y="1487" on="1"/>
      </contour>
    </TTGlyph>
    <TTGlyph name="Ntilde" xMin="70" yMin="0" xMax="1297" yMax="1877">
      <component glyphName="N" x="1" y="0" flags="0x4"/>
      <component glyphName="tilde" x="475" y="600" flags="0x4"/>
    </TTGlyph>
    <TTGlyph name="O" xMin="76" yMin="-29" xMax="1664" yMax="1524">
      <contour>
        <pt x="872" y="-29" on="1"/>
        <pt x="762" y="-29" on="0"/>
        <pt x="559" y="27" on="0"/>
        <pt x="382" y="128" on="0"/>
        <pt x="237" y="270" on="0"/>
        <pt x="133" y="443" on="0"/>
        <pt x="76" y="642" on="0"/>
        <pt x="76" y="750" on="1"/>
        <pt x="76" y="856" on="0"/>
        <pt x="133" y="1054" on="0"/>
        <pt x="237" y="1226" on="0"/>
        <pt x="382" y="1368" on="0"/>
        <pt x="559" y="1468" on="0"/>
        <pt x="762" y="1524" on="0"/>
        <pt x="872" y="1524" on="1"/>
        <pt x="981" y="1524" on="0"/>
        <pt x="1183" y="1469" on="0"/>
        <pt x="1359" y="1368" on="0"/>
        <pt x="1504" y="1226" on="0"/>
        <pt x="1607" y="1054" on="0"/>
        <pt x="1664" y="856" on="0"/>
        <pt x="1664" y="750" on="1"/>
        <pt x="1664" y="642" on="0"/>
        <pt x="1607" y="443" on="0"/>
        <pt x="1504" y="270" on="0"/>
        <pt x="1359" y="128" on="0"/>
        <pt x="1183" y="27" on="0"/>
        <pt x="981" y="-29" on="0"/>
      </contour>
      <contour>
        <pt x="872" y="68" on="1"/>
        <pt x="1008" y="68" on="0"/>
        <pt x="1217" y="174" on="0"/>
        <pt x="1359" y="358" on="0"/>
        <pt x="1432" y="607" on="0"/>
        <pt x="1432" y="750" on="1"/>
        <pt x="1432" y="892" on="0"/>
        <pt x="1360" y="1140" on="0"/>
        <pt x="1219" y="1322" on="0"/>
        <pt x="1009" y="1427" on="0"/>
        <pt x="872" y="1427" on="1"/>
        <pt x="733" y="1427" on="0"/>
        <pt x="524" y="1322" on="0"/>
        <pt x="383" y="1140" on="0"/>
        <pt x="312" y="892" on="0"/>
        <pt x="312" y="750" on="1"/>
        <pt x="312" y="607" on="0"/>
        <pt x="384" y="358" on="0"/>
        <pt x="525" y="174" on="0"/>
        <pt x="735" y="68" on="0"/>
      </contour>
    </TTGlyph>
    <TTGlyph name="OE" xMin="86" yMin="-29" xMax="2244" yMax="1524">
      <contour>
        <pt x="2244" y="1487" on="1"/>
        <pt x="2244" y="1389" on="1"/>
        <pt x="1613" y="1389" on="1"/>
        <pt x="1613" y="938" on="1"/>
        <pt x="2223" y="938" on="1"/>
        <pt x="2223" y="840" on="1"/>
        <pt x="1613" y="840" on="1"/>
        <pt x="1613" y="98" on="1"/>
        <pt x="2244" y="98" on="1"/>
        <pt x="2244" y="0" on="1"/>
        <pt x="1404" y="0" on="1"/>
        <pt x="1404" y="196" on="1"/>
        <pt x="1298" y="90" on="0"/>
        <pt x="1022" y="-29" on="0"/>
        <pt x="862" y="-29" on="1"/>
        <pt x="701" y="-29" on="0"/>
        <pt x="419" y="93" on="0"/>
        <pt x="208" y="305" on="0"/>
        <pt x="86" y="588" on="0"/>
        <pt x="86" y="750" on="1"/>
        <pt x="86" y="856" on="0"/>
        <pt x="142" y="1054" on="0"/>
        <pt x="243" y="1226" on="0"/>
        <pt x="384" y="1368" on="0"/>
        <pt x="557" y="1468" on="0"/>
        <pt x="755" y="1524" on="0"/>
        <pt x="862" y="1524" on="1"/>
        <pt x="1022" y="1524" on="0"/>
        <pt x="1298" y="1405" on="0"/>
        <pt x="1404" y="1299" on="1"/>
        <pt x="1404" y="1487" on="1"/>
      </contour>
      <contour>
        <pt x="862" y="68" on="1"/>
        <pt x="995" y="68" on="0"/>
        <pt x="1198" y="174" on="0"/>
        <pt x="1335" y="358" on="0"/>
        <pt x="1404" y="607" on="0"/>
        <pt x="1404" y="750" on="1"/>
        <pt x="1404" y="892" on="0"/>
        <pt x="1336" y="1140" on="0"/>
        <pt x="1200" y="1322" on="0"/>
        <pt x="997" y="1427" on="0"/>
        <pt x="862" y="1427" on="1"/>
        <pt x="727" y="1427" on="0"/>
        <pt x="524" y="1322" on="0"/>
        <pt x="388" y="1140" on="0"/>
        <pt x="320" y="892" on="0"/>
        <pt x="320" y="750" on="1"/>
        <pt x="320" y="607" on="0"/>
        <pt x="389" y="358" on="0"/>
        <pt x="526" y="174" on="0"/>
        <pt x="728" y="68" on="0"/>
      </contour>
    </TTGlyph>
    <TTGlyph name="Oacute" xMin="76" yMin="-29" xMax="1664" yMax="1860">
      <component glyphName="O" x="0" y="0" flags="0x204"/>
      <component glyphName="acute.case" x="774" y="0" flags="0x4"/>
    </TTGlyph>
    <TTGlyph name="Ocircumflex" xMin="76" yMin="-29" xMax="1664" yMax="1862">
      <component glyphName="O" x="0" y="0" flags="0x204"/>
      <component glyphName="circumflex" x="680" y="545" flags="0x4"/>
    </TTGlyph>
    <TTGlyph name="Odieresis" xMin="76" yMin="-29" xMax="1664" yMax="1830">
      <component glyphName="O" x="0" y="0" flags="0x204"/>
      <component glyphName="dieresis" x="561" y="606" flags="0x4"/>
    </TTGlyph>
    <TTGlyph name="Ograve" xMin="76" yMin="-29" xMax="1664" yMax="1858">
      <component glyphName="O" x="0" y="0" flags="0x204"/>
      <component glyphName="grave" x="505" y="541" flags="0x4"/>
    </TTGlyph>
    <TTGlyph name="Oslash" xMin="76" yMin="-51" xMax="1664" yMax="1566">
      <contour>
        <pt x="426" y="104" on="1"/>
        <pt x="363" y="146" on="0"/>
        <pt x="309" y="199" on="1"/>
        <pt x="237" y="270" on="0"/>
        <pt x="133" y="443" on="0"/>
        <pt x="76" y="642" on="0"/>
        <pt x="76" y="750" on="1"/>
        <pt x="76" y="856" on="0"/>
        <pt x="133" y="1054" on="0"/>
        <pt x="237" y="1226" on="0"/>
        <pt x="382" y="1368" on="0"/>
        <pt x="559" y="1468" on="0"/>
        <pt x="762" y="1524" on="0"/>
        <pt x="872" y="1524" on="1"/>
        <pt x="981" y="1524" on="0"/>
        <pt x="1082" y="1496" on="1"/>
        <pt x="1145" y="1479" on="0"/>
        <pt x="1202" y="1453" on="1"/>
        <pt x="1266" y="1566" on="1"/>
        <pt x="1421" y="1566" on="1"/>
        <pt x="1320" y="1387" on="1"/>
        <pt x="1380" y="1347" on="0"/>
        <pt x="1431" y="1297" on="1"/>
        <pt x="1504" y="1226" on="0"/>
        <pt x="1607" y="1054" on="0"/>
        <pt x="1664" y="856" on="0"/>
        <pt x="1664" y="750" on="1"/>
        <pt x="1664" y="642" on="0"/>
        <pt x="1607" y="443" on="0"/>
        <pt x="1504" y="270" on="0"/>
        <pt x="1359" y="128" on="0"/>
        <pt x="1183" y="27" on="0"/>
        <pt x="981" y="-29" on="0"/>
        <pt x="872" y="-29" on="1"/>
        <pt x="762" y="-29" on="0"/>
        <pt x="660" y="-1" on="1"/>
        <pt x="600" y="15" on="0"/>
        <pt x="544" y="40" on="1"/>
        <pt x="493" y="-51" on="1"/>
        <pt x="338" y="-51" on="1"/>
      </contour>
      <contour>
        <pt x="454" y="266" on="1"/>
        <pt x="474" y="240" on="0"/>
        <pt x="497" y="216" on="1"/>
        <pt x="1145" y="1358" on="1"/>
        <pt x="1130" y="1366" on="0"/>
        <pt x="1114" y="1374" on="1"/>
        <pt x="1009" y="1427" on="0"/>
        <pt x="872" y="1427" on="1"/>
        <pt x="733" y="1427" on="0"/>
        <pt x="524" y="1322" on="0"/>
        <pt x="383" y="1140" on="0"/>
        <pt x="312" y="892" on="0"/>
        <pt x="312" y="750" on="1"/>
        <pt x="312" y="607" on="0"/>
        <pt x="384" y="358" on="0"/>
      </contour>
      <contour>
        <pt x="872" y="68" on="1"/>
        <pt x="1008" y="68" on="0"/>
        <pt x="1217" y="174" on="0"/>
        <pt x="1359" y="358" on="0"/>
        <pt x="1432" y="607" on="0"/>
        <pt x="1432" y="750" on="1"/>
        <pt x="1432" y="892" on="0"/>
        <pt x="1360" y="1140" on="0"/>
        <pt x="1289" y="1231" on="1"/>
        <pt x="1272" y="1253" on="0"/>
        <pt x="1252" y="1274" on="1"/>
        <pt x="604" y="134" on="1"/>
        <pt x="617" y="127" on="0"/>
        <pt x="630" y="121" on="1"/>
        <pt x="735" y="68" on="0"/>
      </contour>
    </TTGlyph>
    <TTGlyph name="Otilde" xMin="76" yMin="-29" xMax="1664" yMax="1857">
      <component glyphName="O" x="0" y="0" flags="0x204"/>
      <component glyphName="tilde" x="583" y="580" flags="0x4"/>
    </TTGlyph>
    <TTGlyph name="P" xMin="188" yMin="0" xMax="1248" yMax="1487">
      <contour>
        <pt x="407" y="391" on="1"/>
        <pt x="407" y="0" on="1"/>
        <pt x="188" y="0" on="1"/>
        <pt x="188" y="1487" on="1"/>
        <pt x="560" y="1487" on="1"/>
        <pt x="717" y="1487" on="0"/>
        <pt x="941" y="1434" on="0"/>
        <pt x="1093" y="1346" on="0"/>
        <pt x="1185" y="1231" on="0"/>
        <pt x="1233" y="1108" on="0"/>
        <pt x="1248" y="985" on="0"/>
        <pt x="1248" y="932" on="1"/>
        <pt x="1248" y="880" on="0"/>
        <pt x="1231" y="759" on="0"/>
        <pt x="1180" y="639" on="0"/>
        <pt x="1087" y="528" on="0"/>
        <pt x="934" y="442" on="0"/>
        <pt x="713" y="391" on="0"/>
        <pt x="560" y="391" on="1"/>
      </contour>
      <contour>
        <pt x="407" y="1389" on="1"/>
        <pt x="407" y="489" on="1"/>
        <pt x="530" y="489" on="1"/>
        <pt x="641" y="489" on="0"/>
        <pt x="821" y="539" on="0"/>
        <pt x="948" y="649" on="0"/>
        <pt x="1016" y="820" on="0"/>
        <pt x="1016" y="942" on="1"/>
        <pt x="1016" y="1035" on="0"/>
        <pt x="981" y="1174" on="0"/>
        <pt x="917" y="1273" on="0"/>
        <pt x="828" y="1337" on="0"/>
        <pt x="721" y="1375" on="0"/>
        <pt x="599" y="1389" on="0"/>
        <pt x="534" y="1389" on="1"/>
      </contour>
    </TTGlyph>
    <TTGlyph name="Q" xMin="76" yMin="-258" xMax="1955" yMax="1524">
      <contour>
        <pt x="872" y="-29" on="1"/>
        <pt x="762" y="-29" on="0"/>
        <pt x="559" y="27" on="0"/>
        <pt x="382" y="128" on="0"/>
        <pt x="237" y="270" on="0"/>
        <pt x="133" y="443" on="0"/>
        <pt x="76" y="642" on="0"/>
        <pt x="76" y="750" on="1"/>
        <pt x="76" y="856" on="0"/>
        <pt x="133" y="1054" on="0"/>
        <pt x="237" y="1226" on="0"/>
        <pt x="382" y="1368" on="0"/>
        <pt x="559" y="1468" on="0"/>
        <pt x="762" y="1524" on="0"/>
        <pt x="872" y="1524" on="1"/>
        <pt x="981" y="1524" on="0"/>
        <pt x="1183" y="1469" on="0"/>
        <pt x="1359" y="1368" on="0"/>
        <pt x="1504" y="1226" on="0"/>
        <pt x="1607" y="1054" on="0"/>
        <pt x="1664" y="856" on="0"/>
        <pt x="1664" y="750" on="1"/>
        <pt x="1664" y="643" on="0"/>
        <pt x="1608" y="446" on="0"/>
        <pt x="1506" y="274" on="0"/>
        <pt x="1364" y="132" on="0"/>
        <pt x="1277" y="81" on="1"/>
        <pt x="1277" y="79" on="1"/>
        <pt x="1332" y="74" on="0"/>
        <pt x="1437" y="40" on="0"/>
        <pt x="1543" y="-8" on="0"/>
        <pt x="1651" y="-64" on="0"/>
        <pt x="1710" y="-92" on="1"/>
        <pt x="1744" y="-108" on="0"/>
        <pt x="1803" y="-117" on="0"/>
        <pt x="1826" y="-117" on="1"/>
        <pt x="1852" y="-117" on="0"/>
        <pt x="1894" y="-106" on="0"/>
        <pt x="1925" y="-92" on="1"/>
        <pt x="1955" y="-150" on="1"/>
        <pt x="1934" y="-171" on="0"/>
        <pt x="1884" y="-210" on="0"/>
        <pt x="1820" y="-240" on="0"/>
        <pt x="1739" y="-258" on="0"/>
        <pt x="1687" y="-258" on="1"/>
        <pt x="1630" y="-258" on="0"/>
        <pt x="1511" y="-212" on="0"/>
        <pt x="1389" y="-145" on="0"/>
        <pt x="1262" y="-70" on="0"/>
        <pt x="1196" y="-41" on="1"/>
        <pt x="1167" y="-28" on="0"/>
        <pt x="1084" y="-15" on="0"/>
        <pt x="1041" y="-11" on="1"/>
        <pt x="999" y="-19" on="0"/>
        <pt x="917" y="-29" on="0"/>
      </contour>
      <contour>
        <pt x="872" y="68" on="1"/>
        <pt x="1008" y="68" on="0"/>
        <pt x="1217" y="174" on="0"/>
        <pt x="1359" y="358" on="0"/>
        <pt x="1432" y="607" on="0"/>
        <pt x="1432" y="750" on="1"/>
        <pt x="1432" y="892" on="0"/>
        <pt x="1360" y="1140" on="0"/>
        <pt x="1219" y="1322" on="0"/>
        <pt x="1009" y="1427" on="0"/>
        <pt x="872" y="1427" on="1"/>
        <pt x="733" y="1427" on="0"/>
        <pt x="524" y="1322" on="0"/>
        <pt x="383" y="1140" on="0"/>
        <pt x="312" y="892" on="0"/>
        <pt x="312" y="750" on="1"/>
        <pt x="312" y="607" on="0"/>
        <pt x="384" y="358" on="0"/>
        <pt x="525" y="174" on="0"/>
        <pt x="735" y="68" on="0"/>
      </contour>
    </TTGlyph>
    <TTGlyph name="R" xMin="188" yMin="0" xMax="1257" yMax="1487">
      <contour>
        <pt x="655" y="1487" on="1"/>
        <pt x="782" y="1487" on="0"/>
        <pt x="967" y="1442" on="0"/>
        <pt x="1096" y="1368" on="0"/>
        <pt x="1175" y="1272" on="0"/>
        <pt x="1218" y="1170" on="0"/>
        <pt x="1233" y="1069" on="0"/>
        <pt x="1233" y="1026" on="1"/>
        <pt x="1233" y="971" on="0"/>
        <pt x="1198" y="835" on="0"/>
        <pt x="1107" y="707" on="0"/>
        <pt x="949" y="604" on="0"/>
        <pt x="827" y="582" on="1"/>
        <pt x="1257" y="0" on="1"/>
        <pt x="989" y="0" on="1"/>
        <pt x="569" y="567" on="1"/>
        <pt x="407" y="567" on="1"/>
        <pt x="407" y="0" on="1"/>
        <pt x="188" y="0" on="1"/>
        <pt x="188" y="1487" on="1"/>
      </contour>
      <contour>
        <pt x="407" y="1389" on="1"/>
        <pt x="407" y="666" on="1"/>
        <pt x="532" y="666" on="1"/>
        <pt x="639" y="666" on="0"/>
        <pt x="812" y="705" on="0"/>
        <pt x="935" y="792" on="0"/>
        <pt x="1001" y="931" on="0"/>
        <pt x="1001" y="1030" on="1"/>
        <pt x="1001" y="1142" on="0"/>
        <pt x="921" y="1283" on="0"/>
        <pt x="790" y="1361" on="0"/>
        <pt x="622" y="1389" on="0"/>
        <pt x="534" y="1389" on="1"/>
      </contour>
    </TTGlyph>
    <TTGlyph name="S" xMin="77" yMin="-35" xMax="950" yMax="1518">
      <contour>
        <pt x="491" y="1518" on="1"/>
        <pt x="557" y="1518" on="0"/>
        <pt x="656" y="1506" on="0"/>
        <pt x="743" y="1485" on="0"/>
        <pt x="829" y="1457" on="0"/>
        <pt x="882" y="1440" on="1"/>
        <pt x="878" y="1335" on="1"/>
        <pt x="840" y="1348" on="0"/>
        <pt x="762" y="1372" on="0"/>
        <pt x="677" y="1390" on="0"/>
        <pt x="581" y="1401" on="0"/>
        <pt x="526" y="1401" on="1"/>
        <pt x="501" y="1401" on="0"/>
        <pt x="435" y="1385" on="0"/>
        <pt x="375" y="1347" on="0"/>
        <pt x="333" y="1285" on="0"/>
        <pt x="333" y="1239" on="1"/>
        <pt x="333" y="1196" on="0"/>
        <pt x="401" y="1081" on="0"/>
        <pt x="481" y="995" on="1"/>
        <pt x="657" y="805" on="1"/>
        <pt x="715" y="745" on="0"/>
        <pt x="822" y="628" on="0"/>
        <pt x="902" y="515" on="0"/>
        <pt x="950" y="404" on="0"/>
        <pt x="950" y="350" on="1"/>
        <pt x="950" y="245" on="0"/>
        <pt x="873" y="98" on="0"/>
        <pt x="750" y="7" on="0"/>
        <pt x="594" y="-35" on="0"/>
        <pt x="516" y="-35" on="1"/>
        <pt x="448" y="-35" on="0"/>
        <pt x="330" y="-20" on="0"/>
        <pt x="223" y="9" on="0"/>
        <pt x="125" y="52" on="0"/>
        <pt x="77" y="80" on="1"/>
        <pt x="90" y="188" on="1"/>
        <pt x="129" y="170" on="0"/>
        <pt x="211" y="133" on="0"/>
        <pt x="296" y="104" on="0"/>
        <pt x="384" y="86" on="0"/>
        <pt x="428" y="86" on="1"/>
        <pt x="575" y="86" on="0"/>
        <pt x="725" y="207" on="0"/>
        <pt x="725" y="322" on="1"/>
        <pt x="725" y="357" on="0"/>
        <pt x="694" y="429" on="0"/>
        <pt x="640" y="506" on="0"/>
        <pt x="567" y="588" on="0"/>
        <pt x="526" y="633" on="1"/>
        <pt x="348" y="827" on="1"/>
        <pt x="280" y="910" on="0"/>
        <pt x="188" y="1028" on="0"/>
        <pt x="133" y="1120" on="0"/>
        <pt x="110" y="1197" on="0"/>
        <pt x="110" y="1239" on="1"/>
        <pt x="110" y="1320" on="0"/>
        <pt x="176" y="1427" on="0"/>
        <pt x="284" y="1491" on="0"/>
        <pt x="420" y="1518" on="0"/>
      </contour>
    </TTGlyph>
    <TTGlyph name="T" xMin="49" yMin="0" xMax="991" yMax="1487">
      <contour>
        <pt x="991" y="1487" on="1"/>
        <pt x="991" y="1389" on="1"/>
        <pt x="631" y="1389" on="1"/>
        <pt x="631" y="0" on="1"/>
        <pt x="412" y="0" on="1"/>
        <pt x="412" y="1389" on="1"/>
        <pt x="49" y="1389" on="1"/>
        <pt x="49" y="1487" on="1"/>
      </contour>
    </TTGlyph>
    <TTGlyph name="Thorn" xMin="188" yMin="0" xMax="1248" yMax="1487">
      <contour>
        <pt x="407" y="1321" on="1"/>
        <pt x="560" y="1321" on="1"/>
        <pt x="717" y="1321" on="0"/>
        <pt x="941" y="1268" on="0"/>
        <pt x="1093" y="1180" on="0"/>
        <pt x="1185" y="1065" on="0"/>
        <pt x="1233" y="942" on="0"/>
        <pt x="1248" y="819" on="0"/>
        <pt x="1248" y="766" on="1"/>
        <pt x="1248" y="714" on="0"/>
        <pt x="1231" y="593" on="0"/>
        <pt x="1180" y="473" on="0"/>
        <pt x="1087" y="362" on="0"/>
        <pt x="934" y="276" on="0"/>
        <pt x="713" y="225" on="0"/>
        <pt x="560" y="225" on="1"/>
        <pt x="407" y="225" on="1"/>
        <pt x="407" y="0" on="1"/>
        <pt x="188" y="0" on="1"/>
        <pt x="188" y="1487" on="1"/>
        <pt x="407" y="1487" on="1"/>
      </contour>
      <contour>
        <pt x="407" y="1223" on="1"/>
        <pt x="407" y="324" on="1"/>
        <pt x="530" y="324" on="1"/>
        <pt x="641" y="324" on="0"/>
        <pt x="825" y="374" on="0"/>
        <pt x="957" y="483" on="0"/>
        <pt x="1029" y="654" on="0"/>
        <pt x="1029" y="776" on="1"/>
        <pt x="1029" y="869" on="0"/>
        <pt x="992" y="1008" on="0"/>
        <pt x="925" y="1107" on="0"/>
        <pt x="833" y="1171" on="0"/>
        <pt x="723" y="1209" on="0"/>
        <pt x="599" y="1223" on="0"/>
        <pt x="534" y="1223" on="1"/>
      </contour>
    </TTGlyph>
    <TTGlyph name="U" xMin="181" yMin="-29" xMax="1310" yMax="1487">
      <contour>
        <pt x="1091" y="1487" on="1"/>
        <pt x="1310" y="1487" on="1"/>
        <pt x="1310" y="0" on="1"/>
        <pt x="1091" y="0" on="1"/>
        <pt x="1091" y="117" on="1"/>
        <pt x="847" y="35" on="1"/>
        <pt x="797" y="18" on="0"/>
        <pt x="695" y="-6" on="0"/>
        <pt x="599" y="-22" on="0"/>
        <pt x="513" y="-29" on="0"/>
        <pt x="480" y="-29" on="1"/>
        <pt x="409" y="-29" on="0"/>
        <pt x="309" y="2" on="0"/>
        <pt x="243" y="51" on="0"/>
        <pt x="205" y="111" on="0"/>
        <pt x="186" y="167" on="0"/>
        <pt x="181" y="214" on="0"/>
        <pt x="181" y="225" on="1"/>
        <pt x="181" y="1487" on="1"/>
        <pt x="401" y="1487" on="1"/>
        <pt x="401" y="311" on="1"/>
        <pt x="401" y="292" on="0"/>
        <pt x="409" y="223" on="0"/>
        <pt x="447" y="156" on="0"/>
        <pt x="527" y="106" on="0"/>
        <pt x="599" y="106" on="1"/>
        <pt x="658" y="106" on="0"/>
        <pt x="770" y="118" on="0"/>
        <pt x="887" y="142" on="0"/>
        <pt x="1015" y="179" on="0"/>
        <pt x="1091" y="205" on="1"/>
      </contour>
    </TTGlyph>
    <TTGlyph name="Uacute" xMin="181" yMin="-29" xMax="1310" yMax="1860">
      <component glyphName="U" x="0" y="0" flags="0x204"/>
      <component glyphName="acute.case" x="583" y="0" flags="0x4"/>
    </TTGlyph>
    <TTGlyph name="Ucircumflex" xMin="181" yMin="-29" xMax="1310" yMax="1862">
      <component glyphName="U" x="0" y="0" flags="0x204"/>
      <component glyphName="circumflex" x="552" y="545" flags="0x4"/>
    </TTGlyph>
    <TTGlyph name="Udieresis" xMin="181" yMin="-29" xMax="1310" yMax="1830">
      <component glyphName="U" x="0" y="0" flags="0x204"/>
      <component glyphName="dieresis" x="442" y="606" flags="0x4"/>
    </TTGlyph>
    <TTGlyph name="Ugrave" xMin="181" yMin="-29" xMax="1310" yMax="1860">
      <component glyphName="U" x="0" y="0" flags="0x204"/>
      <component glyphName="grave" x="421" y="543" flags="0x4"/>
    </TTGlyph>
    <TTGlyph name="V" xMin="1" yMin="0" xMax="1343" yMax="1487">
      <contour>
        <pt x="1" y="1487" on="1"/>
        <pt x="231" y="1487" on="1"/>
        <pt x="720" y="274" on="1"/>
        <pt x="1230" y="1487" on="1"/>
        <pt x="1343" y="1487" on="1"/>
        <pt x="775" y="135" on="1"/>
        <pt x="831" y="0" on="1"/>
        <pt x="595" y="0" on="1"/>
      </contour>
    </TTGlyph>
    <TTGlyph name="W" xMin="28" yMin="0" xMax="1797" yMax="1487">
      <contour>
        <pt x="28" y="1487" on="1"/>
        <pt x="247" y="1487" on="1"/>
        <pt x="619" y="336" on="1"/>
        <pt x="852" y="893" on="1"/>
        <pt x="659" y="1487" on="1"/>
        <pt x="879" y="1487" on="1"/>
        <pt x="1250" y="342" on="1"/>
        <pt x="1684" y="1487" on="1"/>
        <pt x="1797" y="1487" on="1"/>
        <pt x="1301" y="184" on="1"/>
        <pt x="1363" y="0" on="1"/>
        <pt x="1140" y="0" on="1"/>
        <pt x="901" y="737" on="1"/>
        <pt x="669" y="182" on="1"/>
        <pt x="728" y="0" on="1"/>
        <pt x="507" y="0" on="1"/>
      </contour>
    </TTGlyph>
    <TTGlyph name="X" xMin="20" yMin="0" xMax="1273" yMax="1487">
      <contour>
        <pt x="657" y="928" on="1"/>
        <pt x="1027" y="1487" on="1"/>
        <pt x="1152" y="1487" on="1"/>
        <pt x="720" y="834" on="1"/>
        <pt x="1273" y="0" on="1"/>
        <pt x="1003" y="0" on="1"/>
        <pt x="575" y="653" on="1"/>
        <pt x="145" y="0" on="1"/>
        <pt x="20" y="0" on="1"/>
        <pt x="513" y="750" on="1"/>
        <pt x="32" y="1487" on="1"/>
        <pt x="290" y="1487" on="1"/>
      </contour>
    </TTGlyph>
    <TTGlyph name="Y" xMin="-3" yMin="0" xMax="1093" yMax="1487">
      <contour>
        <pt x="470" y="676" on="1"/>
        <pt x="-3" y="1487" on="1"/>
        <pt x="253" y="1487" on="1"/>
        <pt x="624" y="817" on="1"/>
        <pt x="972" y="1487" on="1"/>
        <pt x="1093" y="1487" on="1"/>
        <pt x="681" y="688" on="1"/>
        <pt x="681" y="0" on="1"/>
        <pt x="470" y="0" on="1"/>
      </contour>
    </TTGlyph>
    <TTGlyph name="Yacute" xMin="-3" yMin="0" xMax="1093" yMax="1860">
      <component glyphName="Y" x="0" y="0" flags="0x204"/>
      <component glyphName="acute.case" x="457" y="0" flags="0x4"/>
    </TTGlyph>
    <TTGlyph name="Z" xMin="2" yMin="0" xMax="1128" yMax="1487">
      <contour>
        <pt x="1128" y="1487" on="1"/>
        <pt x="305" y="98" on="1"/>
        <pt x="1116" y="98" on="1"/>
        <pt x="1116" y="0" on="1"/>
        <pt x="2" y="0" on="1"/>
        <pt x="823" y="1389" on="1"/>
        <pt x="96" y="1389" on="1"/>
        <pt x="96" y="1487" on="1"/>
      </contour>
    </TTGlyph>
    <TTGlyph name="a" xMin="52" yMin="0" xMax="879" yMax="961">
      <contour>
        <pt x="461" y="874" on="1"/>
        <pt x="413" y="874" on="0"/>
        <pt x="342" y="868" on="0"/>
        <pt x="284" y="858" on="0"/>
        <pt x="234" y="845" on="0"/>
        <pt x="209" y="838" on="1"/>
        <pt x="185" y="903" on="1"/>
        <pt x="269" y="934" on="0"/>
        <pt x="452" y="961" on="0"/>
        <pt x="534" y="961" on="1"/>
        <pt x="639" y="961" on="0"/>
        <pt x="774" y="939" on="0"/>
        <pt x="850" y="888" on="0"/>
        <pt x="879" y="803" on="0"/>
        <pt x="879" y="739" on="1"/>
        <pt x="879" y="0" on="1"/>
        <pt x="551" y="0" on="1"/>
        <pt x="417" y="0" on="0"/>
        <pt x="228" y="56" on="0"/>
        <pt x="108" y="151" on="0"/>
        <pt x="52" y="274" on="0"/>
        <pt x="52" y="342" on="1"/>
        <pt x="52" y="426" on="0"/>
        <pt x="105" y="554" on="0"/>
        <pt x="205" y="641" on="0"/>
        <pt x="349" y="686" on="0"/>
        <pt x="441" y="686" on="1"/>
        <pt x="491" y="686" on="0"/>
        <pt x="618" y="652" on="0"/>
        <pt x="676" y="618" on="1"/>
        <pt x="676" y="743" on="1"/>
        <pt x="676" y="766" on="0"/>
        <pt x="666" y="813" on="0"/>
        <pt x="624" y="850" on="0"/>
        <pt x="537" y="874" on="0"/>
      </contour>
      <contour>
        <pt x="676" y="82" on="1"/>
        <pt x="676" y="545" on="1"/>
        <pt x="628" y="574" on="0"/>
        <pt x="524" y="602" on="0"/>
        <pt x="461" y="602" on="1"/>
        <pt x="411" y="602" on="0"/>
        <pt x="334" y="566" on="0"/>
        <pt x="282" y="500" on="0"/>
        <pt x="255" y="408" on="0"/>
        <pt x="255" y="352" on="1"/>
        <pt x="255" y="336" on="0"/>
        <pt x="258" y="284" on="0"/>
        <pt x="275" y="224" on="0"/>
        <pt x="310" y="163" on="0"/>
        <pt x="374" y="113" on="0"/>
        <pt x="472" y="82" on="0"/>
        <pt x="543" y="82" on="1"/>
      </contour>
    </TTGlyph>
    <TTGlyph name="aacute" xMin="52" yMin="0" xMax="879" yMax="1378">
      <component glyphName="a" x="0" y="0" flags="0x204"/>
      <component glyphName="acute" x="361" y="61" flags="0x4"/>
    </TTGlyph>
    <TTGlyph name="acircumflex" xMin="52" yMin="0" xMax="879" yMax="1378">
      <component glyphName="a" x="0" y="0" flags="0x204"/>
      <component glyphName="circumflex" x="336" y="61" flags="0x4"/>
    </TTGlyph>
    <TTGlyph name="acute" xMin="70" yMin="1024" xMax="428" yMax="1317">
      <contour>
        <pt x="195" y="1317" on="1"/>
        <pt x="428" y="1317" on="1"/>
        <pt x="164" y="1024" on="1"/>
        <pt x="70" y="1024" on="1"/>
      </contour>
    </TTGlyph>
    <TTGlyph name="acute.case" xMin="49" yMin="1567" xMax="403" yMax="1860">
      <contour>
        <pt x="403" y="1860" on="1"/>
        <pt x="123" y="1567" on="1"/>
        <pt x="49" y="1567" on="1"/>
        <pt x="160" y="1860" on="1"/>
      </contour>
    </TTGlyph>
    <TTGlyph name="adieresis" xMin="52" yMin="0" xMax="879" yMax="1304">
      <component glyphName="a" x="0" y="0" flags="0x204"/>
      <component glyphName="dieresis" x="209" y="80" flags="0x4"/>
    </TTGlyph>
    <TTGlyph name="ae" xMin="52" yMin="0" xMax="1487" yMax="961">
      <contour>
        <pt x="1117" y="961" on="1"/>
        <pt x="1219" y="961" on="0"/>
        <pt x="1360" y="886" on="0"/>
        <pt x="1448" y="758" on="0"/>
        <pt x="1487" y="591" on="0"/>
        <pt x="1487" y="498" on="1"/>
        <pt x="1487" y="451" on="1"/>
        <pt x="881" y="451" on="1"/>
        <pt x="881" y="395" on="0"/>
        <pt x="917" y="265" on="0"/>
        <pt x="998" y="155" on="0"/>
        <pt x="1127" y="82" on="0"/>
        <pt x="1221" y="82" on="1"/>
        <pt x="1430" y="82" on="1"/>
        <pt x="1430" y="0" on="1"/>
        <pt x="1219" y="0" on="1"/>
        <pt x="1101" y="0" on="0"/>
        <pt x="925" y="43" on="0"/>
        <pt x="859" y="86" on="1"/>
        <pt x="859" y="0" on="1"/>
        <pt x="551" y="0" on="1"/>
        <pt x="417" y="0" on="0"/>
        <pt x="228" y="56" on="0"/>
        <pt x="108" y="151" on="0"/>
        <pt x="52" y="274" on="0"/>
        <pt x="52" y="342" on="1"/>
        <pt x="52" y="426" on="0"/>
        <pt x="105" y="554" on="0"/>
        <pt x="205" y="641" on="0"/>
        <pt x="349" y="686" on="0"/>
        <pt x="441" y="686" on="1"/>
        <pt x="465" y="686" on="0"/>
        <pt x="524" y="677" on="0"/>
        <pt x="586" y="659" on="0"/>
        <pt x="648" y="633" on="0"/>
        <pt x="676" y="616" on="1"/>
        <pt x="676" y="723" on="1"/>
        <pt x="676" y="746" on="0"/>
        <pt x="666" y="799" on="0"/>
        <pt x="624" y="844" on="0"/>
        <pt x="537" y="874" on="0"/>
        <pt x="461" y="874" on="1"/>
        <pt x="413" y="874" on="0"/>
        <pt x="342" y="868" on="0"/>
        <pt x="284" y="858" on="0"/>
        <pt x="234" y="845" on="0"/>
        <pt x="209" y="838" on="1"/>
        <pt x="185" y="903" on="1"/>
        <pt x="226" y="918" on="0"/>
        <pt x="314" y="940" on="0"/>
        <pt x="401" y="954" on="0"/>
        <pt x="482" y="961" on="0"/>
        <pt x="517" y="961" on="1"/>
        <pt x="587" y="961" on="0"/>
        <pt x="691" y="949" on="0"/>
        <pt x="766" y="923" on="0"/>
        <pt x="815" y="882" on="0"/>
        <pt x="830" y="854" on="1"/>
        <pt x="884" y="905" on="0"/>
        <pt x="1026" y="961" on="0"/>
      </contour>
      <contour>
        <pt x="676" y="82" on="1"/>
        <pt x="676" y="545" on="1"/>
        <pt x="628" y="573" on="0"/>
        <pt x="524" y="602" on="0"/>
        <pt x="461" y="602" on="1"/>
        <pt x="411" y="602" on="0"/>
        <pt x="334" y="566" on="0"/>
        <pt x="282" y="500" on="0"/>
        <pt x="255" y="408" on="0"/>
        <pt x="255" y="352" on="1"/>
        <pt x="255" y="336" on="0"/>
        <pt x="258" y="284" on="0"/>
        <pt x="275" y="224" on="0"/>
        <pt x="310" y="163" on="0"/>
        <pt x="374" y="113" on="0"/>
        <pt x="472" y="82" on="0"/>
        <pt x="543" y="82" on="1"/>
      </contour>
      <contour>
        <pt x="1106" y="870" on="1"/>
        <pt x="1044" y="870" on="0"/>
        <pt x="959" y="814" on="0"/>
        <pt x="906" y="721" on="0"/>
        <pt x="882" y="598" on="0"/>
        <pt x="881" y="532" on="1"/>
        <pt x="1295" y="532" on="1"/>
        <pt x="1295" y="575" on="1"/>
        <pt x="1293" y="633" on="0"/>
        <pt x="1275" y="739" on="0"/>
        <pt x="1233" y="821" on="0"/>
        <pt x="1161" y="870" on="0"/>
      </contour>
    </TTGlyph>
    <TTGlyph name="agrave" xMin="52" yMin="0" xMax="879" yMax="1378">
      <component glyphName="a" x="0" y="0" flags="0x204"/>
      <component glyphName="grave" x="220" y="61" flags="0x4"/>
    </TTGlyph>
    <TTGlyph name="ampersand" xMin="96" yMin="-31" xMax="1237" yMax="1356">
      <contour>
        <pt x="786" y="1255" on="1"/>
        <pt x="452" y="1255" on="1"/>
        <pt x="412" y="1255" on="0"/>
        <pt x="360" y="1223" on="0"/>
        <pt x="360" y="1180" on="1"/>
        <pt x="360" y="1153" on="0"/>
        <pt x="396" y="1095" on="0"/>
        <pt x="417" y="1071" on="1"/>
        <pt x="514" y="948" on="1"/>
      </contour>
      <contour>
        <pt x="1024" y="1356" on="1"/>
        <pt x="587" y="854" on="1"/>
        <pt x="903" y="451" on="1"/>
        <pt x="1083" y="666" on="1"/>
        <pt x="1083" y="492" on="1"/>
        <pt x="972" y="358" on="1"/>
        <pt x="1237" y="0" on="1"/>
        <pt x="993" y="0" on="1"/>
        <pt x="854" y="197" on="1"/>
        <pt x="823" y="162" on="1"/>
        <pt x="795" y="130" on="0"/>
        <pt x="722" y="62" on="0"/>
        <pt x="630" y="6" on="0"/>
        <pt x="519" y="-31" on="0"/>
        <pt x="454" y="-31" on="1"/>
        <pt x="371" y="-31" on="0"/>
        <pt x="239" y="19" on="0"/>
        <pt x="146" y="106" on="0"/>
        <pt x="96" y="225" on="0"/>
        <pt x="96" y="293" on="1"/>
        <pt x="96" y="345" on="0"/>
        <pt x="118" y="442" on="0"/>
        <pt x="173" y="547" on="0"/>
        <pt x="264" y="668" on="0"/>
        <pt x="333" y="745" on="1"/>
        <pt x="385" y="803" on="1"/>
        <pt x="208" y="1044" on="1"/>
        <pt x="197" y="1059" on="0"/>
        <pt x="173" y="1095" on="0"/>
        <pt x="153" y="1138" on="0"/>
        <pt x="141" y="1189" on="0"/>
        <pt x="141" y="1221" on="1"/>
        <pt x="141" y="1281" on="0"/>
        <pt x="226" y="1356" on="0"/>
        <pt x="307" y="1356" on="1"/>
      </contour>
      <contour>
        <pt x="458" y="713" on="1"/>
        <pt x="426" y="676" on="1"/>
        <pt x="412" y="661" on="0"/>
        <pt x="361" y="604" on="0"/>
        <pt x="311" y="527" on="0"/>
        <pt x="274" y="432" on="0"/>
        <pt x="274" y="379" on="1"/>
        <pt x="275" y="324" on="0"/>
        <pt x="309" y="233" on="0"/>
        <pt x="370" y="167" on="0"/>
        <pt x="457" y="131" on="0"/>
        <pt x="512" y="131" on="1"/>
        <pt x="558" y="131" on="0"/>
        <pt x="633" y="155" on="0"/>
        <pt x="692" y="191" on="0"/>
        <pt x="735" y="232" on="0"/>
        <pt x="749" y="248" on="1"/>
        <pt x="782" y="285" on="1"/>
      </contour>
    </TTGlyph>
    <TTGlyph name="aring" xMin="52" yMin="0" xMax="879" yMax="1401">
      <component glyphName="a" x="0" y="0" flags="0x204"/>
      <component glyphName="ring" x="205" y="55" flags="0x4"/>
    </TTGlyph>
    <TTGlyph name="asciicircum" xMin="162" yMin="633" xMax="1067" yMax="1380">
      <contour>
        <pt x="614" y="1225" on="1"/>
        <pt x="322" y="633" on="1"/>
        <pt x="162" y="633" on="1"/>
        <pt x="532" y="1380" on="1"/>
        <pt x="696" y="1380" on="1"/>
        <pt x="1067" y="633" on="1"/>
        <pt x="907" y="633" on="1"/>
      </contour>
    </TTGlyph>
    <TTGlyph name="asciitilde" xMin="95" yMin="383" xMax="1041" yMax="653">
      <contour>
        <pt x="95" y="477" on="1"/>
        <pt x="112" y="509" on="0"/>
        <pt x="157" y="572" on="0"/>
        <pt x="216" y="622" on="0"/>
        <pt x="290" y="653" on="0"/>
        <pt x="335" y="653" on="1"/>
        <pt x="401" y="653" on="0"/>
        <pt x="524" y="619" on="0"/>
        <pt x="587" y="590" on="1"/>
        <pt x="641" y="561" on="0"/>
        <pt x="745" y="518" on="0"/>
        <pt x="802" y="518" on="1"/>
        <pt x="856" y="518" on="0"/>
        <pt x="933" y="566" on="0"/>
        <pt x="968" y="623" on="1"/>
        <pt x="1041" y="559" on="1"/>
        <pt x="1018" y="527" on="0"/>
        <pt x="969" y="464" on="0"/>
        <pt x="911" y="414" on="0"/>
        <pt x="843" y="383" on="0"/>
        <pt x="802" y="383" on="1"/>
        <pt x="736" y="383" on="0"/>
        <pt x="613" y="418" on="0"/>
        <pt x="550" y="449" on="1"/>
        <pt x="495" y="476" on="0"/>
        <pt x="392" y="518" on="0"/>
        <pt x="335" y="518" on="1"/>
        <pt x="272" y="518" on="0"/>
        <pt x="194" y="469" on="0"/>
        <pt x="169" y="414" on="1"/>
      </contour>
    </TTGlyph>
    <TTGlyph name="asterisk" xMin="93" yMin="766" xMax="830" yMax="1468">
      <contour>
        <pt x="775" y="1307" on="1"/>
        <pt x="830" y="1137" on="1"/>
        <pt x="511" y="1094" on="1"/>
        <pt x="746" y="874" on="1"/>
        <pt x="601" y="768" on="1"/>
        <pt x="462" y="1059" on="1"/>
        <pt x="324" y="766" on="1"/>
        <pt x="179" y="872" on="1"/>
        <pt x="413" y="1094" on="1"/>
        <pt x="93" y="1135" on="1"/>
        <pt x="148" y="1305" on="1"/>
        <pt x="431" y="1151" on="1"/>
        <pt x="370" y="1468" on="1"/>
        <pt x="550" y="1468" on="1"/>
        <pt x="490" y="1151" on="1"/>
      </contour>
    </TTGlyph>
    <TTGlyph name="at" xMin="100" yMin="-270" xMax="1478" yMax="1282">
      <contour>
        <pt x="1276" y="195" on="1"/>
        <pt x="1276" y="698" on="1"/>
        <pt x="1234" y="718" on="0"/>
        <pt x="1134" y="741" on="0"/>
        <pt x="1077" y="741" on="1"/>
        <pt x="1027" y="741" on="0"/>
        <pt x="946" y="701" on="0"/>
        <pt x="888" y="631" on="0"/>
        <pt x="856" y="535" on="0"/>
        <pt x="856" y="479" on="1"/>
        <pt x="856" y="458" on="0"/>
        <pt x="859" y="400" on="0"/>
        <pt x="875" y="336" on="0"/>
        <pt x="910" y="275" on="0"/>
        <pt x="974" y="225" on="0"/>
        <pt x="1072" y="195" on="0"/>
        <pt x="1143" y="195" on="1"/>
      </contour>
      <contour>
        <pt x="874" y="1186" on="1"/>
        <pt x="743" y="1186" on="0"/>
        <pt x="531" y="1080" on="0"/>
        <pt x="381" y="896" on="0"/>
        <pt x="299" y="649" on="0"/>
        <pt x="299" y="508" on="1"/>
        <pt x="299" y="367" on="0"/>
        <pt x="380" y="119" on="0"/>
        <pt x="531" y="-66" on="0"/>
        <pt x="749" y="-174" on="0"/>
        <pt x="887" y="-174" on="1"/>
        <pt x="941" y="-174" on="0"/>
        <pt x="1039" y="-165" on="0"/>
        <pt x="1133" y="-145" on="0"/>
        <pt x="1225" y="-113" on="0"/>
        <pt x="1274" y="-90" on="1"/>
        <pt x="1274" y="-176" on="1"/>
        <pt x="1180" y="-227" on="0"/>
        <pt x="990" y="-270" on="0"/>
        <pt x="887" y="-270" on="1"/>
        <pt x="708" y="-270" on="0"/>
        <pt x="417" y="-148" on="0"/>
        <pt x="211" y="63" on="0"/>
        <pt x="100" y="347" on="0"/>
        <pt x="100" y="508" on="1"/>
        <pt x="100" y="614" on="0"/>
        <pt x="155" y="812" on="0"/>
        <pt x="256" y="984" on="0"/>
        <pt x="398" y="1125" on="0"/>
        <pt x="569" y="1226" on="0"/>
        <pt x="766" y="1282" on="0"/>
        <pt x="872" y="1282" on="1"/>
        <pt x="992" y="1282" on="0"/>
        <pt x="1210" y="1224" on="0"/>
        <pt x="1376" y="1108" on="0"/>
        <pt x="1476" y="934" on="0"/>
        <pt x="1478" y="817" on="1"/>
        <pt x="1478" y="106" on="1"/>
        <pt x="1151" y="106" on="1"/>
        <pt x="1017" y="106" on="0"/>
        <pt x="827" y="163" on="0"/>
        <pt x="707" y="261" on="0"/>
        <pt x="651" y="394" on="0"/>
        <pt x="651" y="469" on="1"/>
        <pt x="651" y="553" on="0"/>
        <pt x="704" y="688" on="0"/>
        <pt x="804" y="783" on="0"/>
        <pt x="948" y="834" on="0"/>
        <pt x="1040" y="834" on="1"/>
        <pt x="1106" y="834" on="0"/>
        <pt x="1225" y="808" on="0"/>
        <pt x="1276" y="782" on="1"/>
        <pt x="1276" y="821" on="1"/>
        <pt x="1275" y="886" on="0"/>
        <pt x="1239" y="992" on="0"/>
        <pt x="1177" y="1073" on="0"/>
        <pt x="1097" y="1131" on="0"/>
        <pt x="1008" y="1168" on="0"/>
        <pt x="916" y="1186" on="0"/>
      </contour>
    </TTGlyph>
    <TTGlyph name="atilde" xMin="52" yMin="0" xMax="879" yMax="1377">
      <component glyphName="a" x="0" y="0" flags="0x204"/>
      <component glyphName="tilde" x="222" y="100" flags="0x4"/>
    </TTGlyph>
    <TTGlyph name="b" xMin="134" yMin="0" xMax="1063" yMax="1487">
      <contour>
        <pt x="336" y="892" on="1"/>
        <pt x="393" y="927" on="0"/>
        <pt x="521" y="961" on="0"/>
        <pt x="572" y="961" on="1"/>
        <pt x="699" y="961" on="0"/>
        <pt x="884" y="892" on="0"/>
        <pt x="1005" y="771" on="0"/>
        <pt x="1063" y="604" on="0"/>
        <pt x="1063" y="506" on="1"/>
        <pt x="1063" y="407" on="0"/>
        <pt x="1010" y="224" on="0"/>
        <pt x="875" y="84" on="0"/>
        <pt x="643" y="0" on="0"/>
        <pt x="465" y="0" on="1"/>
        <pt x="134" y="0" on="1"/>
        <pt x="134" y="1487" on="1"/>
        <pt x="336" y="1487" on="1"/>
      </contour>
      <contour>
        <pt x="551" y="877" on="1"/>
        <pt x="487" y="877" on="0"/>
        <pt x="384" y="847" on="0"/>
        <pt x="336" y="818" on="1"/>
        <pt x="336" y="82" on="1"/>
        <pt x="465" y="82" on="1"/>
        <pt x="555" y="82" on="0"/>
        <pt x="683" y="126" on="0"/>
        <pt x="771" y="199" on="0"/>
        <pt x="824" y="290" on="0"/>
        <pt x="852" y="385" on="0"/>
        <pt x="861" y="474" on="0"/>
        <pt x="861" y="508" on="1"/>
        <pt x="861" y="581" on="0"/>
        <pt x="820" y="714" on="0"/>
        <pt x="741" y="816" on="0"/>
        <pt x="626" y="877" on="0"/>
      </contour>
    </TTGlyph>
    <TTGlyph name="backslash" xMin="58" yMin="-320" xMax="1063" yMax="1486">
      <contour>
        <pt x="1063" y="-320" on="1"/>
        <pt x="911" y="-320" on="1"/>
        <pt x="58" y="1486" on="1"/>
        <pt x="209" y="1486" on="1"/>
      </contour>
    </TTGlyph>
    <TTGlyph name="bar" xMin="159" yMin="-37" xMax="298" yMax="1573">
      <contour>
        <pt x="159" y="1573" on="1"/>
        <pt x="298" y="1573" on="1"/>
        <pt x="298" y="-37" on="1"/>
        <pt x="159" y="-37" on="1"/>
      </contour>
    </TTGlyph>
    <TTGlyph name="braceleft" xMin="52" yMin="-172" xMax="513" yMax="1565">
      <contour>
        <pt x="222" y="700" on="1"/>
        <pt x="222" y="692" on="1"/>
        <pt x="254" y="671" on="0"/>
        <pt x="311" y="620" on="0"/>
        <pt x="355" y="551" on="0"/>
        <pt x="382" y="456" on="0"/>
        <pt x="384" y="391" on="1"/>
        <pt x="384" y="0" on="1"/>
        <pt x="384" y="-30" on="0"/>
        <pt x="402" y="-63" on="0"/>
        <pt x="436" y="-79" on="0"/>
        <pt x="484" y="-82" on="0"/>
        <pt x="513" y="-82" on="1"/>
        <pt x="513" y="-172" on="1"/>
        <pt x="414" y="-172" on="1"/>
        <pt x="374" y="-172" on="0"/>
        <pt x="304" y="-149" on="0"/>
        <pt x="252" y="-105" on="0"/>
        <pt x="222" y="-41" on="0"/>
        <pt x="222" y="0" on="1"/>
        <pt x="222" y="393" on="1"/>
        <pt x="222" y="452" on="0"/>
        <pt x="214" y="546" on="0"/>
        <pt x="189" y="612" on="0"/>
        <pt x="142" y="649" on="0"/>
        <pt x="103" y="651" on="1"/>
        <pt x="52" y="651" on="1"/>
        <pt x="52" y="741" on="1"/>
        <pt x="103" y="741" on="1"/>
        <pt x="142" y="742" on="0"/>
        <pt x="189" y="780" on="0"/>
        <pt x="214" y="847" on="0"/>
        <pt x="222" y="941" on="0"/>
        <pt x="222" y="999" on="1"/>
        <pt x="222" y="1393" on="1"/>
        <pt x="222" y="1433" on="0"/>
        <pt x="252" y="1497" on="0"/>
        <pt x="304" y="1542" on="0"/>
        <pt x="374" y="1565" on="0"/>
        <pt x="414" y="1565" on="1"/>
        <pt x="513" y="1565" on="1"/>
        <pt x="513" y="1475" on="1"/>
        <pt x="484" y="1475" on="0"/>
        <pt x="436" y="1472" on="0"/>
        <pt x="402" y="1456" on="0"/>
        <pt x="384" y="1423" on="0"/>
        <pt x="384" y="1393" on="1"/>
        <pt x="384" y="1001" on="1"/>
        <pt x="382" y="935" on="0"/>
        <pt x="355" y="842" on="0"/>
        <pt x="311" y="773" on="0"/>
        <pt x="253" y="722" on="0"/>
      </contour>
    </TTGlyph>
    <TTGlyph name="braceright" xMin="70" yMin="-172" xMax="531" yMax="1565">
      <contour>
        <pt x="361" y="700" on="1"/>
        <pt x="330" y="721" on="0"/>
        <pt x="272" y="772" on="0"/>
        <pt x="228" y="842" on="0"/>
        <pt x="200" y="936" on="0"/>
        <pt x="199" y="1001" on="1"/>
        <pt x="199" y="1393" on="1"/>
        <pt x="199" y="1423" on="0"/>
        <pt x="181" y="1456" on="0"/>
        <pt x="147" y="1472" on="0"/>
        <pt x="99" y="1475" on="0"/>
        <pt x="70" y="1475" on="1"/>
        <pt x="70" y="1565" on="1"/>
        <pt x="168" y="1565" on="1"/>
        <pt x="208" y="1565" on="0"/>
        <pt x="278" y="1542" on="0"/>
        <pt x="331" y="1497" on="0"/>
        <pt x="361" y="1433" on="0"/>
        <pt x="361" y="1393" on="1"/>
        <pt x="361" y="999" on="1"/>
        <pt x="361" y="941" on="0"/>
        <pt x="369" y="847" on="0"/>
        <pt x="393" y="780" on="0"/>
        <pt x="440" y="742" on="0"/>
        <pt x="479" y="741" on="1"/>
        <pt x="531" y="741" on="1"/>
        <pt x="531" y="651" on="1"/>
        <pt x="479" y="651" on="1"/>
        <pt x="440" y="649" on="0"/>
        <pt x="393" y="612" on="0"/>
        <pt x="369" y="546" on="0"/>
        <pt x="361" y="452" on="0"/>
        <pt x="361" y="393" on="1"/>
        <pt x="361" y="0" on="1"/>
        <pt x="361" y="-41" on="0"/>
        <pt x="331" y="-105" on="0"/>
        <pt x="278" y="-149" on="0"/>
        <pt x="208" y="-172" on="0"/>
        <pt x="168" y="-172" on="1"/>
        <pt x="70" y="-172" on="1"/>
        <pt x="70" y="-82" on="1"/>
        <pt x="99" y="-82" on="0"/>
        <pt x="147" y="-79" on="0"/>
        <pt x="181" y="-63" on="0"/>
        <pt x="199" y="-30" on="0"/>
        <pt x="199" y="0" on="1"/>
        <pt x="199" y="391" on="1"/>
        <pt x="200" y="456" on="0"/>
        <pt x="227" y="551" on="0"/>
        <pt x="272" y="621" on="0"/>
        <pt x="329" y="671" on="0"/>
        <pt x="361" y="692" on="1"/>
      </contour>
    </TTGlyph>
    <TTGlyph name="bracketleft" xMin="156" yMin="-205" xMax="677" yMax="1536">
      <contour>
        <pt x="677" y="1536" on="1"/>
        <pt x="677" y="1444" on="1"/>
        <pt x="359" y="1444" on="1"/>
        <pt x="359" y="-113" on="1"/>
        <pt x="677" y="-113" on="1"/>
        <pt x="677" y="-205" on="1"/>
        <pt x="156" y="-205" on="1"/>
        <pt x="156" y="1536" on="1"/>
      </contour>
    </TTGlyph>
    <TTGlyph name="bracketright" xMin="43" yMin="-205" xMax="563" yMax="1536">
      <contour>
        <pt x="563" y="1536" on="1"/>
        <pt x="563" y="-205" on="1"/>
        <pt x="43" y="-205" on="1"/>
        <pt x="43" y="-113" on="1"/>
        <pt x="360" y="-113" on="1"/>
        <pt x="360" y="1444" on="1"/>
        <pt x="43" y="1444" on="1"/>
        <pt x="43" y="1536" on="1"/>
      </contour>
    </TTGlyph>
    <TTGlyph name="brokenbar" xMin="164" yMin="-37" xMax="303" yMax="1573">
      <contour>
        <pt x="164" y="1573" on="1"/>
        <pt x="303" y="1573" on="1"/>
        <pt x="303" y="885" on="1"/>
        <pt x="164" y="885" on="1"/>
      </contour>
      <contour>
        <pt x="164" y="651" on="1"/>
        <pt x="303" y="651" on="1"/>
        <pt x="303" y="-37" on="1"/>
        <pt x="164" y="-37" on="1"/>
      </contour>
    </TTGlyph>
    <TTGlyph name="bullet" xMin="86" yMin="309" xMax="627" yMax="852">
      <contour>
        <pt x="357" y="852" on="1"/>
        <pt x="414" y="852" on="0"/>
        <pt x="512" y="810" on="0"/>
        <pt x="585" y="736" on="0"/>
        <pt x="627" y="638" on="0"/>
        <pt x="627" y="582" on="1"/>
        <pt x="627" y="525" on="0"/>
        <pt x="585" y="425" on="0"/>
        <pt x="512" y="352" on="0"/>
        <pt x="414" y="309" on="0"/>
        <pt x="357" y="309" on="1"/>
        <pt x="301" y="309" on="0"/>
        <pt x="202" y="352" on="0"/>
        <pt x="128" y="425" on="0"/>
        <pt x="86" y="525" on="0"/>
        <pt x="86" y="582" on="1"/>
        <pt x="86" y="638" on="0"/>
        <pt x="128" y="736" on="0"/>
        <pt x="202" y="810" on="0"/>
        <pt x="301" y="852" on="0"/>
      </contour>
    </TTGlyph>
    <TTGlyph name="c" xMin="74" yMin="0" xMax="856" yMax="961">
      <contour>
        <pt x="813" y="784" on="1"/>
        <pt x="761" y="826" on="0"/>
        <pt x="655" y="868" on="0"/>
        <pt x="586" y="868" on="1"/>
        <pt x="511" y="868" on="0"/>
        <pt x="396" y="810" on="0"/>
        <pt x="318" y="711" on="0"/>
        <pt x="277" y="581" on="0"/>
        <pt x="277" y="508" on="1"/>
        <pt x="277" y="474" on="0"/>
        <pt x="286" y="385" on="0"/>
        <pt x="314" y="290" on="0"/>
        <pt x="367" y="199" on="0"/>
        <pt x="454" y="126" on="0"/>
        <pt x="583" y="82" on="0"/>
        <pt x="672" y="82" on="1"/>
        <pt x="821" y="82" on="1"/>
        <pt x="821" y="0" on="1"/>
        <pt x="672" y="0" on="1"/>
        <pt x="553" y="0" on="0"/>
        <pt x="372" y="37" on="0"/>
        <pt x="239" y="103" on="0"/>
        <pt x="150" y="196" on="0"/>
        <pt x="96" y="309" on="0"/>
        <pt x="74" y="437" on="0"/>
        <pt x="74" y="506" on="1"/>
        <pt x="74" y="597" on="0"/>
        <pt x="139" y="762" on="0"/>
        <pt x="268" y="887" on="0"/>
        <pt x="459" y="961" on="0"/>
        <pt x="586" y="961" on="1"/>
        <pt x="617" y="961" on="0"/>
        <pt x="687" y="947" on="0"/>
        <pt x="757" y="920" on="0"/>
        <pt x="826" y="879" on="0"/>
        <pt x="856" y="852" on="1"/>
      </contour>
    </TTGlyph>
    <TTGlyph name="caron" xMin="8" yMin="1024" xMax="606" yMax="1317">
      <contour>
        <pt x="424" y="1024" on="1"/>
        <pt x="190" y="1024" on="1"/>
        <pt x="8" y="1317" on="1"/>
        <pt x="109" y="1317" on="1"/>
        <pt x="307" y="1120" on="1"/>
        <pt x="506" y="1317" on="1"/>
        <pt x="606" y="1317" on="1"/>
      </contour>
    </TTGlyph>
    <TTGlyph name="ccedilla" xMin="74" yMin="-420" xMax="856" yMax="961">
      <contour>
        <pt x="813" y="784" on="1"/>
        <pt x="761" y="826" on="0"/>
        <pt x="655" y="868" on="0"/>
        <pt x="586" y="868" on="1"/>
        <pt x="511" y="868" on="0"/>
        <pt x="396" y="810" on="0"/>
        <pt x="318" y="711" on="0"/>
        <pt x="277" y="581" on="0"/>
        <pt x="277" y="508" on="1"/>
        <pt x="277" y="474" on="0"/>
        <pt x="286" y="385" on="0"/>
        <pt x="314" y="290" on="0"/>
        <pt x="367" y="199" on="0"/>
        <pt x="454" y="126" on="0"/>
        <pt x="583" y="82" on="0"/>
        <pt x="672" y="82" on="1"/>
        <pt x="821" y="82" on="1"/>
        <pt x="821" y="0" on="1"/>
        <pt x="672" y="0" on="1"/>
        <pt x="628" y="0" on="0"/>
        <pt x="589" y="2" on="1"/>
        <pt x="589" y="-61" on="1"/>
        <pt x="635" y="-61" on="0"/>
        <pt x="711" y="-86" on="0"/>
        <pt x="763" y="-131" on="0"/>
        <pt x="792" y="-191" on="0"/>
        <pt x="792" y="-227" on="1"/>
        <pt x="792" y="-274" on="0"/>
        <pt x="729" y="-346" on="0"/>
        <pt x="631" y="-395" on="0"/>
        <pt x="512" y="-420" on="0"/>
        <pt x="456" y="-420" on="1"/>
        <pt x="456" y="-367" on="1"/>
        <pt x="492" y="-363" on="0"/>
        <pt x="560" y="-344" on="0"/>
        <pt x="614" y="-310" on="0"/>
        <pt x="646" y="-259" on="0"/>
        <pt x="646" y="-224" on="1"/>
        <pt x="646" y="-170" on="0"/>
        <pt x="572" y="-114" on="0"/>
        <pt x="500" y="-114" on="1"/>
        <pt x="500" y="11" on="1"/>
        <pt x="480" y="15" on="0"/>
        <pt x="462" y="18" on="1"/>
        <pt x="372" y="37" on="0"/>
        <pt x="239" y="103" on="0"/>
        <pt x="150" y="196" on="0"/>
        <pt x="96" y="309" on="0"/>
        <pt x="74" y="437" on="0"/>
        <pt x="74" y="506" on="1"/>
        <pt x="74" y="597" on="0"/>
        <pt x="139" y="762" on="0"/>
        <pt x="268" y="887" on="0"/>
        <pt x="459" y="961" on="0"/>
        <pt x="586" y="961" on="1"/>
        <pt x="617" y="961" on="0"/>
        <pt x="687" y="947" on="0"/>
        <pt x="757" y="920" on="0"/>
        <pt x="826" y="879" on="0"/>
        <pt x="856" y="852" on="1"/>
      </contour>
    </TTGlyph>
    <TTGlyph name="cedilla" xMin="170" yMin="-420" xMax="506" yMax="60">
      <contour>
        <pt x="303" y="60" on="1"/>
        <pt x="303" y="-61" on="1"/>
        <pt x="355" y="-61" on="0"/>
        <pt x="431" y="-89" on="0"/>
        <pt x="481" y="-136" on="0"/>
        <pt x="506" y="-195" on="0"/>
        <pt x="506" y="-225" on="1"/>
        <pt x="506" y="-274" on="0"/>
        <pt x="441" y="-347" on="0"/>
        <pt x="342" y="-396" on="0"/>
        <pt x="223" y="-420" on="0"/>
        <pt x="170" y="-420" on="1"/>
        <pt x="170" y="-367" on="1"/>
        <pt x="203" y="-363" on="0"/>
        <pt x="271" y="-345" on="0"/>
        <pt x="326" y="-312" on="0"/>
        <pt x="360" y="-260" on="0"/>
        <pt x="360" y="-222" on="1"/>
        <pt x="360" y="-202" on="0"/>
        <pt x="346" y="-163" on="0"/>
        <pt x="312" y="-133" on="0"/>
        <pt x="256" y="-114" on="0"/>
        <pt x="214" y="-114" on="1"/>
        <pt x="214" y="60" on="1"/>
      </contour>
    </TTGlyph>
    <TTGlyph name="cent" xMin="95" yMin="-246" xMax="871" yMax="1223">
      <contour>
        <pt x="836" y="795" on="1"/>
        <pt x="782" y="835" on="0"/>
        <pt x="659" y="879" on="0"/>
        <pt x="584" y="879" on="1"/>
        <pt x="513" y="879" on="0"/>
        <pt x="406" y="816" on="0"/>
        <pt x="334" y="710" on="0"/>
        <pt x="298" y="573" on="0"/>
        <pt x="298" y="500" on="1"/>
        <pt x="298" y="473" on="0"/>
        <pt x="308" y="391" on="0"/>
        <pt x="335" y="300" on="0"/>
        <pt x="383" y="208" on="0"/>
        <pt x="458" y="134" on="0"/>
        <pt x="563" y="88" on="0"/>
        <pt x="634" y="88" on="1"/>
        <pt x="842" y="88" on="1"/>
        <pt x="842" y="0" on="1"/>
        <pt x="642" y="0" on="1"/>
        <pt x="642" y="-246" on="1"/>
        <pt x="523" y="-246" on="1"/>
        <pt x="523" y="6" on="1"/>
        <pt x="406" y="20" on="0"/>
        <pt x="243" y="105" on="0"/>
        <pt x="141" y="231" on="0"/>
        <pt x="95" y="391" on="0"/>
        <pt x="95" y="481" on="1"/>
        <pt x="95" y="573" on="0"/>
        <pt x="153" y="746" on="0"/>
        <pt x="264" y="880" on="0"/>
        <pt x="422" y="961" on="0"/>
        <pt x="523" y="961" on="1"/>
        <pt x="523" y="1223" on="1"/>
        <pt x="642" y="1223" on="1"/>
        <pt x="642" y="952" on="1"/>
        <pt x="708" y="941" on="0"/>
        <pt x="825" y="890" on="0"/>
        <pt x="871" y="844" on="1"/>
      </contour>
    </TTGlyph>
    <TTGlyph name="circumflex" xMin="-113" yMin="1024" xMax="485" yMax="1317">
      <contour>
        <pt x="70" y="1317" on="1"/>
        <pt x="303" y="1317" on="1"/>
        <pt x="485" y="1024" on="1"/>
        <pt x="385" y="1024" on="1"/>
        <pt x="186" y="1221" on="1"/>
        <pt x="-12" y="1024" on="1"/>
        <pt x="-113" y="1024" on="1"/>
      </contour>
    </TTGlyph>
    <TTGlyph name="colon" xMin="118" yMin="0" xMax="321" yMax="942">
      <contour>
        <pt x="321" y="0" on="1"/>
        <pt x="118" y="0" on="1"/>
        <pt x="118" y="160" on="1"/>
        <pt x="321" y="160" on="1"/>
      </contour>
      <contour>
        <pt x="321" y="782" on="1"/>
        <pt x="118" y="782" on="1"/>
        <pt x="118" y="942" on="1"/>
        <pt x="321" y="942" on="1"/>
      </contour>
    </TTGlyph>
    <TTGlyph name="comma" xMin="38" yMin="-172" xMax="329" yMax="160">
      <contour>
        <pt x="126" y="160" on="1"/>
        <pt x="329" y="160" on="1"/>
        <pt x="329" y="0" on="1"/>
        <pt x="329" y="-41" on="0"/>
        <pt x="299" y="-105" on="0"/>
        <pt x="247" y="-149" on="0"/>
        <pt x="177" y="-172" on="0"/>
        <pt x="137" y="-172" on="1"/>
        <pt x="38" y="-172" on="1"/>
        <pt x="38" y="-82" on="1"/>
        <pt x="67" y="-82" on="0"/>
        <pt x="102" y="-79" on="0"/>
        <pt x="120" y="-63" on="0"/>
        <pt x="126" y="-30" on="0"/>
        <pt x="126" y="0" on="1"/>
      </contour>
    </TTGlyph>
    <TTGlyph name="copyright" xMin="105" yMin="-16" xMax="1535" yMax="1413">
      <contour>
        <pt x="105" y="698" on="1"/>
        <pt x="105" y="797" on="0"/>
        <pt x="156" y="980" on="0"/>
        <pt x="249" y="1139" on="0"/>
        <pt x="380" y="1269" on="0"/>
        <pt x="539" y="1362" on="0"/>
        <pt x="721" y="1413" on="0"/>
        <pt x="820" y="1413" on="1"/>
        <pt x="919" y="1413" on="0"/>
        <pt x="1101" y="1362" on="0"/>
        <pt x="1260" y="1269" on="0"/>
        <pt x="1391" y="1139" on="0"/>
        <pt x="1484" y="980" on="0"/>
        <pt x="1535" y="797" on="0"/>
        <pt x="1535" y="698" on="1"/>
        <pt x="1535" y="599" on="0"/>
        <pt x="1484" y="417" on="0"/>
        <pt x="1391" y="258" on="0"/>
        <pt x="1260" y="128" on="0"/>
        <pt x="1101" y="35" on="0"/>
        <pt x="919" y="-16" on="0"/>
        <pt x="820" y="-16" on="1"/>
        <pt x="721" y="-16" on="0"/>
        <pt x="539" y="35" on="0"/>
        <pt x="380" y="128" on="0"/>
        <pt x="249" y="258" on="0"/>
        <pt x="156" y="417" on="0"/>
        <pt x="105" y="599" on="0"/>
      </contour>
      <contour>
        <pt x="1400" y="698" on="1"/>
        <pt x="1400" y="821" on="0"/>
        <pt x="1311" y="1037" on="0"/>
        <pt x="1155" y="1197" on="0"/>
        <pt x="943" y="1290" on="0"/>
        <pt x="820" y="1290" on="1"/>
        <pt x="697" y="1290" on="0"/>
        <pt x="486" y="1197" on="0"/>
        <pt x="330" y="1037" on="0"/>
        <pt x="241" y="821" on="0"/>
        <pt x="241" y="698" on="1"/>
        <pt x="241" y="575" on="0"/>
        <pt x="330" y="360" on="0"/>
        <pt x="486" y="199" on="0"/>
        <pt x="697" y="106" on="0"/>
        <pt x="820" y="106" on="1"/>
        <pt x="943" y="106" on="0"/>
        <pt x="1155" y="199" on="0"/>
        <pt x="1311" y="360" on="0"/>
        <pt x="1400" y="575" on="0"/>
      </contour>
      <contour>
        <pt x="824" y="246" on="1"/>
        <pt x="729" y="246" on="0"/>
        <pt x="563" y="318" on="0"/>
        <pt x="440" y="441" on="0"/>
        <pt x="368" y="607" on="0"/>
        <pt x="368" y="700" on="1"/>
        <pt x="368" y="793" on="0"/>
        <pt x="440" y="958" on="0"/>
        <pt x="563" y="1081" on="0"/>
        <pt x="729" y="1153" on="0"/>
        <pt x="824" y="1153" on="1"/>
        <pt x="932" y="1153" on="0"/>
        <pt x="1114" y="1080" on="0"/>
        <pt x="1183" y="1014" on="1"/>
        <pt x="1148" y="969" on="1"/>
        <pt x="1094" y="1018" on="0"/>
        <pt x="952" y="1055" on="0"/>
        <pt x="867" y="1055" on="1"/>
        <pt x="790" y="1055" on="0"/>
        <pt x="661" y="1002" on="0"/>
        <pt x="568" y="908" on="0"/>
        <pt x="515" y="778" on="0"/>
        <pt x="515" y="700" on="1"/>
        <pt x="515" y="623" on="0"/>
        <pt x="568" y="493" on="0"/>
        <pt x="661" y="399" on="0"/>
        <pt x="790" y="346" on="0"/>
        <pt x="867" y="346" on="1"/>
        <pt x="905" y="346" on="0"/>
        <pt x="978" y="352" on="0"/>
        <pt x="1046" y="367" on="0"/>
        <pt x="1107" y="394" on="0"/>
        <pt x="1134" y="416" on="1"/>
        <pt x="1166" y="371" on="1"/>
        <pt x="1100" y="314" on="0"/>
        <pt x="924" y="246" on="0"/>
      </contour>
    </TTGlyph>
    <TTGlyph name="currency" xMin="155" yMin="174" xMax="1183" yMax="1206">
      <contour>
        <pt x="268" y="381" on="1"/>
        <pt x="217" y="444" on="0"/>
        <pt x="161" y="602" on="0"/>
        <pt x="161" y="690" on="1"/>
        <pt x="161" y="781" on="0"/>
        <pt x="217" y="938" on="0"/>
        <pt x="268" y="1001" on="1"/>
        <pt x="155" y="1114" on="1"/>
        <pt x="247" y="1206" on="1"/>
        <pt x="362" y="1092" on="1"/>
        <pt x="428" y="1143" on="0"/>
        <pt x="582" y="1198" on="0"/>
        <pt x="669" y="1198" on="1"/>
        <pt x="757" y="1198" on="0"/>
        <pt x="914" y="1143" on="0"/>
        <pt x="977" y="1092" on="1"/>
        <pt x="1091" y="1206" on="1"/>
        <pt x="1183" y="1114" on="1"/>
        <pt x="1069" y="999" on="1"/>
        <pt x="1121" y="936" on="0"/>
        <pt x="1177" y="778" on="0"/>
        <pt x="1177" y="690" on="1"/>
        <pt x="1177" y="602" on="0"/>
        <pt x="1122" y="444" on="0"/>
        <pt x="1071" y="381" on="1"/>
        <pt x="1183" y="266" on="1"/>
        <pt x="1091" y="174" on="1"/>
        <pt x="977" y="289" on="1"/>
        <pt x="914" y="238" on="0"/>
        <pt x="757" y="182" on="0"/>
        <pt x="669" y="182" on="1"/>
        <pt x="582" y="182" on="0"/>
        <pt x="428" y="238" on="0"/>
        <pt x="362" y="289" on="1"/>
        <pt x="247" y="174" on="1"/>
        <pt x="155" y="266" on="1"/>
      </contour>
      <contour>
        <pt x="297" y="690" on="1"/>
        <pt x="297" y="612" on="0"/>
        <pt x="355" y="476" on="0"/>
        <pt x="456" y="375" on="0"/>
        <pt x="591" y="317" on="0"/>
        <pt x="669" y="317" on="1"/>
        <pt x="747" y="317" on="0"/>
        <pt x="883" y="375" on="0"/>
        <pt x="984" y="476" on="0"/>
        <pt x="1042" y="612" on="0"/>
        <pt x="1042" y="690" on="1"/>
        <pt x="1042" y="768" on="0"/>
        <pt x="984" y="904" on="0"/>
        <pt x="883" y="1005" on="0"/>
        <pt x="747" y="1063" on="0"/>
        <pt x="669" y="1063" on="1"/>
        <pt x="591" y="1063" on="0"/>
        <pt x="456" y="1005" on="0"/>
        <pt x="355" y="904" on="0"/>
        <pt x="297" y="768" on="0"/>
      </contour>
    </TTGlyph>
    <TTGlyph name="d" xMin="75" yMin="0" xMax="1005" yMax="1487">
      <contour>
        <pt x="673" y="0" on="1"/>
        <pt x="554" y="0" on="0"/>
        <pt x="373" y="38" on="0"/>
        <pt x="240" y="107" on="0"/>
        <pt x="151" y="201" on="0"/>
        <pt x="97" y="314" on="0"/>
        <pt x="75" y="440" on="0"/>
        <pt x="75" y="506" on="1"/>
        <pt x="75" y="604" on="0"/>
        <pt x="134" y="771" on="0"/>
        <pt x="255" y="892" on="0"/>
        <pt x="440" y="961" on="0"/>
        <pt x="567" y="961" on="1"/>
        <pt x="617" y="961" on="0"/>
        <pt x="744" y="927" on="0"/>
        <pt x="802" y="893" on="1"/>
        <pt x="802" y="1487" on="1"/>
        <pt x="1005" y="1487" on="1"/>
        <pt x="1005" y="0" on="1"/>
      </contour>
      <contour>
        <pt x="278" y="508" on="1"/>
        <pt x="278" y="474" on="0"/>
        <pt x="287" y="385" on="0"/>
        <pt x="315" y="290" on="0"/>
        <pt x="368" y="199" on="0"/>
        <pt x="455" y="126" on="0"/>
        <pt x="584" y="82" on="0"/>
        <pt x="673" y="82" on="1"/>
        <pt x="802" y="82" on="1"/>
        <pt x="802" y="819" on="1"/>
        <pt x="754" y="848" on="0"/>
        <pt x="650" y="877" on="0"/>
        <pt x="587" y="877" on="1"/>
        <pt x="513" y="877" on="0"/>
        <pt x="398" y="816" on="0"/>
        <pt x="319" y="714" on="0"/>
        <pt x="278" y="581" on="0"/>
      </contour>
    </TTGlyph>
    <TTGlyph name="degree" xMin="75" yMin="889" xMax="669" yMax="1483">
      <contour>
        <pt x="183" y="1186" on="1"/>
        <pt x="183" y="1147" on="0"/>
        <pt x="213" y="1078" on="0"/>
        <pt x="264" y="1027" on="0"/>
        <pt x="333" y="997" on="0"/>
        <pt x="372" y="997" on="1"/>
        <pt x="411" y="997" on="0"/>
        <pt x="479" y="1027" on="0"/>
        <pt x="530" y="1078" on="0"/>
        <pt x="560" y="1147" on="0"/>
        <pt x="560" y="1186" on="1"/>
        <pt x="560" y="1225" on="0"/>
        <pt x="530" y="1293" on="0"/>
        <pt x="479" y="1344" on="0"/>
        <pt x="411" y="1374" on="0"/>
        <pt x="372" y="1374" on="1"/>
        <pt x="333" y="1374" on="0"/>
        <pt x="264" y="1344" on="0"/>
        <pt x="213" y="1293" on="0"/>
        <pt x="183" y="1225" on="0"/>
      </contour>
      <contour>
        <pt x="75" y="1186" on="1"/>
        <pt x="75" y="1247" on="0"/>
        <pt x="122" y="1356" on="0"/>
        <pt x="202" y="1436" on="0"/>
        <pt x="310" y="1483" on="0"/>
        <pt x="372" y="1483" on="1"/>
        <pt x="433" y="1483" on="0"/>
        <pt x="541" y="1436" on="0"/>
        <pt x="622" y="1356" on="0"/>
        <pt x="669" y="1247" on="0"/>
        <pt x="669" y="1186" on="1"/>
        <pt x="669" y="1124" on="0"/>
        <pt x="622" y="1016" on="0"/>
        <pt x="541" y="936" on="0"/>
        <pt x="433" y="889" on="0"/>
        <pt x="372" y="889" on="1"/>
        <pt x="310" y="889" on="0"/>
        <pt x="202" y="936" on="0"/>
        <pt x="122" y="1016" on="0"/>
        <pt x="75" y="1124" on="0"/>
      </contour>
    </TTGlyph>
    <TTGlyph name="dieresis" xMin="45" yMin="1085" xMax="567" yMax="1224">
      <contour>
        <pt x="236" y="1085" on="1"/>
        <pt x="45" y="1085" on="1"/>
        <pt x="45" y="1224" on="1"/>
        <pt x="236" y="1224" on="1"/>
      </contour>
      <contour>
        <pt x="567" y="1085" on="1"/>
        <pt x="377" y="1085" on="1"/>
        <pt x="377" y="1224" on="1"/>
        <pt x="567" y="1224" on="1"/>
      </contour>
    </TTGlyph>
    <TTGlyph name="divide" xMin="80" yMin="94" xMax="1117" yMax="1053">
      <contour>
        <pt x="700" y="94" on="1"/>
        <pt x="497" y="94" on="1"/>
        <pt x="497" y="254" on="1"/>
        <pt x="700" y="254" on="1"/>
      </contour>
      <contour>
        <pt x="700" y="893" on="1"/>
        <pt x="497" y="893" on="1"/>
        <pt x="497" y="1053" on="1"/>
        <pt x="700" y="1053" on="1"/>
      </contour>
      <contour>
        <pt x="80" y="504" on="1"/>
        <pt x="80" y="643" on="1"/>
        <pt x="1117" y="643" on="1"/>
        <pt x="1117" y="504" on="1"/>
      </contour>
    </TTGlyph>
    <TTGlyph name="dollar" xMin="99" yMin="-164" xMax="972" yMax="1524">
      <contour>
        <pt x="466" y="1524" on="1"/>
        <pt x="585" y="1524" on="1"/>
        <pt x="585" y="1372" on="1"/>
        <pt x="633" y="1369" on="0"/>
        <pt x="710" y="1355" on="0"/>
        <pt x="784" y="1335" on="0"/>
        <pt x="859" y="1310" on="0"/>
        <pt x="904" y="1296" on="1"/>
        <pt x="900" y="1192" on="1"/>
        <pt x="862" y="1205" on="0"/>
        <pt x="784" y="1229" on="0"/>
        <pt x="699" y="1247" on="0"/>
        <pt x="603" y="1257" on="0"/>
        <pt x="548" y="1257" on="1"/>
        <pt x="523" y="1257" on="0"/>
        <pt x="457" y="1241" on="0"/>
        <pt x="397" y="1204" on="0"/>
        <pt x="355" y="1142" on="0"/>
        <pt x="355" y="1096" on="1"/>
        <pt x="355" y="1079" on="0"/>
        <pt x="362" y="1039" on="0"/>
        <pt x="387" y="992" on="0"/>
        <pt x="434" y="937" on="0"/>
        <pt x="474" y="905" on="1"/>
        <pt x="677" y="739" on="1"/>
        <pt x="739" y="691" on="0"/>
        <pt x="847" y="587" on="0"/>
        <pt x="926" y="480" on="0"/>
        <pt x="972" y="373" on="0"/>
        <pt x="972" y="322" on="1"/>
        <pt x="972" y="238" on="0"/>
        <pt x="906" y="111" on="0"/>
        <pt x="797" y="22" on="0"/>
        <pt x="658" y="-27" on="0"/>
        <pt x="585" y="-33" on="1"/>
        <pt x="585" y="-164" on="1"/>
        <pt x="466" y="-164" on="1"/>
        <pt x="466" y="-33" on="1"/>
        <pt x="357" y="-25" on="0"/>
        <pt x="181" y="32" on="0"/>
        <pt x="99" y="80" on="1"/>
        <pt x="112" y="188" on="1"/>
        <pt x="151" y="170" on="0"/>
        <pt x="233" y="133" on="0"/>
        <pt x="318" y="104" on="0"/>
        <pt x="406" y="86" on="0"/>
        <pt x="450" y="86" on="1"/>
        <pt x="597" y="86" on="0"/>
        <pt x="747" y="207" on="0"/>
        <pt x="747" y="322" on="1"/>
        <pt x="746" y="393" on="0"/>
        <pt x="652" y="523" on="0"/>
        <pt x="566" y="588" on="1"/>
        <pt x="341" y="758" on="1"/>
        <pt x="266" y="820" on="0"/>
        <pt x="182" y="923" on="0"/>
        <pt x="141" y="1007" on="0"/>
        <pt x="132" y="1072" on="0"/>
        <pt x="132" y="1096" on="1"/>
        <pt x="132" y="1170" on="0"/>
        <pt x="188" y="1271" on="0"/>
        <pt x="281" y="1336" on="0"/>
        <pt x="401" y="1368" on="0"/>
        <pt x="466" y="1372" on="1"/>
      </contour>
    </TTGlyph>
    <TTGlyph name="dotlessi" xMin="134" yMin="0" xMax="337" yMax="942">
      <contour>
        <pt x="337" y="0" on="1"/>
        <pt x="134" y="0" on="1"/>
        <pt x="134" y="942" on="1"/>
        <pt x="337" y="942" on="1"/>
      </contour>
    </TTGlyph>
    <TTGlyph name="e" xMin="75" yMin="0" xMax="890" yMax="961">
      <contour>
        <pt x="519" y="961" on="1"/>
        <pt x="621" y="961" on="0"/>
        <pt x="762" y="886" on="0"/>
        <pt x="851" y="758" on="0"/>
        <pt x="890" y="591" on="0"/>
        <pt x="890" y="498" on="1"/>
        <pt x="890" y="451" on="1"/>
        <pt x="274" y="451" on="1"/>
        <pt x="274" y="395" on="0"/>
        <pt x="310" y="265" on="0"/>
        <pt x="391" y="155" on="0"/>
        <pt x="520" y="82" on="0"/>
        <pt x="614" y="82" on="1"/>
        <pt x="822" y="82" on="1"/>
        <pt x="822" y="0" on="1"/>
        <pt x="611" y="0" on="1"/>
        <pt x="471" y="0" on="0"/>
        <pt x="268" y="64" on="0"/>
        <pt x="137" y="186" on="0"/>
        <pt x="75" y="362" on="0"/>
        <pt x="75" y="475" on="1"/>
        <pt x="75" y="569" on="0"/>
        <pt x="134" y="745" on="0"/>
        <pt x="247" y="880" on="0"/>
        <pt x="412" y="961" on="0"/>
      </contour>
      <contour>
        <pt x="509" y="870" on="1"/>
        <pt x="447" y="870" on="0"/>
        <pt x="359" y="814" on="0"/>
        <pt x="302" y="721" on="0"/>
        <pt x="275" y="598" on="0"/>
        <pt x="274" y="532" on="1"/>
        <pt x="697" y="532" on="1"/>
        <pt x="697" y="575" on="1"/>
        <pt x="695" y="633" on="0"/>
        <pt x="678" y="739" on="0"/>
        <pt x="636" y="821" on="0"/>
        <pt x="565" y="870" on="0"/>
      </contour>
    </TTGlyph>
    <TTGlyph name="eacute" xMin="75" yMin="0" xMax="890" yMax="1378">
      <component glyphName="e" x="0" y="0" flags="0x4"/>
      <component glyphName="acute" x="323" y="61" flags="0x4"/>
    </TTGlyph>
    <TTGlyph name="ecircumflex" xMin="75" yMin="0" xMax="890" yMax="1378">
      <component glyphName="e" x="0" y="0" flags="0x4"/>
      <component glyphName="circumflex" x="306" y="61" flags="0x4"/>
    </TTGlyph>
    <TTGlyph name="edieresis" xMin="75" yMin="0" xMax="890" yMax="1304">
      <component glyphName="e" x="0" y="0" flags="0x4"/>
      <component glyphName="dieresis" x="202" y="80" flags="0x4"/>
    </TTGlyph>
    <TTGlyph name="egrave" xMin="75" yMin="0" xMax="890" yMax="1378">
      <component glyphName="e" x="0" y="0" flags="0x4"/>
      <component glyphName="grave" x="202" y="61" flags="0x4"/>
    </TTGlyph>
    <TTGlyph name="eight" xMin="124" yMin="-29" xMax="1036" yMax="1378">
      <contour>
        <pt x="394" y="735" on="1"/>
        <pt x="350" y="760" on="0"/>
        <pt x="271" y="824" on="0"/>
        <pt x="211" y="905" on="0"/>
        <pt x="175" y="1005" on="0"/>
        <pt x="175" y="1065" on="1"/>
        <pt x="175" y="1129" on="0"/>
        <pt x="239" y="1242" on="0"/>
        <pt x="354" y="1328" on="0"/>
        <pt x="512" y="1378" on="0"/>
        <pt x="607" y="1378" on="1"/>
        <pt x="680" y="1378" on="0"/>
        <pt x="808" y="1337" on="0"/>
        <pt x="903" y="1259" on="0"/>
        <pt x="958" y="1147" on="0"/>
        <pt x="958" y="1077" on="1"/>
        <pt x="958" y="1031" on="0"/>
        <pt x="924" y="951" on="0"/>
        <pt x="863" y="878" on="0"/>
        <pt x="779" y="809" on="0"/>
        <pt x="728" y="774" on="1"/>
        <pt x="812" y="719" on="1"/>
        <pt x="865" y="684" on="0"/>
        <pt x="949" y="613" on="0"/>
        <pt x="1006" y="530" on="0"/>
        <pt x="1036" y="431" on="0"/>
        <pt x="1036" y="369" on="1"/>
        <pt x="1036" y="277" on="0"/>
        <pt x="958" y="129" on="0"/>
        <pt x="824" y="26" on="0"/>
        <pt x="647" y="-29" on="0"/>
        <pt x="548" y="-29" on="1"/>
        <pt x="462" y="-29" on="0"/>
        <pt x="308" y="20" on="0"/>
        <pt x="192" y="117" on="0"/>
        <pt x="124" y="259" on="0"/>
        <pt x="124" y="352" on="1"/>
        <pt x="124" y="412" on="0"/>
        <pt x="169" y="519" on="0"/>
        <pt x="244" y="614" on="0"/>
        <pt x="341" y="698" on="0"/>
      </contour>
      <contour>
        <pt x="485" y="688" on="1"/>
        <pt x="446" y="661" on="0"/>
        <pt x="357" y="594" on="0"/>
        <pt x="282" y="511" on="0"/>
        <pt x="233" y="409" on="0"/>
        <pt x="233" y="348" on="1"/>
        <pt x="233" y="280" on="0"/>
        <pt x="283" y="174" on="0"/>
        <pt x="368" y="100" on="0"/>
        <pt x="481" y="61" on="0"/>
        <pt x="544" y="61" on="1"/>
        <pt x="598" y="61" on="0"/>
        <pt x="702" y="92" on="0"/>
        <pt x="784" y="157" on="0"/>
        <pt x="835" y="259" on="0"/>
        <pt x="835" y="330" on="1"/>
        <pt x="835" y="416" on="0"/>
        <pt x="723" y="550" on="0"/>
        <pt x="620" y="610" on="1"/>
      </contour>
      <contour>
        <pt x="638" y="821" on="1"/>
        <pt x="667" y="837" on="0"/>
        <pt x="741" y="885" on="0"/>
        <pt x="806" y="949" on="0"/>
        <pt x="851" y="1029" on="0"/>
        <pt x="851" y="1077" on="1"/>
        <pt x="851" y="1119" on="0"/>
        <pt x="818" y="1194" on="0"/>
        <pt x="755" y="1252" on="0"/>
        <pt x="665" y="1286" on="0"/>
        <pt x="607" y="1286" on="1"/>
        <pt x="566" y="1286" on="0"/>
        <pt x="483" y="1268" on="0"/>
        <pt x="417" y="1222" on="0"/>
        <pt x="376" y="1144" on="0"/>
        <pt x="376" y="1085" on="1"/>
        <pt x="376" y="1032" on="0"/>
        <pt x="433" y="951" on="0"/>
        <pt x="515" y="888" on="0"/>
        <pt x="605" y="840" on="0"/>
      </contour>
    </TTGlyph>
    <TTGlyph name="emdash" xMin="117" yMin="504" xMax="1485" yMax="643">
      <contour>
        <pt x="117" y="504" on="1"/>
        <pt x="117" y="643" on="1"/>
        <pt x="1485" y="643" on="1"/>
        <pt x="1485" y="504" on="1"/>
      </contour>
    </TTGlyph>
    <TTGlyph name="endash" xMin="117" yMin="504" xMax="1213" yMax="643">
      <contour>
        <pt x="117" y="504" on="1"/>
        <pt x="117" y="643" on="1"/>
        <pt x="1213" y="643" on="1"/>
        <pt x="1213" y="504" on="1"/>
      </contour>
    </TTGlyph>
    <TTGlyph name="equal" xMin="80" yMin="331" xMax="1117" yMax="811">
      <contour>
        <pt x="80" y="672" on="1"/>
        <pt x="80" y="811" on="1"/>
        <pt x="1117" y="811" on="1"/>
        <pt x="1117" y="672" on="1"/>
      </contour>
      <contour>
        <pt x="80" y="331" on="1"/>
        <pt x="80" y="470" on="1"/>
        <pt x="1117" y="470" on="1"/>
        <pt x="1117" y="331" on="1"/>
      </contour>
    </TTGlyph>
    <TTGlyph name="eth" xMin="69" yMin="-20" xMax="1048" yMax="1487">
      <contour>
        <pt x="784" y="1264" on="1"/>
        <pt x="872" y="1180" on="0"/>
        <pt x="976" y="987" on="0"/>
        <pt x="1031" y="791" on="0"/>
        <pt x="1048" y="607" on="0"/>
        <pt x="1048" y="532" on="1"/>
        <pt x="1048" y="399" on="0"/>
        <pt x="972" y="194" on="0"/>
        <pt x="839" y="53" on="0"/>
        <pt x="659" y="-20" on="0"/>
        <pt x="556" y="-20" on="1"/>
        <pt x="455" y="-20" on="0"/>
        <pt x="278" y="57" on="0"/>
        <pt x="146" y="190" on="0"/>
        <pt x="69" y="369" on="0"/>
        <pt x="69" y="471" on="1"/>
        <pt x="69" y="572" on="0"/>
        <pt x="146" y="751" on="0"/>
        <pt x="278" y="884" on="0"/>
        <pt x="455" y="961" on="0"/>
        <pt x="556" y="961" on="1"/>
        <pt x="628" y="961" on="0"/>
        <pt x="753" y="925" on="0"/>
        <pt x="808" y="891" on="1"/>
        <pt x="812" y="891" on="1"/>
        <pt x="799" y="945" on="0"/>
        <pt x="773" y="1032" on="0"/>
        <pt x="739" y="1107" on="0"/>
        <pt x="691" y="1174" on="0"/>
        <pt x="657" y="1209" on="1"/>
        <pt x="339" y="1071" on="1"/>
        <pt x="300" y="1161" on="1"/>
        <pt x="573" y="1279" on="1"/>
        <pt x="524" y="1313" on="0"/>
        <pt x="400" y="1372" on="0"/>
        <pt x="321" y="1395" on="1"/>
        <pt x="321" y="1487" on="1"/>
        <pt x="421" y="1473" on="0"/>
        <pt x="615" y="1391" on="0"/>
        <pt x="697" y="1333" on="1"/>
        <pt x="972" y="1452" on="1"/>
        <pt x="1011" y="1362" on="1"/>
      </contour>
      <contour>
        <pt x="554" y="870" on="1"/>
        <pt x="476" y="870" on="0"/>
        <pt x="369" y="810" on="0"/>
        <pt x="303" y="702" on="0"/>
        <pt x="274" y="554" on="0"/>
        <pt x="274" y="467" on="1"/>
        <pt x="274" y="381" on="0"/>
        <pt x="304" y="235" on="0"/>
        <pt x="370" y="128" on="0"/>
        <pt x="477" y="68" on="0"/>
        <pt x="554" y="68" on="1"/>
        <pt x="631" y="68" on="0"/>
        <pt x="739" y="128" on="0"/>
        <pt x="808" y="235" on="0"/>
        <pt x="839" y="381" on="0"/>
        <pt x="839" y="467" on="1"/>
        <pt x="839" y="554" on="0"/>
        <pt x="808" y="702" on="0"/>
        <pt x="739" y="810" on="0"/>
        <pt x="631" y="870" on="0"/>
      </contour>
    </TTGlyph>
    <TTGlyph name="exclam" xMin="127" yMin="0" xMax="390" yMax="1487">
      <contour>
        <pt x="360" y="0" on="1"/>
        <pt x="157" y="0" on="1"/>
        <pt x="157" y="160" on="1"/>
        <pt x="360" y="160" on="1"/>
      </contour>
      <contour>
        <pt x="127" y="1487" on="1"/>
        <pt x="390" y="1487" on="1"/>
        <pt x="310" y="274" on="1"/>
        <pt x="209" y="274" on="1"/>
      </contour>
    </TTGlyph>
    <TTGlyph name="exclamdown" xMin="98" yMin="-530" xMax="362" yMax="956">
      <contour>
        <pt x="331" y="797" on="1"/>
        <pt x="128" y="797" on="1"/>
        <pt x="128" y="956" on="1"/>
        <pt x="331" y="956" on="1"/>
      </contour>
      <contour>
        <pt x="180" y="682" on="1"/>
        <pt x="280" y="682" on="1"/>
        <pt x="362" y="-530" on="1"/>
        <pt x="98" y="-530" on="1"/>
      </contour>
    </TTGlyph>
    <TTGlyph name="f" xMin="37" yMin="-420" xMax="529" yMax="1487">
      <contour>
        <pt x="484" y="852" on="1"/>
        <pt x="359" y="852" on="1"/>
        <pt x="359" y="-365" on="1"/>
        <pt x="166" y="-420" on="1"/>
        <pt x="166" y="852" on="1"/>
        <pt x="37" y="852" on="1"/>
        <pt x="37" y="942" on="1"/>
        <pt x="166" y="942" on="1"/>
        <pt x="166" y="1315" on="1"/>
        <pt x="169" y="1357" on="0"/>
        <pt x="200" y="1421" on="0"/>
        <pt x="251" y="1465" on="0"/>
        <pt x="319" y="1487" on="0"/>
        <pt x="359" y="1487" on="1"/>
        <pt x="529" y="1487" on="1"/>
        <pt x="529" y="1397" on="1"/>
        <pt x="472" y="1397" on="0"/>
        <pt x="405" y="1393" on="0"/>
        <pt x="369" y="1375" on="0"/>
        <pt x="359" y="1341" on="0"/>
        <pt x="359" y="1311" on="1"/>
        <pt x="359" y="942" on="1"/>
        <pt x="484" y="942" on="1"/>
      </contour>
    </TTGlyph>
    <TTGlyph name="five" xMin="80" yMin="-29" xMax="955" yMax="1356">
      <contour>
        <pt x="867" y="1184" on="1"/>
        <pt x="424" y="1184" on="1"/>
        <pt x="309" y="913" on="1"/>
        <pt x="324" y="921" on="0"/>
        <pt x="372" y="931" on="0"/>
        <pt x="425" y="937" on="0"/>
        <pt x="476" y="940" on="0"/>
        <pt x="494" y="940" on="1"/>
        <pt x="612" y="940" on="0"/>
        <pt x="786" y="874" on="0"/>
        <pt x="900" y="763" on="0"/>
        <pt x="955" y="618" on="0"/>
        <pt x="955" y="539" on="1"/>
        <pt x="955" y="387" on="0"/>
        <pt x="844" y="172" on="0"/>
        <pt x="656" y="35" on="0"/>
        <pt x="407" y="-29" on="0"/>
        <pt x="269" y="-29" on="1"/>
        <pt x="224" y="-29" on="0"/>
        <pt x="128" y="-21" on="0"/>
        <pt x="80" y="-8" on="1"/>
        <pt x="80" y="88" on="1"/>
        <pt x="98" y="83" on="0"/>
        <pt x="146" y="76" on="0"/>
        <pt x="194" y="71" on="0"/>
        <pt x="236" y="68" on="0"/>
        <pt x="248" y="68" on="1"/>
        <pt x="369" y="68" on="0"/>
        <pt x="554" y="139" on="0"/>
        <pt x="677" y="257" on="0"/>
        <pt x="740" y="412" on="0"/>
        <pt x="740" y="496" on="1"/>
        <pt x="740" y="583" on="0"/>
        <pt x="693" y="712" on="0"/>
        <pt x="609" y="797" on="0"/>
        <pt x="492" y="840" on="0"/>
        <pt x="422" y="840" on="1"/>
        <pt x="365" y="840" on="0"/>
        <pt x="278" y="824" on="0"/>
        <pt x="209" y="800" on="0"/>
        <pt x="151" y="769" on="0"/>
        <pt x="123" y="754" on="1"/>
        <pt x="393" y="1356" on="1"/>
        <pt x="930" y="1356" on="1"/>
      </contour>
    </TTGlyph>
    <TTGlyph name="foundryicon" xMin="104" yMin="283" xMax="2062" yMax="647">
      <contour>
        <pt x="2062" y="514" on="1"/>
        <pt x="2030" y="514" on="1"/>
        <pt x="2032" y="510" on="0"/>
        <pt x="2032" y="504" on="1"/>
        <pt x="2032" y="475" on="0"/>
        <pt x="1987" y="432" on="0"/>
        <pt x="1939" y="432" on="1"/>
        <pt x="1921" y="432" on="0"/>
        <pt x="1915" y="434" on="1"/>
        <pt x="1915" y="403" on="1"/>
        <pt x="1952" y="403" on="1"/>
        <pt x="2032" y="403" on="0"/>
        <pt x="2032" y="330" on="1"/>
        <pt x="2032" y="313" on="0"/>
        <pt x="2023" y="291" on="0"/>
        <pt x="2019" y="283" on="1"/>
        <pt x="1964" y="283" on="1"/>
        <pt x="1964" y="342" on="1"/>
        <pt x="1870" y="342" on="1"/>
        <pt x="1860" y="350" on="0"/>
        <pt x="1849" y="375" on="0"/>
        <pt x="1849" y="387" on="1"/>
        <pt x="1849" y="424" on="0"/>
        <pt x="1878" y="449" on="1"/>
        <pt x="1849" y="465" on="0"/>
        <pt x="1849" y="506" on="1"/>
        <pt x="1849" y="539" on="0"/>
        <pt x="1896" y="582" on="0"/>
        <pt x="1937" y="582" on="1"/>
        <pt x="1974" y="582" on="0"/>
        <pt x="2001" y="561" on="1"/>
        <pt x="2017" y="582" on="0"/>
        <pt x="2040" y="582" on="1"/>
        <pt x="2048" y="582" on="0"/>
        <pt x="2056" y="580" on="0"/>
        <pt x="2062" y="578" on="1"/>
      </contour>
      <contour>
        <pt x="502" y="358" on="1"/>
        <pt x="489" y="313" on="0"/>
        <pt x="442" y="283" on="0"/>
        <pt x="414" y="283" on="1"/>
        <pt x="375" y="283" on="0"/>
        <pt x="360" y="297" on="1"/>
        <pt x="360" y="350" on="1"/>
        <pt x="395" y="350" on="1"/>
        <pt x="428" y="350" on="0"/>
        <pt x="438" y="373" on="1"/>
        <pt x="410" y="373" on="1"/>
        <pt x="360" y="514" on="1"/>
        <pt x="340" y="514" on="1"/>
        <pt x="340" y="578" on="1"/>
        <pt x="418" y="578" on="1"/>
        <pt x="446" y="477" on="1"/>
        <pt x="457" y="428" on="1"/>
        <pt x="479" y="514" on="1"/>
        <pt x="461" y="514" on="1"/>
        <pt x="461" y="578" on="1"/>
        <pt x="549" y="578" on="1"/>
        <pt x="549" y="514" on="1"/>
      </contour>
      <contour>
        <pt x="324" y="383" on="1"/>
        <pt x="287" y="367" on="0"/>
        <pt x="240" y="367" on="1"/>
        <pt x="176" y="367" on="0"/>
        <pt x="104" y="438" on="0"/>
        <pt x="104" y="502" on="1"/>
        <pt x="104" y="567" on="0"/>
        <pt x="174" y="647" on="0"/>
        <pt x="244" y="647" on="1"/>
        <pt x="262" y="647" on="0"/>
        <pt x="303" y="639" on="0"/>
        <pt x="324" y="633" on="1"/>
        <pt x="324" y="551" on="1"/>
        <pt x="260" y="551" on="1"/>
        <pt x="260" y="582" on="1"/>
        <pt x="254" y="584" on="0"/>
        <pt x="242" y="584" on="1"/>
        <pt x="213" y="584" on="0"/>
        <pt x="182" y="543" on="0"/>
        <pt x="182" y="510" on="1"/>
        <pt x="182" y="434" on="0"/>
        <pt x="258" y="434" on="1"/>
        <pt x="324" y="434" on="1"/>
      </contour>
      <contour>
        <pt x="1532" y="367" on="1"/>
        <pt x="1432" y="367" on="0"/>
        <pt x="1432" y="473" on="1"/>
        <pt x="1432" y="524" on="0"/>
        <pt x="1487" y="582" on="0"/>
        <pt x="1534" y="582" on="1"/>
        <pt x="1581" y="582" on="0"/>
        <pt x="1636" y="526" on="0"/>
        <pt x="1636" y="475" on="1"/>
        <pt x="1636" y="424" on="0"/>
        <pt x="1581" y="367" on="0"/>
      </contour>
      <contour>
        <pt x="991" y="567" on="1"/>
        <pt x="1010" y="573" on="0"/>
        <pt x="1044" y="582" on="0"/>
        <pt x="1065" y="582" on="1"/>
        <pt x="1159" y="582" on="0"/>
        <pt x="1159" y="504" on="1"/>
        <pt x="1159" y="434" on="1"/>
        <pt x="1182" y="434" on="1"/>
        <pt x="1182" y="379" on="1"/>
        <pt x="1165" y="369" on="0"/>
        <pt x="1141" y="369" on="1"/>
        <pt x="1108" y="369" on="0"/>
        <pt x="1096" y="383" on="1"/>
        <pt x="1077" y="367" on="0"/>
        <pt x="1044" y="367" on="1"/>
        <pt x="1016" y="367" on="0"/>
        <pt x="975" y="399" on="0"/>
        <pt x="975" y="430" on="1"/>
        <pt x="975" y="459" on="0"/>
        <pt x="1012" y="492" on="0"/>
        <pt x="1055" y="492" on="1"/>
        <pt x="1087" y="492" on="1"/>
        <pt x="1087" y="494" on="1"/>
        <pt x="1087" y="502" on="0"/>
        <pt x="1069" y="514" on="0"/>
        <pt x="1042" y="514" on="1"/>
        <pt x="991" y="514" on="1"/>
      </contour>
      <contour>
        <pt x="944" y="434" on="1"/>
        <pt x="944" y="381" on="1"/>
        <pt x="928" y="373" on="0"/>
        <pt x="887" y="367" on="0"/>
        <pt x="868" y="367" on="1"/>
        <pt x="815" y="367" on="0"/>
        <pt x="760" y="422" on="0"/>
        <pt x="760" y="471" on="1"/>
        <pt x="760" y="520" on="0"/>
        <pt x="809" y="582" on="0"/>
        <pt x="860" y="582" on="1"/>
        <pt x="901" y="582" on="0"/>
        <pt x="950" y="532" on="0"/>
        <pt x="950" y="496" on="1"/>
        <pt x="950" y="487" on="0"/>
        <pt x="948" y="469" on="0"/>
        <pt x="946" y="459" on="1"/>
        <pt x="834" y="459" on="1"/>
        <pt x="842" y="434" on="0"/>
        <pt x="885" y="434" on="1"/>
      </contour>
      <contour>
        <pt x="1661" y="514" on="1"/>
        <pt x="1661" y="578" on="1"/>
        <pt x="1731" y="578" on="1"/>
        <pt x="1751" y="545" on="1"/>
        <pt x="1755" y="555" on="0"/>
        <pt x="1765" y="565" on="0"/>
        <pt x="1772" y="571" on="1"/>
        <pt x="1786" y="582" on="0"/>
        <pt x="1802" y="582" on="1"/>
        <pt x="1815" y="582" on="0"/>
        <pt x="1827" y="578" on="1"/>
        <pt x="1827" y="514" on="1"/>
        <pt x="1757" y="514" on="1"/>
        <pt x="1757" y="434" on="1"/>
        <pt x="1792" y="434" on="1"/>
        <pt x="1792" y="373" on="1"/>
        <pt x="1665" y="373" on="1"/>
        <pt x="1665" y="434" on="1"/>
        <pt x="1683" y="434" on="1"/>
        <pt x="1683" y="514" on="1"/>
      </contour>
      <contour>
        <pt x="578" y="514" on="1"/>
        <pt x="578" y="578" on="1"/>
        <pt x="647" y="578" on="1"/>
        <pt x="668" y="545" on="1"/>
        <pt x="672" y="555" on="0"/>
        <pt x="682" y="565" on="0"/>
        <pt x="688" y="571" on="1"/>
        <pt x="702" y="582" on="0"/>
        <pt x="719" y="582" on="1"/>
        <pt x="731" y="582" on="0"/>
        <pt x="743" y="578" on="1"/>
        <pt x="743" y="514" on="1"/>
        <pt x="674" y="514" on="1"/>
        <pt x="674" y="434" on="1"/>
        <pt x="709" y="434" on="1"/>
        <pt x="709" y="373" on="1"/>
        <pt x="582" y="373" on="1"/>
        <pt x="582" y="434" on="1"/>
        <pt x="602" y="434" on="1"/>
        <pt x="602" y="514" on="1"/>
      </contour>
      <contour>
        <pt x="1206" y="584" on="1"/>
        <pt x="1182" y="584" on="1"/>
        <pt x="1182" y="647" on="1"/>
        <pt x="1278" y="647" on="1"/>
        <pt x="1278" y="434" on="1"/>
        <pt x="1307" y="434" on="1"/>
        <pt x="1307" y="377" on="1"/>
        <pt x="1288" y="369" on="0"/>
        <pt x="1262" y="369" on="1"/>
        <pt x="1206" y="369" on="0"/>
        <pt x="1206" y="426" on="1"/>
      </contour>
      <contour>
        <pt x="1333" y="408" on="1"/>
        <pt x="1333" y="424" on="0"/>
        <pt x="1354" y="449" on="0"/>
        <pt x="1374" y="449" on="1"/>
        <pt x="1397" y="449" on="0"/>
        <pt x="1419" y="424" on="0"/>
        <pt x="1419" y="408" on="1"/>
        <pt x="1419" y="391" on="0"/>
        <pt x="1397" y="369" on="0"/>
        <pt x="1374" y="369" on="1"/>
        <pt x="1354" y="369" on="0"/>
        <pt x="1333" y="391" on="0"/>
      </contour>
      <contour>
        <pt x="1534" y="422" on="1"/>
        <pt x="1563" y="422" on="0"/>
        <pt x="1563" y="475" on="1"/>
        <pt x="1563" y="524" on="0"/>
        <pt x="1534" y="524" on="1"/>
        <pt x="1505" y="524" on="0"/>
        <pt x="1505" y="475" on="1"/>
        <pt x="1505" y="422" on="0"/>
      </contour>
      <contour>
        <pt x="1917" y="506" on="1"/>
        <pt x="1917" y="475" on="0"/>
        <pt x="1942" y="475" on="1"/>
        <pt x="1962" y="475" on="0"/>
        <pt x="1962" y="506" on="1"/>
        <pt x="1962" y="537" on="0"/>
        <pt x="1942" y="537" on="1"/>
        <pt x="1917" y="537" on="0"/>
      </contour>
      <contour>
        <pt x="1065" y="418" on="1"/>
        <pt x="1079" y="418" on="0"/>
        <pt x="1087" y="424" on="1"/>
        <pt x="1087" y="455" on="1"/>
        <pt x="1071" y="455" on="1"/>
        <pt x="1044" y="455" on="0"/>
        <pt x="1044" y="436" on="1"/>
        <pt x="1044" y="418" on="0"/>
      </contour>
      <contour>
        <pt x="858" y="528" on="1"/>
        <pt x="838" y="528" on="0"/>
        <pt x="831" y="496" on="1"/>
        <pt x="883" y="496" on="1"/>
        <pt x="883" y="528" on="0"/>
      </contour>
    </TTGlyph>
    <TTGlyph name="four" xMin="32" yMin="0" xMax="1036" yMax="1356">
      <contour>
        <pt x="915" y="342" on="1"/>
        <pt x="1036" y="342" on="1"/>
        <pt x="1036" y="242" on="1"/>
        <pt x="915" y="242" on="1"/>
        <pt x="915" y="0" on="1"/>
        <pt x="696" y="0" on="1"/>
        <pt x="696" y="242" on="1"/>
        <pt x="32" y="242" on="1"/>
        <pt x="32" y="330" on="1"/>
        <pt x="770" y="1356" on="1"/>
        <pt x="915" y="1356" on="1"/>
      </contour>
      <contour>
        <pt x="696" y="342" on="1"/>
        <pt x="696" y="1077" on="1"/>
        <pt x="167" y="342" on="1"/>
      </contour>
    </TTGlyph>
    <TTGlyph name="foursuperior" xMin="43" yMin="473" xMax="750" yMax="1354">
      <contour>
        <pt x="664" y="696" on="1"/>
        <pt x="750" y="696" on="1"/>
        <pt x="750" y="608" on="1"/>
        <pt x="664" y="608" on="1"/>
        <pt x="664" y="473" on="1"/>
        <pt x="482" y="473" on="1"/>
        <pt x="482" y="608" on="1"/>
        <pt x="43" y="608" on="1"/>
        <pt x="43" y="666" on="1"/>
        <pt x="531" y="1354" on="1"/>
        <pt x="664" y="1354" on="1"/>
      </contour>
      <contour>
        <pt x="482" y="696" on="1"/>
        <pt x="482" y="1145" on="1"/>
        <pt x="170" y="696" on="1"/>
      </contour>
    </TTGlyph>
    <TTGlyph name="fraction" xMin="-61" yMin="-106" xMax="858" yMax="1439">
      <contour>
        <pt x="740" y="1439" on="1"/>
        <pt x="858" y="1439" on="1"/>
        <pt x="57" y="-106" on="1"/>
        <pt x="-61" y="-106" on="1"/>
      </contour>
    </TTGlyph>
    <TTGlyph name="g" xMin="75" yMin="-397" xMax="1005" yMax="961">
      <contour>
        <pt x="673" y="0" on="1"/>
        <pt x="554" y="0" on="0"/>
        <pt x="373" y="38" on="0"/>
        <pt x="240" y="107" on="0"/>
        <pt x="151" y="201" on="0"/>
        <pt x="97" y="314" on="0"/>
        <pt x="75" y="440" on="0"/>
        <pt x="75" y="506" on="1"/>
        <pt x="75" y="604" on="0"/>
        <pt x="134" y="771" on="0"/>
        <pt x="255" y="892" on="0"/>
        <pt x="440" y="961" on="0"/>
        <pt x="567" y="961" on="1"/>
        <pt x="617" y="961" on="0"/>
        <pt x="744" y="927" on="0"/>
        <pt x="802" y="893" on="1"/>
        <pt x="802" y="942" on="1"/>
        <pt x="1005" y="942" on="1"/>
        <pt x="1005" y="-199" on="1"/>
        <pt x="1005" y="-237" on="0"/>
        <pt x="966" y="-309" on="0"/>
        <pt x="880" y="-364" on="0"/>
        <pt x="745" y="-397" on="0"/>
        <pt x="649" y="-397" on="1"/>
        <pt x="582" y="-397" on="0"/>
        <pt x="480" y="-391" on="0"/>
        <pt x="392" y="-378" on="0"/>
        <pt x="306" y="-357" on="0"/>
        <pt x="255" y="-342" on="1"/>
        <pt x="282" y="-262" on="1"/>
        <pt x="349" y="-284" on="0"/>
        <pt x="484" y="-303" on="0"/>
        <pt x="567" y="-303" on="1"/>
        <pt x="690" y="-303" on="0"/>
        <pt x="802" y="-218" on="0"/>
        <pt x="802" y="-141" on="1"/>
        <pt x="802" y="0" on="1"/>
      </contour>
      <contour>
        <pt x="278" y="508" on="1"/>
        <pt x="278" y="474" on="0"/>
        <pt x="287" y="385" on="0"/>
        <pt x="315" y="290" on="0"/>
        <pt x="368" y="199" on="0"/>
        <pt x="455" y="126" on="0"/>
        <pt x="584" y="82" on="0"/>
        <pt x="673" y="82" on="1"/>
        <pt x="802" y="82" on="1"/>
        <pt x="802" y="819" on="1"/>
        <pt x="754" y="848" on="0"/>
        <pt x="650" y="877" on="0"/>
        <pt x="587" y="877" on="1"/>
        <pt x="513" y="877" on="0"/>
        <pt x="398" y="816" on="0"/>
        <pt x="319" y="714" on="0"/>
        <pt x="278" y="581" on="0"/>
      </contour>
    </TTGlyph>
    <TTGlyph name="germandbls" xMin="134" yMin="-420" xMax="896" yMax="1511">
      <contour>
        <pt x="323" y="-10" on="1"/>
        <pt x="323" y="-362" on="1"/>
        <pt x="134" y="-420" on="1"/>
        <pt x="134" y="1339" on="1"/>
        <pt x="140" y="1424" on="0"/>
        <pt x="235" y="1511" on="0"/>
        <pt x="316" y="1511" on="1"/>
        <pt x="493" y="1511" on="1"/>
        <pt x="493" y="1421" on="1"/>
        <pt x="436" y="1421" on="0"/>
        <pt x="369" y="1417" on="0"/>
        <pt x="333" y="1399" on="0"/>
        <pt x="323" y="1365" on="0"/>
        <pt x="323" y="1335" on="1"/>
        <pt x="323" y="942" on="1"/>
        <pt x="763" y="942" on="1"/>
        <pt x="803" y="942" on="0"/>
        <pt x="863" y="895" on="0"/>
        <pt x="863" y="846" on="1"/>
        <pt x="863" y="838" on="0"/>
        <pt x="853" y="805" on="0"/>
        <pt x="833" y="784" on="1"/>
        <pt x="822" y="773" on="0"/>
        <pt x="784" y="738" on="0"/>
        <pt x="741" y="699" on="0"/>
        <pt x="696" y="659" on="0"/>
        <pt x="660" y="628" on="0"/>
        <pt x="637" y="608" on="0"/>
        <pt x="638" y="608" on="1"/>
        <pt x="638" y="604" on="1"/>
        <pt x="642" y="604" on="1"/>
        <pt x="652" y="604" on="0"/>
        <pt x="698" y="597" on="0"/>
        <pt x="754" y="576" on="0"/>
        <pt x="814" y="538" on="0"/>
        <pt x="864" y="477" on="0"/>
        <pt x="896" y="389" on="0"/>
        <pt x="896" y="328" on="1"/>
        <pt x="896" y="254" on="0"/>
        <pt x="823" y="129" on="0"/>
        <pt x="701" y="39" on="0"/>
        <pt x="545" y="-12" on="0"/>
        <pt x="461" y="-12" on="1"/>
        <pt x="450" y="-12" on="1"/>
      </contour>
      <contour>
        <pt x="687" y="328" on="1"/>
        <pt x="687" y="366" on="0"/>
        <pt x="662" y="433" on="0"/>
        <pt x="615" y="483" on="0"/>
        <pt x="548" y="512" on="0"/>
        <pt x="507" y="512" on="1"/>
        <pt x="443" y="512" on="1"/>
        <pt x="443" y="565" on="1"/>
        <pt x="562" y="655" on="1"/>
        <pt x="622" y="700" on="0"/>
        <pt x="689" y="770" on="0"/>
        <pt x="689" y="799" on="1"/>
        <pt x="689" y="818" on="0"/>
        <pt x="663" y="840" on="0"/>
        <pt x="621" y="850" on="0"/>
        <pt x="567" y="852" on="0"/>
        <pt x="540" y="852" on="1"/>
        <pt x="323" y="852" on="1"/>
        <pt x="323" y="74" on="1"/>
        <pt x="415" y="74" on="1"/>
        <pt x="460" y="74" on="0"/>
        <pt x="557" y="102" on="0"/>
        <pt x="636" y="163" on="0"/>
        <pt x="687" y="259" on="0"/>
      </contour>
    </TTGlyph>
    <TTGlyph name="grave" xMin="70" yMin="1024" xMax="428" yMax="1317">
      <contour>
        <pt x="428" y="1024" on="1"/>
        <pt x="332" y="1024" on="1"/>
        <pt x="70" y="1317" on="1"/>
        <pt x="303" y="1317" on="1"/>
      </contour>
    </TTGlyph>
    <TTGlyph name="greater" xMin="122" yMin="92" xMax="935" yMax="1036">
      <contour>
        <pt x="935" y="512" on="1"/>
        <pt x="122" y="92" on="1"/>
        <pt x="122" y="227" on="1"/>
        <pt x="767" y="565" on="1"/>
        <pt x="122" y="901" on="1"/>
        <pt x="122" y="1036" on="1"/>
        <pt x="935" y="616" on="1"/>
      </contour>
    </TTGlyph>
    <TTGlyph name="guillemotleft" xMin="71" yMin="111" xMax="825" yMax="860">
      <contour>
        <pt x="354" y="860" on="1"/>
        <pt x="497" y="860" on="1"/>
        <pt x="214" y="485" on="1"/>
        <pt x="497" y="111" on="1"/>
        <pt x="354" y="111" on="1"/>
        <pt x="71" y="485" on="1"/>
      </contour>
      <contour>
        <pt x="681" y="860" on="1"/>
        <pt x="825" y="860" on="1"/>
        <pt x="542" y="485" on="1"/>
        <pt x="825" y="111" on="1"/>
        <pt x="681" y="111" on="1"/>
        <pt x="399" y="485" on="1"/>
      </contour>
    </TTGlyph>
    <TTGlyph name="guillemotright" xMin="84" yMin="111" xMax="838" yMax="860">
      <contour>
        <pt x="510" y="485" on="1"/>
        <pt x="227" y="111" on="1"/>
        <pt x="84" y="111" on="1"/>
        <pt x="367" y="485" on="1"/>
        <pt x="84" y="860" on="1"/>
        <pt x="227" y="860" on="1"/>
      </contour>
      <contour>
        <pt x="838" y="485" on="1"/>
        <pt x="555" y="111" on="1"/>
        <pt x="412" y="111" on="1"/>
        <pt x="694" y="485" on="1"/>
        <pt x="412" y="860" on="1"/>
        <pt x="555" y="860" on="1"/>
      </contour>
    </TTGlyph>
    <TTGlyph name="guilsinglleft" xMin="71" yMin="111" xMax="497" yMax="860">
      <contour>
        <pt x="354" y="860" on="1"/>
        <pt x="497" y="860" on="1"/>
        <pt x="214" y="485" on="1"/>
        <pt x="497" y="111" on="1"/>
        <pt x="354" y="111" on="1"/>
        <pt x="71" y="485" on="1"/>
      </contour>
    </TTGlyph>
    <TTGlyph name="guilsinglright" xMin="84" yMin="111" xMax="510" yMax="860">
      <contour>
        <pt x="227" y="111" on="1"/>
        <pt x="84" y="111" on="1"/>
        <pt x="367" y="485" on="1"/>
        <pt x="84" y="860" on="1"/>
        <pt x="227" y="860" on="1"/>
        <pt x="510" y="485" on="1"/>
      </contour>
    </TTGlyph>
    <TTGlyph name="h" xMin="134" yMin="0" xMax="914" yMax="1487">
      <contour>
        <pt x="336" y="864" on="1"/>
        <pt x="400" y="892" on="0"/>
        <pt x="508" y="929" on="0"/>
        <pt x="602" y="952" on="0"/>
        <pt x="683" y="961" on="0"/>
        <pt x="721" y="961" on="1"/>
        <pt x="815" y="961" on="0"/>
        <pt x="914" y="863" on="0"/>
        <pt x="914" y="754" on="1"/>
        <pt x="914" y="0" on="1"/>
        <pt x="711" y="0" on="1"/>
        <pt x="711" y="723" on="1"/>
        <pt x="711" y="745" on="0"/>
        <pt x="702" y="791" on="0"/>
        <pt x="679" y="827" on="0"/>
        <pt x="638" y="850" on="0"/>
        <pt x="607" y="850" on="1"/>
        <pt x="556" y="850" on="0"/>
        <pt x="421" y="825" on="0"/>
        <pt x="336" y="786" on="1"/>
        <pt x="336" y="0" on="1"/>
        <pt x="134" y="0" on="1"/>
        <pt x="134" y="1487" on="1"/>
        <pt x="336" y="1487" on="1"/>
      </contour>
    </TTGlyph>
    <TTGlyph name="hyphen" xMin="80" yMin="504" xMax="686" yMax="643">
      <contour>
        <pt x="80" y="504" on="1"/>
        <pt x="80" y="643" on="1"/>
        <pt x="686" y="643" on="1"/>
        <pt x="686" y="504" on="1"/>
      </contour>
    </TTGlyph>
    <TTGlyph name="i" xMin="134" yMin="0" xMax="337" yMax="1219">
      <contour>
        <pt x="337" y="0" on="1"/>
        <pt x="134" y="0" on="1"/>
        <pt x="134" y="942" on="1"/>
        <pt x="337" y="942" on="1"/>
      </contour>
      <contour>
        <pt x="337" y="1100" on="1"/>
        <pt x="134" y="1100" on="1"/>
        <pt x="134" y="1219" on="1"/>
        <pt x="337" y="1219" on="1"/>
      </contour>
    </TTGlyph>
    <TTGlyph name="iacute" xMin="134" yMin="0" xMax="512" yMax="1317">
      <component glyphName="dotlessi" x="0" y="0" flags="0x204"/>
      <component glyphName="acute" x="84" y="0" flags="0x4"/>
    </TTGlyph>
    <TTGlyph name="icircumflex" xMin="-64" yMin="0" xMax="534" yMax="1327">
      <component glyphName="dotlessi" x="0" y="0" flags="0x204"/>
      <component glyphName="circumflex" x="49" y="10" flags="0x4"/>
    </TTGlyph>
    <TTGlyph name="idieresis" xMin="-21" yMin="0" xMax="501" yMax="1304">
      <component glyphName="dotlessi" x="0" y="0" flags="0x204"/>
      <component glyphName="dieresis" x="-66" y="80" flags="0x4"/>
    </TTGlyph>
    <TTGlyph name="igrave" xMin="-32" yMin="0" xMax="337" yMax="1317">
      <component glyphName="dotlessi" x="0" y="0" flags="0x204"/>
      <component glyphName="grave" x="-102" y="0" flags="0x4"/>
    </TTGlyph>
    <TTGlyph name="j" xMin="-36" yMin="-389" xMax="337" yMax="1219">
      <contour>
        <pt x="337" y="-217" on="1"/>
        <pt x="334" y="-259" on="0"/>
        <pt x="303" y="-324" on="0"/>
        <pt x="252" y="-367" on="0"/>
        <pt x="185" y="-389" on="0"/>
        <pt x="145" y="-389" on="1"/>
        <pt x="-36" y="-389" on="1"/>
        <pt x="-36" y="-299" on="1"/>
        <pt x="21" y="-299" on="0"/>
        <pt x="88" y="-295" on="0"/>
        <pt x="124" y="-277" on="0"/>
        <pt x="134" y="-243" on="0"/>
        <pt x="134" y="-213" on="1"/>
        <pt x="134" y="942" on="1"/>
        <pt x="337" y="942" on="1"/>
      </contour>
      <contour>
        <pt x="337" y="1100" on="1"/>
        <pt x="134" y="1100" on="1"/>
        <pt x="134" y="1219" on="1"/>
        <pt x="337" y="1219" on="1"/>
      </contour>
    </TTGlyph>
    <TTGlyph name="k" xMin="134" yMin="0" xMax="970" yMax="1487">
      <contour>
        <pt x="337" y="1487" on="1"/>
        <pt x="337" y="614" on="1"/>
        <pt x="702" y="942" on="1"/>
        <pt x="839" y="942" on="1"/>
        <pt x="552" y="684" on="1"/>
        <pt x="970" y="0" on="1"/>
        <pt x="759" y="0" on="1"/>
        <pt x="421" y="567" on="1"/>
        <pt x="337" y="492" on="1"/>
        <pt x="337" y="0" on="1"/>
        <pt x="134" y="0" on="1"/>
        <pt x="134" y="1487" on="1"/>
      </contour>
    </TTGlyph>
    <TTGlyph name="l" xMin="134" yMin="0" xMax="337" yMax="1487">
      <contour>
        <pt x="134" y="1487" on="1"/>
        <pt x="337" y="1487" on="1"/>
        <pt x="337" y="0" on="1"/>
        <pt x="134" y="0" on="1"/>
      </contour>
    </TTGlyph>
    <TTGlyph name="less" xMin="70" yMin="92" xMax="883" yMax="1036">
      <contour>
        <pt x="70" y="616" on="1"/>
        <pt x="883" y="1036" on="1"/>
        <pt x="883" y="901" on="1"/>
        <pt x="238" y="565" on="1"/>
        <pt x="883" y="227" on="1"/>
        <pt x="883" y="92" on="1"/>
        <pt x="70" y="512" on="1"/>
      </contour>
    </TTGlyph>
    <TTGlyph name="logicalnot" xMin="80" yMin="314" xMax="1117" yMax="643">
      <contour>
        <pt x="1117" y="314" on="1"/>
        <pt x="964" y="314" on="1"/>
        <pt x="964" y="504" on="1"/>
        <pt x="80" y="504" on="1"/>
        <pt x="80" y="643" on="1"/>
        <pt x="1117" y="643" on="1"/>
      </contour>
    </TTGlyph>
    <TTGlyph name="m" xMin="134" yMin="0" xMax="1427" yMax="961">
      <contour>
        <pt x="337" y="864" on="1"/>
        <pt x="459" y="917" on="0"/>
        <pt x="629" y="961" on="0"/>
        <pt x="687" y="961" on="1"/>
        <pt x="729" y="961" on="0"/>
        <pt x="790" y="943" on="0"/>
        <pt x="832" y="915" on="0"/>
        <pt x="858" y="878" on="0"/>
        <pt x="864" y="860" on="1"/>
        <pt x="992" y="917" on="0"/>
        <pt x="1170" y="961" on="0"/>
        <pt x="1232" y="961" on="1"/>
        <pt x="1280" y="961" on="0"/>
        <pt x="1353" y="938" on="0"/>
        <pt x="1402" y="884" on="0"/>
        <pt x="1427" y="796" on="0"/>
        <pt x="1427" y="731" on="1"/>
        <pt x="1427" y="0" on="1"/>
        <pt x="1224" y="0" on="1"/>
        <pt x="1224" y="723" on="1"/>
        <pt x="1224" y="751" on="0"/>
        <pt x="1213" y="797" on="0"/>
        <pt x="1187" y="831" on="0"/>
        <pt x="1143" y="850" on="0"/>
        <pt x="1109" y="850" on="1"/>
        <pt x="1041" y="850" on="0"/>
        <pt x="932" y="815" on="0"/>
        <pt x="882" y="795" on="1"/>
        <pt x="882" y="0" on="1"/>
        <pt x="679" y="0" on="1"/>
        <pt x="679" y="733" on="1"/>
        <pt x="679" y="754" on="0"/>
        <pt x="671" y="795" on="0"/>
        <pt x="648" y="829" on="0"/>
        <pt x="607" y="850" on="0"/>
        <pt x="575" y="850" on="1"/>
        <pt x="546" y="850" on="0"/>
        <pt x="481" y="837" on="0"/>
        <pt x="417" y="817" on="0"/>
        <pt x="359" y="795" on="0"/>
        <pt x="337" y="786" on="1"/>
        <pt x="337" y="0" on="1"/>
        <pt x="134" y="0" on="1"/>
        <pt x="134" y="942" on="1"/>
        <pt x="337" y="942" on="1"/>
      </contour>
    </TTGlyph>
    <TTGlyph name="macron" xMin="0" yMin="1060" xMax="877" yMax="1199">
      <contour>
        <pt x="0" y="1060" on="1"/>
        <pt x="0" y="1199" on="1"/>
        <pt x="877" y="1199" on="1"/>
        <pt x="877" y="1060" on="1"/>
      </contour>
    </TTGlyph>
    <TTGlyph name="minus" xMin="80" yMin="504" xMax="1117" yMax="643">
      <contour>
        <pt x="80" y="504" on="1"/>
        <pt x="80" y="643" on="1"/>
        <pt x="1117" y="643" on="1"/>
        <pt x="1117" y="504" on="1"/>
      </contour>
    </TTGlyph>
    <TTGlyph name="mu" xMin="171" yMin="-420" xMax="933" yMax="942">
      <contour>
        <pt x="171" y="942" on="1"/>
        <pt x="366" y="942" on="1"/>
        <pt x="366" y="377" on="1"/>
        <pt x="366" y="341" on="0"/>
        <pt x="380" y="242" on="0"/>
        <pt x="424" y="150" on="0"/>
        <pt x="505" y="86" on="0"/>
        <pt x="571" y="86" on="1"/>
        <pt x="597" y="86" on="0"/>
        <pt x="680" y="100" on="0"/>
        <pt x="731" y="113" on="1"/>
        <pt x="731" y="942" on="1"/>
        <pt x="933" y="942" on="1"/>
        <pt x="933" y="0" on="1"/>
        <pt x="731" y="0" on="1"/>
        <pt x="731" y="39" on="1"/>
        <pt x="701" y="27" on="0"/>
        <pt x="639" y="6" on="0"/>
        <pt x="581" y="-11" on="0"/>
        <pt x="529" y="-20" on="0"/>
        <pt x="510" y="-20" on="1"/>
        <pt x="424" y="-20" on="0"/>
        <pt x="366" y="23" on="1"/>
        <pt x="366" y="-362" on="1"/>
        <pt x="171" y="-420" on="1"/>
      </contour>
    </TTGlyph>
    <TTGlyph name="multiply" xMin="183" yMin="199" xMax="1014" yMax="1030">
      <contour>
        <pt x="598" y="516" on="1"/>
        <pt x="281" y="199" on="1"/>
        <pt x="183" y="297" on="1"/>
        <pt x="500" y="614" on="1"/>
        <pt x="183" y="932" on="1"/>
        <pt x="281" y="1030" on="1"/>
        <pt x="598" y="713" on="1"/>
        <pt x="916" y="1030" on="1"/>
        <pt x="1014" y="932" on="1"/>
        <pt x="697" y="614" on="1"/>
        <pt x="1014" y="297" on="1"/>
        <pt x="916" y="199" on="1"/>
      </contour>
    </TTGlyph>
    <TTGlyph name="n" xMin="134" yMin="0" xMax="915" yMax="961">
      <contour>
        <pt x="337" y="864" on="1"/>
        <pt x="401" y="892" on="0"/>
        <pt x="509" y="929" on="0"/>
        <pt x="603" y="952" on="0"/>
        <pt x="684" y="961" on="0"/>
        <pt x="722" y="961" on="1"/>
        <pt x="816" y="961" on="0"/>
        <pt x="915" y="863" on="0"/>
        <pt x="915" y="754" on="1"/>
        <pt x="915" y="0" on="1"/>
        <pt x="712" y="0" on="1"/>
        <pt x="712" y="723" on="1"/>
        <pt x="712" y="745" on="0"/>
        <pt x="703" y="791" on="0"/>
        <pt x="679" y="827" on="0"/>
        <pt x="638" y="850" on="0"/>
        <pt x="607" y="850" on="1"/>
        <pt x="556" y="850" on="0"/>
        <pt x="422" y="825" on="0"/>
        <pt x="337" y="786" on="1"/>
        <pt x="337" y="0" on="1"/>
        <pt x="134" y="0" on="1"/>
        <pt x="134" y="942" on="1"/>
        <pt x="337" y="942" on="1"/>
      </contour>
    </TTGlyph>
    <TTGlyph name="nine" xMin="74" yMin="-29" xMax="1016" yMax="1376">
      <contour>
        <pt x="545" y="1286" on="1"/>
        <pt x="483" y="1286" on="0"/>
        <pt x="388" y="1222" on="0"/>
        <pt x="324" y="1125" on="0"/>
        <pt x="291" y="1011" on="0"/>
        <pt x="291" y="961" on="1"/>
        <pt x="291" y="856" on="0"/>
        <pt x="341" y="719" on="0"/>
        <pt x="417" y="637" on="0"/>
        <pt x="507" y="604" on="0"/>
        <pt x="547" y="604" on="1"/>
        <pt x="628" y="604" on="0"/>
        <pt x="753" y="670" on="0"/>
        <pt x="795" y="715" on="1"/>
        <pt x="795" y="864" on="1"/>
        <pt x="795" y="1076" on="0"/>
        <pt x="678" y="1286" on="0"/>
      </contour>
      <contour>
        <pt x="856" y="322" on="1"/>
        <pt x="813" y="264" on="0"/>
        <pt x="687" y="149" on="0"/>
        <pt x="532" y="52" on="0"/>
        <pt x="351" y="-17" on="0"/>
        <pt x="254" y="-29" on="1"/>
        <pt x="254" y="57" on="1"/>
        <pt x="341" y="77" on="0"/>
        <pt x="473" y="134" on="0"/>
        <pt x="573" y="205" on="0"/>
        <pt x="648" y="287" on="0"/>
        <pt x="678" y="332" on="1"/>
        <pt x="715" y="388" on="0"/>
        <pt x="768" y="519" on="0"/>
        <pt x="782" y="612" on="1"/>
        <pt x="745" y="581" on="0"/>
        <pt x="667" y="540" on="0"/>
        <pt x="591" y="516" on="0"/>
        <pt x="518" y="506" on="0"/>
        <pt x="487" y="506" on="1"/>
        <pt x="413" y="506" on="0"/>
        <pt x="294" y="541" on="0"/>
        <pt x="202" y="602" on="0"/>
        <pt x="136" y="683" on="0"/>
        <pt x="94" y="775" on="0"/>
        <pt x="74" y="874" on="0"/>
        <pt x="74" y="922" on="1"/>
        <pt x="74" y="980" on="0"/>
        <pt x="98" y="1078" on="0"/>
        <pt x="138" y="1159" on="0"/>
        <pt x="187" y="1222" on="0"/>
        <pt x="213" y="1245" on="1"/>
        <pt x="266" y="1302" on="0"/>
        <pt x="427" y="1376" on="0"/>
        <pt x="539" y="1376" on="1"/>
        <pt x="669" y="1376" on="0"/>
        <pt x="848" y="1291" on="0"/>
        <pt x="960" y="1143" on="0"/>
        <pt x="1013" y="944" on="0"/>
        <pt x="1016" y="831" on="1"/>
        <pt x="1016" y="764" on="0"/>
        <pt x="995" y="628" on="0"/>
        <pt x="955" y="496" on="0"/>
        <pt x="895" y="374" on="0"/>
      </contour>
    </TTGlyph>
    <TTGlyph name="ntilde" xMin="134" yMin="0" xMax="915" yMax="1377">
      <component glyphName="n" x="0" y="0" flags="0x204"/>
      <component glyphName="tilde" x="245" y="100" flags="0x4"/>
    </TTGlyph>
    <TTGlyph name="numbersign" xMin="79" yMin="0" xMax="1152" yMax="1343">
      <contour>
        <pt x="79" y="430" on="1"/>
        <pt x="319" y="430" on="1"/>
        <pt x="425" y="903" on="1"/>
        <pt x="200" y="903" on="1"/>
        <pt x="200" y="1024" on="1"/>
        <pt x="453" y="1024" on="1"/>
        <pt x="525" y="1343" on="1"/>
        <pt x="648" y="1343" on="1"/>
        <pt x="576" y="1024" on="1"/>
        <pt x="828" y="1024" on="1"/>
        <pt x="900" y="1343" on="1"/>
        <pt x="1023" y="1343" on="1"/>
        <pt x="951" y="1024" on="1"/>
        <pt x="1152" y="1024" on="1"/>
        <pt x="1152" y="903" on="1"/>
        <pt x="923" y="903" on="1"/>
        <pt x="817" y="430" on="1"/>
        <pt x="1031" y="430" on="1"/>
        <pt x="1031" y="309" on="1"/>
        <pt x="789" y="309" on="1"/>
        <pt x="720" y="0" on="1"/>
        <pt x="597" y="0" on="1"/>
        <pt x="666" y="309" on="1"/>
        <pt x="414" y="309" on="1"/>
        <pt x="345" y="0" on="1"/>
        <pt x="222" y="0" on="1"/>
        <pt x="291" y="309" on="1"/>
        <pt x="79" y="309" on="1"/>
      </contour>
      <contour>
        <pt x="442" y="430" on="1"/>
        <pt x="694" y="430" on="1"/>
        <pt x="800" y="903" on="1"/>
        <pt x="548" y="903" on="1"/>
      </contour>
    </TTGlyph>
    <TTGlyph name="o" xMin="69" yMin="-20" xMax="1048" yMax="961">
      <contour>
        <pt x="556" y="961" on="1"/>
        <pt x="659" y="961" on="0"/>
        <pt x="839" y="884" on="0"/>
        <pt x="972" y="751" on="0"/>
        <pt x="1048" y="572" on="0"/>
        <pt x="1048" y="471" on="1"/>
        <pt x="1048" y="369" on="0"/>
        <pt x="972" y="190" on="0"/>
        <pt x="839" y="57" on="0"/>
        <pt x="659" y="-20" on="0"/>
        <pt x="556" y="-20" on="1"/>
        <pt x="455" y="-20" on="0"/>
        <pt x="278" y="57" on="0"/>
        <pt x="146" y="190" on="0"/>
        <pt x="69" y="369" on="0"/>
        <pt x="69" y="471" on="1"/>
        <pt x="69" y="572" on="0"/>
        <pt x="146" y="751" on="0"/>
        <pt x="278" y="884" on="0"/>
        <pt x="455" y="961" on="0"/>
      </contour>
      <contour>
        <pt x="554" y="870" on="1"/>
        <pt x="476" y="870" on="0"/>
        <pt x="369" y="810" on="0"/>
        <pt x="303" y="702" on="0"/>
        <pt x="274" y="554" on="0"/>
        <pt x="274" y="467" on="1"/>
        <pt x="274" y="381" on="0"/>
        <pt x="304" y="235" on="0"/>
        <pt x="370" y="128" on="0"/>
        <pt x="477" y="68" on="0"/>
        <pt x="554" y="68" on="1"/>
        <pt x="631" y="68" on="0"/>
        <pt x="739" y="128" on="0"/>
        <pt x="808" y="235" on="0"/>
        <pt x="839" y="381" on="0"/>
        <pt x="839" y="467" on="1"/>
        <pt x="839" y="554" on="0"/>
        <pt x="808" y="702" on="0"/>
        <pt x="739" y="810" on="0"/>
        <pt x="631" y="870" on="0"/>
      </contour>
    </TTGlyph>
    <TTGlyph name="oacute" xMin="69" yMin="-20" xMax="1048" yMax="1378">
      <component glyphName="o" x="0" y="0" flags="0x204"/>
      <component glyphName="acute" x="433" y="61" flags="0x4"/>
    </TTGlyph>
    <TTGlyph name="ocircumflex" xMin="69" yMin="-20" xMax="1048" yMax="1378">
      <component glyphName="o" x="0" y="0" flags="0x204"/>
      <component glyphName="circumflex" x="368" y="61" flags="0x4"/>
    </TTGlyph>
    <TTGlyph name="odieresis" xMin="69" yMin="-20" xMax="1048" yMax="1304">
      <component glyphName="o" x="0" y="0" flags="0x204"/>
      <component glyphName="dieresis" x="253" y="80" flags="0x4"/>
    </TTGlyph>
    <TTGlyph name="oe" xMin="69" yMin="-20" xMax="1654" yMax="961">
      <contour>
        <pt x="1283" y="961" on="1"/>
        <pt x="1385" y="961" on="0"/>
        <pt x="1526" y="886" on="0"/>
        <pt x="1615" y="758" on="0"/>
        <pt x="1654" y="591" on="0"/>
        <pt x="1654" y="498" on="1"/>
        <pt x="1654" y="451" on="1"/>
        <pt x="1048" y="451" on="1"/>
        <pt x="1048" y="395" on="0"/>
        <pt x="1084" y="265" on="0"/>
        <pt x="1165" y="155" on="0"/>
        <pt x="1294" y="82" on="0"/>
        <pt x="1388" y="82" on="1"/>
        <pt x="1596" y="82" on="1"/>
        <pt x="1596" y="0" on="1"/>
        <pt x="1385" y="0" on="1"/>
        <pt x="1222" y="0" on="0"/>
        <pt x="1004" y="83" on="0"/>
        <pt x="941" y="164" on="1"/>
        <pt x="872" y="79" on="0"/>
        <pt x="674" y="-20" on="0"/>
        <pt x="556" y="-20" on="1"/>
        <pt x="455" y="-20" on="0"/>
        <pt x="278" y="57" on="0"/>
        <pt x="146" y="190" on="0"/>
        <pt x="69" y="369" on="0"/>
        <pt x="69" y="471" on="1"/>
        <pt x="69" y="572" on="0"/>
        <pt x="146" y="751" on="0"/>
        <pt x="278" y="884" on="0"/>
        <pt x="455" y="961" on="0"/>
        <pt x="556" y="961" on="1"/>
        <pt x="674" y="961" on="0"/>
        <pt x="869" y="864" on="0"/>
        <pt x="936" y="782" on="1"/>
        <pt x="990" y="863" on="0"/>
        <pt x="1163" y="961" on="0"/>
      </contour>
      <contour>
        <pt x="554" y="870" on="1"/>
        <pt x="476" y="870" on="0"/>
        <pt x="369" y="810" on="0"/>
        <pt x="303" y="702" on="0"/>
        <pt x="274" y="554" on="0"/>
        <pt x="274" y="467" on="1"/>
        <pt x="274" y="381" on="0"/>
        <pt x="304" y="235" on="0"/>
        <pt x="370" y="128" on="0"/>
        <pt x="477" y="68" on="0"/>
        <pt x="554" y="68" on="1"/>
        <pt x="631" y="68" on="0"/>
        <pt x="739" y="128" on="0"/>
        <pt x="808" y="235" on="0"/>
        <pt x="839" y="381" on="0"/>
        <pt x="839" y="467" on="1"/>
        <pt x="839" y="554" on="0"/>
        <pt x="808" y="702" on="0"/>
        <pt x="739" y="810" on="0"/>
        <pt x="631" y="870" on="0"/>
      </contour>
      <contour>
        <pt x="1273" y="870" on="1"/>
        <pt x="1211" y="870" on="0"/>
        <pt x="1126" y="814" on="0"/>
        <pt x="1073" y="721" on="0"/>
        <pt x="1049" y="598" on="0"/>
        <pt x="1048" y="532" on="1"/>
        <pt x="1461" y="532" on="1"/>
        <pt x="1461" y="575" on="1"/>
        <pt x="1459" y="633" on="0"/>
        <pt x="1442" y="739" on="0"/>
        <pt x="1400" y="821" on="0"/>
        <pt x="1329" y="870" on="0"/>
      </contour>
    </TTGlyph>
    <TTGlyph name="ograve" xMin="69" yMin="-20" xMax="1048" yMax="1378">
      <component glyphName="o" x="0" y="0" flags="0x204"/>
      <component glyphName="grave" x="182" y="61" flags="0x4"/>
    </TTGlyph>
    <TTGlyph name="one" xMin="89" yMin="0" xMax="445" yMax="1356">
      <contour>
        <pt x="445" y="0" on="1"/>
        <pt x="226" y="0" on="1"/>
        <pt x="226" y="1212" on="1"/>
        <pt x="89" y="1188" on="1"/>
        <pt x="89" y="1282" on="1"/>
        <pt x="379" y="1356" on="1"/>
        <pt x="445" y="1356" on="1"/>
      </contour>
    </TTGlyph>
    <TTGlyph name="onehalf" xMin="88" yMin="-106" xMax="1537" yMax="1439">
      <component glyphName="onesuperior" x="5" y="0" flags="0x4"/>
      <component glyphName="fraction" x="321" y="0" flags="0x4"/>
      <component glyphName="twosuperior" x="888" y="-474" flags="0x4"/>
    </TTGlyph>
    <TTGlyph name="onequarter" xMin="88" yMin="-106" xMax="1437" yMax="1439">
      <component glyphName="onesuperior" x="5" y="0" flags="0x4"/>
      <component glyphName="fraction" x="321" y="0" flags="0x4"/>
      <component glyphName="foursuperior" x="687" y="-472" flags="0x4"/>
    </TTGlyph>
    <TTGlyph name="onesuperior" xMin="83" yMin="481" xMax="354" yMax="1362">
      <contour>
        <pt x="354" y="481" on="1"/>
        <pt x="172" y="481" on="1"/>
        <pt x="172" y="1269" on="1"/>
        <pt x="83" y="1253" on="1"/>
        <pt x="83" y="1314" on="1"/>
        <pt x="271" y="1362" on="1"/>
        <pt x="354" y="1362" on="1"/>
      </contour>
    </TTGlyph>
    <TTGlyph name="ordfeminine" xMin="72" yMin="844" xMax="674" yMax="1470">
      <contour>
        <pt x="365" y="1395" on="1"/>
        <pt x="331" y="1395" on="0"/>
        <pt x="280" y="1390" on="0"/>
        <pt x="239" y="1383" on="0"/>
        <pt x="203" y="1374" on="0"/>
        <pt x="185" y="1370" on="1"/>
        <pt x="166" y="1434" on="1"/>
        <pt x="226" y="1453" on="0"/>
        <pt x="353" y="1470" on="0"/>
        <pt x="404" y="1470" on="1"/>
        <pt x="480" y="1470" on="0"/>
        <pt x="584" y="1462" on="0"/>
        <pt x="647" y="1443" on="0"/>
        <pt x="674" y="1413" on="0"/>
        <pt x="674" y="1391" on="1"/>
        <pt x="674" y="844" on="1"/>
        <pt x="428" y="844" on="1"/>
        <pt x="333" y="844" on="0"/>
        <pt x="198" y="881" on="0"/>
        <pt x="112" y="944" on="0"/>
        <pt x="72" y="1030" on="0"/>
        <pt x="72" y="1079" on="1"/>
        <pt x="72" y="1191" on="0"/>
        <pt x="219" y="1309" on="0"/>
        <pt x="351" y="1309" on="1"/>
        <pt x="399" y="1309" on="0"/>
        <pt x="475" y="1290" on="0"/>
        <pt x="508" y="1271" on="1"/>
        <pt x="508" y="1341" on="1"/>
        <pt x="508" y="1351" on="0"/>
        <pt x="500" y="1371" on="0"/>
        <pt x="470" y="1386" on="0"/>
        <pt x="413" y="1395" on="0"/>
      </contour>
      <contour>
        <pt x="508" y="907" on="1"/>
        <pt x="508" y="1210" on="1"/>
        <pt x="496" y="1217" on="0"/>
        <pt x="473" y="1229" on="0"/>
        <pt x="442" y="1238" on="0"/>
        <pt x="398" y="1243" on="0"/>
        <pt x="365" y="1243" on="1"/>
        <pt x="302" y="1243" on="0"/>
        <pt x="236" y="1155" on="0"/>
        <pt x="236" y="1085" on="1"/>
        <pt x="236" y="1065" on="0"/>
        <pt x="243" y="1005" on="0"/>
        <pt x="279" y="948" on="0"/>
        <pt x="354" y="907" on="0"/>
        <pt x="422" y="907" on="1"/>
      </contour>
    </TTGlyph>
    <TTGlyph name="ordmasculine" xMin="73" yMin="831" xMax="765" yMax="1473">
      <contour>
        <pt x="419" y="1473" on="1"/>
        <pt x="491" y="1473" on="0"/>
        <pt x="617" y="1422" on="0"/>
        <pt x="711" y="1335" on="0"/>
        <pt x="765" y="1219" on="0"/>
        <pt x="765" y="1153" on="1"/>
        <pt x="765" y="1086" on="0"/>
        <pt x="710" y="969" on="0"/>
        <pt x="616" y="882" on="0"/>
        <pt x="491" y="831" on="0"/>
        <pt x="421" y="831" on="1"/>
        <pt x="350" y="831" on="0"/>
        <pt x="223" y="882" on="0"/>
        <pt x="128" y="969" on="0"/>
        <pt x="73" y="1086" on="0"/>
        <pt x="73" y="1153" on="1"/>
        <pt x="73" y="1219" on="0"/>
        <pt x="129" y="1335" on="0"/>
        <pt x="224" y="1422" on="0"/>
        <pt x="349" y="1473" on="0"/>
      </contour>
      <contour>
        <pt x="419" y="909" on="1"/>
        <pt x="465" y="909" on="0"/>
        <pt x="530" y="945" on="0"/>
        <pt x="570" y="1010" on="0"/>
        <pt x="589" y="1098" on="0"/>
        <pt x="589" y="1149" on="1"/>
        <pt x="589" y="1201" on="0"/>
        <pt x="571" y="1291" on="0"/>
        <pt x="531" y="1356" on="0"/>
        <pt x="466" y="1393" on="0"/>
        <pt x="419" y="1393" on="1"/>
        <pt x="372" y="1393" on="0"/>
        <pt x="307" y="1356" on="0"/>
        <pt x="267" y="1291" on="0"/>
        <pt x="249" y="1201" on="0"/>
        <pt x="249" y="1149" on="1"/>
        <pt x="249" y="1098" on="0"/>
        <pt x="268" y="1010" on="0"/>
        <pt x="308" y="945" on="0"/>
        <pt x="373" y="909" on="0"/>
      </contour>
    </TTGlyph>
    <TTGlyph name="oslash" xMin="69" yMin="-20" xMax="1048" yMax="961">
      <contour>
        <pt x="556" y="961" on="1"/>
        <pt x="622" y="961" on="0"/>
        <pt x="744" y="928" on="0"/>
        <pt x="798" y="898" on="1"/>
        <pt x="843" y="961" on="1"/>
        <pt x="974" y="961" on="1"/>
        <pt x="886" y="835" on="1"/>
        <pt x="961" y="766" on="0"/>
        <pt x="1048" y="580" on="0"/>
        <pt x="1048" y="471" on="1"/>
        <pt x="1048" y="369" on="0"/>
        <pt x="972" y="190" on="0"/>
        <pt x="839" y="57" on="0"/>
        <pt x="659" y="-20" on="0"/>
        <pt x="556" y="-20" on="1"/>
        <pt x="493" y="-20" on="0"/>
        <pt x="378" y="10" on="0"/>
        <pt x="326" y="38" on="1"/>
        <pt x="286" y="-20" on="1"/>
        <pt x="155" y="-20" on="1"/>
        <pt x="238" y="99" on="1"/>
        <pt x="160" y="168" on="0"/>
        <pt x="69" y="359" on="0"/>
        <pt x="69" y="471" on="1"/>
        <pt x="69" y="572" on="0"/>
        <pt x="146" y="751" on="0"/>
        <pt x="278" y="884" on="0"/>
        <pt x="455" y="961" on="0"/>
      </contour>
      <contour>
        <pt x="554" y="870" on="1"/>
        <pt x="476" y="870" on="0"/>
        <pt x="369" y="810" on="0"/>
        <pt x="303" y="702" on="0"/>
        <pt x="274" y="554" on="0"/>
        <pt x="274" y="467" on="1"/>
        <pt x="274" y="392" on="0"/>
        <pt x="296" y="265" on="0"/>
        <pt x="319" y="214" on="1"/>
        <pt x="733" y="805" on="1"/>
        <pt x="700" y="836" on="0"/>
        <pt x="611" y="870" on="0"/>
      </contour>
      <contour>
        <pt x="839" y="467" on="1"/>
        <pt x="839" y="537" on="0"/>
        <pt x="819" y="658" on="0"/>
        <pt x="797" y="709" on="1"/>
        <pt x="386" y="123" on="1"/>
        <pt x="418" y="97" on="0"/>
        <pt x="500" y="68" on="0"/>
        <pt x="554" y="68" on="1"/>
        <pt x="631" y="68" on="0"/>
        <pt x="739" y="128" on="0"/>
        <pt x="808" y="235" on="0"/>
        <pt x="839" y="381" on="0"/>
      </contour>
    </TTGlyph>
    <TTGlyph name="otilde" xMin="69" yMin="-20" xMax="1048" yMax="1398">
      <component glyphName="o" x="0" y="0" flags="0x204"/>
      <component glyphName="tilde" x="274" y="121" flags="0x4"/>
    </TTGlyph>
    <TTGlyph name="p" xMin="134" yMin="-420" xMax="1063" yMax="961">
      <contour>
        <pt x="336" y="892" on="1"/>
        <pt x="393" y="927" on="0"/>
        <pt x="521" y="961" on="0"/>
        <pt x="572" y="961" on="1"/>
        <pt x="699" y="961" on="0"/>
        <pt x="884" y="892" on="0"/>
        <pt x="1005" y="771" on="0"/>
        <pt x="1063" y="604" on="0"/>
        <pt x="1063" y="506" on="1"/>
        <pt x="1063" y="407" on="0"/>
        <pt x="1010" y="224" on="0"/>
        <pt x="875" y="84" on="0"/>
        <pt x="643" y="0" on="0"/>
        <pt x="465" y="0" on="1"/>
        <pt x="336" y="0" on="1"/>
        <pt x="336" y="-362" on="1"/>
        <pt x="134" y="-420" on="1"/>
        <pt x="134" y="942" on="1"/>
        <pt x="336" y="942" on="1"/>
      </contour>
      <contour>
        <pt x="551" y="877" on="1"/>
        <pt x="487" y="877" on="0"/>
        <pt x="384" y="847" on="0"/>
        <pt x="336" y="818" on="1"/>
        <pt x="336" y="82" on="1"/>
        <pt x="465" y="82" on="1"/>
        <pt x="555" y="82" on="0"/>
        <pt x="683" y="126" on="0"/>
        <pt x="771" y="199" on="0"/>
        <pt x="824" y="290" on="0"/>
        <pt x="852" y="385" on="0"/>
        <pt x="861" y="474" on="0"/>
        <pt x="861" y="508" on="1"/>
        <pt x="861" y="581" on="0"/>
        <pt x="820" y="714" on="0"/>
        <pt x="741" y="816" on="0"/>
        <pt x="626" y="877" on="0"/>
      </contour>
    </TTGlyph>
    <TTGlyph name="paragraph" xMin="79" yMin="-37" xMax="834" yMax="1573">
      <contour>
        <pt x="419" y="700" on="1"/>
        <pt x="389" y="700" on="0"/>
        <pt x="315" y="727" on="0"/>
        <pt x="239" y="779" on="0"/>
        <pt x="168" y="852" on="0"/>
        <pt x="113" y="946" on="0"/>
        <pt x="79" y="1057" on="0"/>
        <pt x="79" y="1120" on="1"/>
        <pt x="79" y="1214" on="0"/>
        <pt x="150" y="1379" on="0"/>
        <pt x="272" y="1502" on="0"/>
        <pt x="436" y="1573" on="0"/>
        <pt x="529" y="1573" on="1"/>
        <pt x="834" y="1573" on="1"/>
        <pt x="834" y="-37" on="1"/>
        <pt x="695" y="-37" on="1"/>
        <pt x="695" y="1434" on="1"/>
        <pt x="558" y="1434" on="1"/>
        <pt x="558" y="-37" on="1"/>
        <pt x="419" y="-37" on="1"/>
      </contour>
    </TTGlyph>
    <TTGlyph name="parenleft" xMin="81" yMin="-238" xMax="497" yMax="1524">
      <contour>
        <pt x="81" y="643" on="1"/>
        <pt x="81" y="702" on="0"/>
        <pt x="102" y="893" on="0"/>
        <pt x="167" y="1128" on="0"/>
        <pt x="289" y="1392" on="0"/>
        <pt x="391" y="1524" on="1"/>
        <pt x="497" y="1524" on="1"/>
        <pt x="436" y="1419" on="0"/>
        <pt x="353" y="1190" on="0"/>
        <pt x="301" y="961" on="0"/>
        <pt x="278" y="740" on="0"/>
        <pt x="278" y="643" on="1"/>
        <pt x="278" y="547" on="0"/>
        <pt x="301" y="326" on="0"/>
        <pt x="353" y="96" on="0"/>
        <pt x="436" y="-133" on="0"/>
        <pt x="497" y="-238" on="1"/>
        <pt x="391" y="-238" on="1"/>
        <pt x="289" y="-106" on="0"/>
        <pt x="167" y="158" on="0"/>
        <pt x="102" y="393" on="0"/>
        <pt x="81" y="584" on="0"/>
      </contour>
    </TTGlyph>
    <TTGlyph name="parenright" xMin="53" yMin="-238" xMax="469" yMax="1524">
      <contour>
        <pt x="469" y="643" on="1"/>
        <pt x="469" y="584" on="0"/>
        <pt x="448" y="393" on="0"/>
        <pt x="383" y="158" on="0"/>
        <pt x="261" y="-106" on="0"/>
        <pt x="160" y="-238" on="1"/>
        <pt x="53" y="-238" on="1"/>
        <pt x="114" y="-133" on="0"/>
        <pt x="198" y="96" on="0"/>
        <pt x="250" y="325" on="0"/>
        <pt x="273" y="546" on="0"/>
        <pt x="273" y="643" on="1"/>
        <pt x="273" y="740" on="0"/>
        <pt x="250" y="961" on="0"/>
        <pt x="198" y="1190" on="0"/>
        <pt x="114" y="1419" on="0"/>
        <pt x="53" y="1524" on="1"/>
        <pt x="160" y="1524" on="1"/>
        <pt x="261" y="1392" on="0"/>
        <pt x="383" y="1128" on="0"/>
        <pt x="448" y="893" on="0"/>
        <pt x="469" y="702" on="0"/>
      </contour>
    </TTGlyph>
    <TTGlyph name="percent" xMin="75" yMin="-31" xMax="1672" yMax="1384">
      <contour>
        <pt x="1117" y="1384" on="1"/>
        <pt x="1248" y="1384" on="1"/>
        <pt x="607" y="-31" on="1"/>
        <pt x="476" y="-31" on="1"/>
      </contour>
      <contour>
        <pt x="1326" y="717" on="1"/>
        <pt x="1397" y="717" on="0"/>
        <pt x="1523" y="661" on="0"/>
        <pt x="1617" y="563" on="0"/>
        <pt x="1672" y="431" on="0"/>
        <pt x="1672" y="356" on="1"/>
        <pt x="1672" y="280" on="0"/>
        <pt x="1617" y="148" on="0"/>
        <pt x="1523" y="50" on="0"/>
        <pt x="1398" y="-6" on="0"/>
        <pt x="1328" y="-6" on="1"/>
        <pt x="1256" y="-6" on="0"/>
        <pt x="1130" y="50" on="0"/>
        <pt x="1035" y="148" on="0"/>
        <pt x="980" y="280" on="0"/>
        <pt x="980" y="356" on="1"/>
        <pt x="980" y="431" on="0"/>
        <pt x="1036" y="563" on="0"/>
        <pt x="1131" y="661" on="0"/>
        <pt x="1256" y="717" on="0"/>
      </contour>
      <contour>
        <pt x="1326" y="72" on="1"/>
        <pt x="1372" y="72" on="0"/>
        <pt x="1437" y="114" on="0"/>
        <pt x="1477" y="189" on="0"/>
        <pt x="1496" y="291" on="0"/>
        <pt x="1496" y="352" on="1"/>
        <pt x="1496" y="414" on="0"/>
        <pt x="1478" y="519" on="0"/>
        <pt x="1438" y="595" on="0"/>
        <pt x="1373" y="637" on="0"/>
        <pt x="1326" y="637" on="1"/>
        <pt x="1279" y="637" on="0"/>
        <pt x="1214" y="595" on="0"/>
        <pt x="1174" y="519" on="0"/>
        <pt x="1156" y="414" on="0"/>
        <pt x="1156" y="352" on="1"/>
        <pt x="1156" y="291" on="0"/>
        <pt x="1175" y="189" on="0"/>
        <pt x="1215" y="114" on="0"/>
        <pt x="1280" y="72" on="0"/>
      </contour>
      <contour>
        <pt x="421" y="1362" on="1"/>
        <pt x="492" y="1362" on="0"/>
        <pt x="618" y="1306" on="0"/>
        <pt x="712" y="1208" on="0"/>
        <pt x="767" y="1076" on="0"/>
        <pt x="767" y="1001" on="1"/>
        <pt x="767" y="925" on="0"/>
        <pt x="712" y="793" on="0"/>
        <pt x="618" y="695" on="0"/>
        <pt x="493" y="639" on="0"/>
        <pt x="423" y="639" on="1"/>
        <pt x="351" y="639" on="0"/>
        <pt x="225" y="695" on="0"/>
        <pt x="130" y="793" on="0"/>
        <pt x="75" y="925" on="0"/>
        <pt x="75" y="1001" on="1"/>
        <pt x="75" y="1076" on="0"/>
        <pt x="131" y="1208" on="0"/>
        <pt x="225" y="1306" on="0"/>
        <pt x="351" y="1362" on="0"/>
      </contour>
      <contour>
        <pt x="421" y="717" on="1"/>
        <pt x="467" y="717" on="0"/>
        <pt x="532" y="759" on="0"/>
        <pt x="572" y="834" on="0"/>
        <pt x="591" y="937" on="0"/>
        <pt x="591" y="997" on="1"/>
        <pt x="591" y="1059" on="0"/>
        <pt x="573" y="1164" on="0"/>
        <pt x="533" y="1240" on="0"/>
        <pt x="468" y="1282" on="0"/>
        <pt x="421" y="1282" on="1"/>
        <pt x="374" y="1282" on="0"/>
        <pt x="309" y="1240" on="0"/>
        <pt x="269" y="1164" on="0"/>
        <pt x="251" y="1059" on="0"/>
        <pt x="251" y="997" on="1"/>
        <pt x="251" y="937" on="0"/>
        <pt x="270" y="834" on="0"/>
        <pt x="310" y="759" on="0"/>
        <pt x="375" y="717" on="0"/>
      </contour>
    </TTGlyph>
    <TTGlyph name="period" xMin="119" yMin="0" xMax="322" yMax="160">
      <contour>
        <pt x="322" y="0" on="1"/>
        <pt x="119" y="0" on="1"/>
        <pt x="119" y="160" on="1"/>
        <pt x="322" y="160" on="1"/>
      </contour>
    </TTGlyph>
    <TTGlyph name="periodcentered" xMin="119" yMin="459" xMax="322" yMax="664">
      <contour>
        <pt x="322" y="459" on="1"/>
        <pt x="119" y="459" on="1"/>
        <pt x="119" y="664" on="1"/>
        <pt x="322" y="664" on="1"/>
      </contour>
    </TTGlyph>
    <TTGlyph name="plus" xMin="80" yMin="55" xMax="1117" yMax="1092">
      <contour>
        <pt x="529" y="504" on="1"/>
        <pt x="80" y="504" on="1"/>
        <pt x="80" y="643" on="1"/>
        <pt x="529" y="643" on="1"/>
        <pt x="529" y="1092" on="1"/>
        <pt x="668" y="1092" on="1"/>
        <pt x="668" y="643" on="1"/>
        <pt x="1117" y="643" on="1"/>
        <pt x="1117" y="504" on="1"/>
        <pt x="668" y="504" on="1"/>
        <pt x="668" y="55" on="1"/>
        <pt x="529" y="55" on="1"/>
      </contour>
    </TTGlyph>
    <TTGlyph name="plusminus" xMin="80" yMin="2" xMax="1117" yMax="1237">
      <contour>
        <pt x="529" y="649" on="1"/>
        <pt x="80" y="649" on="1"/>
        <pt x="80" y="788" on="1"/>
        <pt x="529" y="788" on="1"/>
        <pt x="529" y="1237" on="1"/>
        <pt x="668" y="1237" on="1"/>
        <pt x="668" y="788" on="1"/>
        <pt x="1117" y="788" on="1"/>
        <pt x="1117" y="649" on="1"/>
        <pt x="668" y="649" on="1"/>
        <pt x="668" y="201" on="1"/>
        <pt x="529" y="201" on="1"/>
      </contour>
      <contour>
        <pt x="80" y="2" on="1"/>
        <pt x="80" y="141" on="1"/>
        <pt x="1117" y="141" on="1"/>
        <pt x="1117" y="2" on="1"/>
      </contour>
    </TTGlyph>
    <TTGlyph name="q" xMin="75" yMin="-420" xMax="1005" yMax="961">
      <contour>
        <pt x="802" y="0" on="1"/>
        <pt x="673" y="0" on="1"/>
        <pt x="554" y="0" on="0"/>
        <pt x="373" y="38" on="0"/>
        <pt x="240" y="107" on="0"/>
        <pt x="151" y="201" on="0"/>
        <pt x="97" y="314" on="0"/>
        <pt x="75" y="440" on="0"/>
        <pt x="75" y="506" on="1"/>
        <pt x="75" y="604" on="0"/>
        <pt x="134" y="771" on="0"/>
        <pt x="255" y="892" on="0"/>
        <pt x="440" y="961" on="0"/>
        <pt x="567" y="961" on="1"/>
        <pt x="592" y="961" on="0"/>
        <pt x="650" y="953" on="0"/>
        <pt x="712" y="936" on="0"/>
        <pt x="773" y="910" on="0"/>
        <pt x="802" y="892" on="1"/>
        <pt x="802" y="942" on="1"/>
        <pt x="1005" y="942" on="1"/>
        <pt x="1005" y="-362" on="1"/>
        <pt x="802" y="-420" on="1"/>
      </contour>
      <contour>
        <pt x="278" y="508" on="1"/>
        <pt x="278" y="474" on="0"/>
        <pt x="287" y="385" on="0"/>
        <pt x="315" y="290" on="0"/>
        <pt x="368" y="199" on="0"/>
        <pt x="455" y="126" on="0"/>
        <pt x="584" y="82" on="0"/>
        <pt x="673" y="82" on="1"/>
        <pt x="802" y="82" on="1"/>
        <pt x="802" y="819" on="1"/>
        <pt x="754" y="848" on="0"/>
        <pt x="650" y="877" on="0"/>
        <pt x="587" y="877" on="1"/>
        <pt x="512" y="877" on="0"/>
        <pt x="397" y="816" on="0"/>
        <pt x="319" y="714" on="0"/>
        <pt x="278" y="581" on="0"/>
      </contour>
    </TTGlyph>
    <TTGlyph name="question" xMin="105" yMin="0" xMax="846" yMax="1516">
      <contour>
        <pt x="146" y="489" on="1"/>
        <pt x="145" y="540" on="0"/>
        <pt x="196" y="656" on="0"/>
        <pt x="246" y="717" on="1"/>
        <pt x="486" y="1010" on="1"/>
        <pt x="521" y="1053" on="0"/>
        <pt x="571" y="1123" on="0"/>
        <pt x="602" y="1184" on="0"/>
        <pt x="617" y="1242" on="0"/>
        <pt x="617" y="1274" on="1"/>
        <pt x="617" y="1304" on="0"/>
        <pt x="594" y="1354" on="0"/>
        <pt x="543" y="1389" on="0"/>
        <pt x="460" y="1409" on="0"/>
        <pt x="400" y="1409" on="1"/>
        <pt x="369" y="1409" on="0"/>
        <pt x="307" y="1407" on="0"/>
        <pt x="238" y="1396" on="0"/>
        <pt x="158" y="1376" on="0"/>
        <pt x="109" y="1358" on="1"/>
        <pt x="105" y="1458" on="1"/>
        <pt x="211" y="1492" on="0"/>
        <pt x="363" y="1516" on="0"/>
        <pt x="414" y="1516" on="1"/>
        <pt x="515" y="1516" on="0"/>
        <pt x="676" y="1490" on="0"/>
        <pt x="787" y="1429" on="0"/>
        <pt x="846" y="1329" on="0"/>
        <pt x="846" y="1255" on="1"/>
        <pt x="846" y="1221" on="0"/>
        <pt x="820" y="1141" on="0"/>
        <pt x="772" y="1055" on="0"/>
        <pt x="704" y="964" on="0"/>
        <pt x="662" y="920" on="1"/>
        <pt x="447" y="653" on="1"/>
        <pt x="412" y="608" on="0"/>
        <pt x="361" y="529" on="0"/>
        <pt x="361" y="494" on="1"/>
        <pt x="361" y="468" on="0"/>
        <pt x="371" y="435" on="0"/>
        <pt x="407" y="414" on="0"/>
        <pt x="474" y="406" on="0"/>
        <pt x="531" y="406" on="1"/>
        <pt x="531" y="315" on="1"/>
        <pt x="350" y="315" on="1"/>
        <pt x="257" y="315" on="0"/>
        <pt x="146" y="405" on="0"/>
      </contour>
      <contour>
        <pt x="469" y="0" on="1"/>
        <pt x="266" y="0" on="1"/>
        <pt x="266" y="160" on="1"/>
        <pt x="469" y="160" on="1"/>
      </contour>
    </TTGlyph>
    <TTGlyph name="questiondown" xMin="64" yMin="-496" xMax="806" yMax="1020">
      <contour>
        <pt x="765" y="530" on="1"/>
        <pt x="765" y="481" on="0"/>
        <pt x="715" y="363" on="0"/>
        <pt x="664" y="303" on="1"/>
        <pt x="425" y="10" on="1"/>
        <pt x="389" y="-34" on="0"/>
        <pt x="340" y="-104" on="0"/>
        <pt x="308" y="-165" on="0"/>
        <pt x="294" y="-223" on="0"/>
        <pt x="294" y="-254" on="1"/>
        <pt x="294" y="-284" on="0"/>
        <pt x="316" y="-334" on="0"/>
        <pt x="367" y="-369" on="0"/>
        <pt x="450" y="-389" on="0"/>
        <pt x="511" y="-389" on="1"/>
        <pt x="542" y="-389" on="0"/>
        <pt x="604" y="-386" on="0"/>
        <pt x="673" y="-376" on="0"/>
        <pt x="752" y="-356" on="0"/>
        <pt x="802" y="-338" on="1"/>
        <pt x="806" y="-438" on="1"/>
        <pt x="698" y="-472" on="0"/>
        <pt x="547" y="-496" on="0"/>
        <pt x="496" y="-496" on="1"/>
        <pt x="395" y="-496" on="0"/>
        <pt x="234" y="-470" on="0"/>
        <pt x="123" y="-409" on="0"/>
        <pt x="64" y="-310" on="0"/>
        <pt x="64" y="-236" on="1"/>
        <pt x="64" y="-202" on="0"/>
        <pt x="90" y="-122" on="0"/>
        <pt x="138" y="-35" on="0"/>
        <pt x="207" y="56" on="0"/>
        <pt x="249" y="100" on="1"/>
        <pt x="464" y="367" on="1"/>
        <pt x="499" y="412" on="0"/>
        <pt x="550" y="491" on="0"/>
        <pt x="550" y="526" on="1"/>
        <pt x="550" y="551" on="0"/>
        <pt x="539" y="585" on="0"/>
        <pt x="504" y="606" on="0"/>
        <pt x="437" y="614" on="0"/>
        <pt x="380" y="614" on="1"/>
        <pt x="380" y="705" on="1"/>
        <pt x="560" y="705" on="1"/>
        <pt x="654" y="705" on="0"/>
        <pt x="765" y="615" on="0"/>
      </contour>
      <contour>
        <pt x="441" y="1020" on="1"/>
        <pt x="644" y="1020" on="1"/>
        <pt x="644" y="860" on="1"/>
        <pt x="441" y="860" on="1"/>
      </contour>
    </TTGlyph>
    <TTGlyph name="quotedbl" xMin="112" yMin="1163" xMax="674" yMax="1487">
      <contour>
        <pt x="315" y="1163" on="1"/>
        <pt x="112" y="1163" on="1"/>
        <pt x="112" y="1487" on="1"/>
        <pt x="315" y="1487" on="1"/>
      </contour>
      <contour>
        <pt x="674" y="1163" on="1"/>
        <pt x="471" y="1163" on="1"/>
        <pt x="471" y="1487" on="1"/>
        <pt x="674" y="1487" on="1"/>
      </contour>
    </TTGlyph>
    <TTGlyph name="quotedblbase" xMin="38" yMin="-172" xMax="645" yMax="160">
      <contour>
        <pt x="126" y="160" on="1"/>
        <pt x="329" y="160" on="1"/>
        <pt x="329" y="0" on="1"/>
        <pt x="329" y="-41" on="0"/>
        <pt x="299" y="-105" on="0"/>
        <pt x="247" y="-149" on="0"/>
        <pt x="177" y="-172" on="0"/>
        <pt x="137" y="-172" on="1"/>
        <pt x="38" y="-172" on="1"/>
        <pt x="38" y="-82" on="1"/>
        <pt x="67" y="-82" on="0"/>
        <pt x="102" y="-79" on="0"/>
        <pt x="120" y="-63" on="0"/>
        <pt x="126" y="-30" on="0"/>
        <pt x="126" y="0" on="1"/>
      </contour>
      <contour>
        <pt x="442" y="160" on="1"/>
        <pt x="645" y="160" on="1"/>
        <pt x="645" y="0" on="1"/>
        <pt x="645" y="-41" on="0"/>
        <pt x="615" y="-105" on="0"/>
        <pt x="562" y="-149" on="0"/>
        <pt x="492" y="-172" on="0"/>
        <pt x="452" y="-172" on="1"/>
        <pt x="354" y="-172" on="1"/>
        <pt x="354" y="-82" on="1"/>
        <pt x="383" y="-82" on="0"/>
        <pt x="418" y="-79" on="0"/>
        <pt x="436" y="-63" on="0"/>
        <pt x="442" y="-30" on="0"/>
        <pt x="442" y="0" on="1"/>
      </contour>
    </TTGlyph>
    <TTGlyph name="quotedblleft" xMin="102" yMin="1155" xMax="743" yMax="1487">
      <contour>
        <pt x="305" y="1155" on="1"/>
        <pt x="102" y="1155" on="1"/>
        <pt x="102" y="1315" on="1"/>
        <pt x="102" y="1355" on="0"/>
        <pt x="132" y="1419" on="0"/>
        <pt x="185" y="1464" on="0"/>
        <pt x="255" y="1487" on="0"/>
        <pt x="295" y="1487" on="1"/>
        <pt x="393" y="1487" on="1"/>
        <pt x="393" y="1397" on="1"/>
        <pt x="364" y="1397" on="0"/>
        <pt x="329" y="1394" on="0"/>
        <pt x="311" y="1378" on="0"/>
        <pt x="305" y="1345" on="0"/>
        <pt x="305" y="1315" on="1"/>
      </contour>
      <contour>
        <pt x="655" y="1155" on="1"/>
        <pt x="453" y="1155" on="1"/>
        <pt x="453" y="1315" on="1"/>
        <pt x="453" y="1355" on="0"/>
        <pt x="483" y="1419" on="0"/>
        <pt x="535" y="1464" on="0"/>
        <pt x="605" y="1487" on="0"/>
        <pt x="645" y="1487" on="1"/>
        <pt x="743" y="1487" on="1"/>
        <pt x="743" y="1397" on="1"/>
        <pt x="714" y="1397" on="0"/>
        <pt x="679" y="1394" on="0"/>
        <pt x="661" y="1378" on="0"/>
        <pt x="655" y="1345" on="0"/>
        <pt x="655" y="1315" on="1"/>
      </contour>
    </TTGlyph>
    <TTGlyph name="quotedblright" xMin="86" yMin="1155" xMax="727" yMax="1487">
      <contour>
        <pt x="174" y="1487" on="1"/>
        <pt x="377" y="1487" on="1"/>
        <pt x="377" y="1327" on="1"/>
        <pt x="377" y="1286" on="0"/>
        <pt x="347" y="1223" on="0"/>
        <pt x="295" y="1178" on="0"/>
        <pt x="225" y="1155" on="0"/>
        <pt x="185" y="1155" on="1"/>
        <pt x="86" y="1155" on="1"/>
        <pt x="86" y="1245" on="1"/>
        <pt x="115" y="1245" on="0"/>
        <pt x="150" y="1248" on="0"/>
        <pt x="168" y="1264" on="0"/>
        <pt x="174" y="1297" on="0"/>
        <pt x="174" y="1327" on="1"/>
      </contour>
      <contour>
        <pt x="525" y="1487" on="1"/>
        <pt x="727" y="1487" on="1"/>
        <pt x="727" y="1327" on="1"/>
        <pt x="727" y="1286" on="0"/>
        <pt x="697" y="1223" on="0"/>
        <pt x="645" y="1178" on="0"/>
        <pt x="575" y="1155" on="0"/>
        <pt x="535" y="1155" on="1"/>
        <pt x="437" y="1155" on="1"/>
        <pt x="437" y="1245" on="1"/>
        <pt x="466" y="1245" on="0"/>
        <pt x="501" y="1248" on="0"/>
        <pt x="519" y="1264" on="0"/>
        <pt x="525" y="1297" on="0"/>
        <pt x="525" y="1327" on="1"/>
      </contour>
    </TTGlyph>
    <TTGlyph name="quoteleft" xMin="102" yMin="1155" xMax="393" yMax="1487">
      <contour>
        <pt x="305" y="1155" on="1"/>
        <pt x="102" y="1155" on="1"/>
        <pt x="102" y="1315" on="1"/>
        <pt x="102" y="1355" on="0"/>
        <pt x="132" y="1419" on="0"/>
        <pt x="185" y="1464" on="0"/>
        <pt x="255" y="1487" on="0"/>
        <pt x="295" y="1487" on="1"/>
        <pt x="393" y="1487" on="1"/>
        <pt x="393" y="1397" on="1"/>
        <pt x="364" y="1397" on="0"/>
        <pt x="329" y="1394" on="0"/>
        <pt x="311" y="1378" on="0"/>
        <pt x="305" y="1345" on="0"/>
        <pt x="305" y="1315" on="1"/>
      </contour>
    </TTGlyph>
    <TTGlyph name="quoteright" xMin="86" yMin="1155" xMax="377" yMax="1487">
      <contour>
        <pt x="174" y="1487" on="1"/>
        <pt x="377" y="1487" on="1"/>
        <pt x="377" y="1327" on="1"/>
        <pt x="377" y="1286" on="0"/>
        <pt x="347" y="1223" on="0"/>
        <pt x="295" y="1178" on="0"/>
        <pt x="225" y="1155" on="0"/>
        <pt x="185" y="1155" on="1"/>
        <pt x="86" y="1155" on="1"/>
        <pt x="86" y="1245" on="1"/>
        <pt x="115" y="1245" on="0"/>
        <pt x="150" y="1248" on="0"/>
        <pt x="168" y="1264" on="0"/>
        <pt x="174" y="1297" on="0"/>
        <pt x="174" y="1327" on="1"/>
      </contour>
    </TTGlyph>
    <TTGlyph name="quotesinglbase" xMin="38" yMin="-172" xMax="329" yMax="160">
      <contour>
        <pt x="126" y="160" on="1"/>
        <pt x="329" y="160" on="1"/>
        <pt x="329" y="0" on="1"/>
        <pt x="329" y="-41" on="0"/>
        <pt x="299" y="-105" on="0"/>
        <pt x="247" y="-149" on="0"/>
        <pt x="177" y="-172" on="0"/>
        <pt x="137" y="-172" on="1"/>
        <pt x="38" y="-172" on="1"/>
        <pt x="38" y="-82" on="1"/>
        <pt x="67" y="-82" on="0"/>
        <pt x="102" y="-79" on="0"/>
        <pt x="120" y="-63" on="0"/>
        <pt x="126" y="-30" on="0"/>
        <pt x="126" y="0" on="1"/>
      </contour>
    </TTGlyph>
    <TTGlyph name="quotesingle" xMin="112" yMin="1163" xMax="315" yMax="1487">
      <contour>
        <pt x="315" y="1163" on="1"/>
        <pt x="112" y="1163" on="1"/>
        <pt x="112" y="1487" on="1"/>
        <pt x="315" y="1487" on="1"/>
      </contour>
    </TTGlyph>
    <TTGlyph name="r" xMin="134" yMin="0" xMax="708" yMax="961">
      <contour>
        <pt x="337" y="868" on="1"/>
        <pt x="377" y="896" on="0"/>
        <pt x="438" y="932" on="0"/>
        <pt x="486" y="953" on="0"/>
        <pt x="527" y="961" on="0"/>
        <pt x="547" y="961" on="1"/>
        <pt x="625" y="961" on="0"/>
        <pt x="701" y="853" on="0"/>
        <pt x="708" y="754" on="1"/>
        <pt x="533" y="702" on="1"/>
        <pt x="523" y="774" on="0"/>
        <pt x="489" y="834" on="0"/>
        <pt x="453" y="834" on="1"/>
        <pt x="432" y="834" on="0"/>
        <pt x="375" y="816" on="0"/>
        <pt x="337" y="795" on="1"/>
        <pt x="337" y="0" on="1"/>
        <pt x="134" y="0" on="1"/>
        <pt x="134" y="942" on="1"/>
        <pt x="337" y="942" on="1"/>
      </contour>
    </TTGlyph>
    <TTGlyph name="registered" xMin="105" yMin="-16" xMax="1535" yMax="1413">
      <contour>
        <pt x="105" y="698" on="1"/>
        <pt x="105" y="797" on="0"/>
        <pt x="156" y="980" on="0"/>
        <pt x="249" y="1139" on="0"/>
        <pt x="380" y="1269" on="0"/>
        <pt x="539" y="1362" on="0"/>
        <pt x="721" y="1413" on="0"/>
        <pt x="820" y="1413" on="1"/>
        <pt x="919" y="1413" on="0"/>
        <pt x="1101" y="1362" on="0"/>
        <pt x="1260" y="1269" on="0"/>
        <pt x="1391" y="1139" on="0"/>
        <pt x="1484" y="980" on="0"/>
        <pt x="1535" y="797" on="0"/>
        <pt x="1535" y="698" on="1"/>
        <pt x="1535" y="599" on="0"/>
        <pt x="1484" y="417" on="0"/>
        <pt x="1391" y="258" on="0"/>
        <pt x="1260" y="128" on="0"/>
        <pt x="1101" y="35" on="0"/>
        <pt x="919" y="-16" on="0"/>
        <pt x="820" y="-16" on="1"/>
        <pt x="721" y="-16" on="0"/>
        <pt x="539" y="35" on="0"/>
        <pt x="380" y="128" on="0"/>
        <pt x="249" y="258" on="0"/>
        <pt x="156" y="417" on="0"/>
        <pt x="105" y="599" on="0"/>
      </contour>
      <contour>
        <pt x="1400" y="698" on="1"/>
        <pt x="1400" y="821" on="0"/>
        <pt x="1311" y="1037" on="0"/>
        <pt x="1155" y="1197" on="0"/>
        <pt x="943" y="1290" on="0"/>
        <pt x="820" y="1290" on="1"/>
        <pt x="697" y="1290" on="0"/>
        <pt x="486" y="1197" on="0"/>
        <pt x="330" y="1037" on="0"/>
        <pt x="241" y="821" on="0"/>
        <pt x="241" y="698" on="1"/>
        <pt x="241" y="575" on="0"/>
        <pt x="330" y="360" on="0"/>
        <pt x="486" y="199" on="0"/>
        <pt x="697" y="106" on="0"/>
        <pt x="820" y="106" on="1"/>
        <pt x="943" y="106" on="0"/>
        <pt x="1155" y="199" on="0"/>
        <pt x="1311" y="360" on="0"/>
        <pt x="1400" y="575" on="0"/>
      </contour>
      <contour>
        <pt x="800" y="1143" on="1"/>
        <pt x="875" y="1143" on="0"/>
        <pt x="985" y="1117" on="0"/>
        <pt x="1061" y="1073" on="0"/>
        <pt x="1109" y="1016" on="0"/>
        <pt x="1135" y="955" on="0"/>
        <pt x="1144" y="895" on="0"/>
        <pt x="1144" y="870" on="1"/>
        <pt x="1144" y="837" on="0"/>
        <pt x="1123" y="757" on="0"/>
        <pt x="1068" y="682" on="0"/>
        <pt x="974" y="620" on="0"/>
        <pt x="902" y="606" on="1"/>
        <pt x="1156" y="264" on="1"/>
        <pt x="984" y="264" on="1"/>
        <pt x="736" y="600" on="1"/>
        <pt x="677" y="600" on="1"/>
        <pt x="677" y="264" on="1"/>
        <pt x="525" y="264" on="1"/>
        <pt x="525" y="1143" on="1"/>
      </contour>
      <contour>
        <pt x="677" y="1081" on="1"/>
        <pt x="677" y="659" on="1"/>
        <pt x="765" y="659" on="1"/>
        <pt x="805" y="659" on="0"/>
        <pt x="886" y="682" on="0"/>
        <pt x="950" y="733" on="0"/>
        <pt x="990" y="815" on="0"/>
        <pt x="990" y="874" on="1"/>
        <pt x="990" y="940" on="0"/>
        <pt x="942" y="1021" on="0"/>
        <pt x="872" y="1066" on="0"/>
        <pt x="794" y="1081" on="0"/>
        <pt x="765" y="1081" on="1"/>
      </contour>
    </TTGlyph>
    <TTGlyph name="ring" xMin="96" yMin="1008" xMax="498" yMax="1346">
      <contour>
        <pt x="297" y="1346" on="1"/>
        <pt x="342" y="1346" on="0"/>
        <pt x="417" y="1320" on="0"/>
        <pt x="469" y="1274" on="0"/>
        <pt x="498" y="1212" on="0"/>
        <pt x="498" y="1176" on="1"/>
        <pt x="498" y="1140" on="0"/>
        <pt x="469" y="1079" on="0"/>
        <pt x="417" y="1034" on="0"/>
        <pt x="342" y="1008" on="0"/>
        <pt x="297" y="1008" on="1"/>
        <pt x="252" y="1008" on="0"/>
        <pt x="177" y="1034" on="0"/>
        <pt x="125" y="1079" on="0"/>
        <pt x="96" y="1140" on="0"/>
        <pt x="96" y="1176" on="1"/>
        <pt x="96" y="1212" on="0"/>
        <pt x="125" y="1274" on="0"/>
        <pt x="178" y="1320" on="0"/>
        <pt x="252" y="1346" on="0"/>
      </contour>
      <contour>
        <pt x="297" y="1290" on="1"/>
        <pt x="277" y="1290" on="0"/>
        <pt x="244" y="1272" on="0"/>
        <pt x="220" y="1242" on="0"/>
        <pt x="207" y="1201" on="0"/>
        <pt x="207" y="1178" on="1"/>
        <pt x="207" y="1155" on="0"/>
        <pt x="220" y="1113" on="0"/>
        <pt x="244" y="1081" on="0"/>
        <pt x="277" y="1063" on="0"/>
        <pt x="297" y="1063" on="1"/>
        <pt x="318" y="1063" on="0"/>
        <pt x="351" y="1081" on="0"/>
        <pt x="374" y="1113" on="0"/>
        <pt x="387" y="1155" on="0"/>
        <pt x="387" y="1178" on="1"/>
        <pt x="387" y="1224" on="0"/>
        <pt x="339" y="1290" on="0"/>
      </contour>
    </TTGlyph>
    <TTGlyph name="s" xMin="61" yMin="-20" xMax="673" yMax="961">
      <contour>
        <pt x="382" y="961" on="1"/>
        <pt x="424" y="961" on="0"/>
        <pt x="486" y="954" on="0"/>
        <pt x="541" y="940" on="0"/>
        <pt x="595" y="922" on="0"/>
        <pt x="628" y="911" on="1"/>
        <pt x="626" y="823" on="1"/>
        <pt x="579" y="840" on="0"/>
        <pt x="474" y="866" on="0"/>
        <pt x="403" y="866" on="1"/>
        <pt x="388" y="866" on="0"/>
        <pt x="346" y="858" on="0"/>
        <pt x="308" y="839" on="0"/>
        <pt x="282" y="807" on="0"/>
        <pt x="282" y="784" on="1"/>
        <pt x="282" y="758" on="0"/>
        <pt x="329" y="684" on="0"/>
        <pt x="380" y="629" on="1"/>
        <pt x="487" y="508" on="1"/>
        <pt x="521" y="469" on="0"/>
        <pt x="588" y="396" on="0"/>
        <pt x="640" y="326" on="0"/>
        <pt x="673" y="257" on="0"/>
        <pt x="673" y="223" on="1"/>
        <pt x="673" y="157" on="0"/>
        <pt x="613" y="65" on="0"/>
        <pt x="517" y="6" on="0"/>
        <pt x="396" y="-20" on="0"/>
        <pt x="335" y="-20" on="1"/>
        <pt x="250" y="-20" on="0"/>
        <pt x="119" y="17" on="0"/>
        <pt x="61" y="51" on="1"/>
        <pt x="69" y="141" on="1"/>
        <pt x="115" y="117" on="0"/>
        <pt x="223" y="76" on="0"/>
        <pt x="280" y="76" on="1"/>
        <pt x="374" y="76" on="0"/>
        <pt x="468" y="142" on="0"/>
        <pt x="468" y="205" on="1"/>
        <pt x="468" y="249" on="0"/>
        <pt x="395" y="345" on="0"/>
        <pt x="341" y="403" on="1"/>
        <pt x="235" y="522" on="1"/>
        <pt x="193" y="575" on="0"/>
        <pt x="134" y="647" on="0"/>
        <pt x="98" y="703" on="0"/>
        <pt x="81" y="753" on="0"/>
        <pt x="81" y="784" on="1"/>
        <pt x="81" y="835" on="0"/>
        <pt x="128" y="903" on="0"/>
        <pt x="209" y="944" on="0"/>
        <pt x="319" y="961" on="0"/>
      </contour>
    </TTGlyph>
    <TTGlyph name="section" xMin="85" yMin="-313" xMax="861" yMax="1413">
      <contour>
        <pt x="527" y="244" on="1"/>
        <pt x="557" y="271" on="0"/>
        <pt x="615" y="328" on="0"/>
        <pt x="661" y="390" on="0"/>
        <pt x="689" y="456" on="0"/>
        <pt x="689" y="492" on="1"/>
        <pt x="689" y="559" on="0"/>
        <pt x="632" y="663" on="0"/>
        <pt x="548" y="749" on="0"/>
        <pt x="454" y="820" on="0"/>
        <pt x="417" y="854" on="1"/>
        <pt x="387" y="826" on="0"/>
        <pt x="328" y="768" on="0"/>
        <pt x="282" y="708" on="0"/>
        <pt x="253" y="643" on="0"/>
        <pt x="253" y="608" on="1"/>
        <pt x="253" y="542" on="0"/>
        <pt x="311" y="436" on="0"/>
        <pt x="395" y="349" on="0"/>
        <pt x="490" y="277" on="0"/>
      </contour>
      <contour>
        <pt x="591" y="-121" on="1"/>
        <pt x="591" y="-85" on="0"/>
        <pt x="548" y="-18" on="0"/>
        <pt x="476" y="49" on="0"/>
        <pt x="385" y="117" on="0"/>
        <pt x="291" y="191" on="0"/>
        <pt x="200" y="274" on="0"/>
        <pt x="128" y="371" on="0"/>
        <pt x="85" y="484" on="0"/>
        <pt x="85" y="551" on="1"/>
        <pt x="85" y="610" on="0"/>
        <pt x="132" y="709" on="0"/>
        <pt x="207" y="798" on="0"/>
        <pt x="300" y="882" on="0"/>
        <pt x="345" y="926" on="1"/>
        <pt x="318" y="947" on="0"/>
        <pt x="265" y="996" on="0"/>
        <pt x="223" y="1057" on="0"/>
        <pt x="196" y="1130" on="0"/>
        <pt x="196" y="1174" on="1"/>
        <pt x="196" y="1229" on="0"/>
        <pt x="240" y="1318" on="0"/>
        <pt x="314" y="1380" on="0"/>
        <pt x="412" y="1413" on="0"/>
        <pt x="466" y="1413" on="1"/>
        <pt x="518" y="1413" on="0"/>
        <pt x="598" y="1410" on="0"/>
        <pt x="668" y="1403" on="0"/>
        <pt x="736" y="1388" on="0"/>
        <pt x="775" y="1376" on="1"/>
        <pt x="771" y="1255" on="1"/>
        <pt x="753" y="1261" on="0"/>
        <pt x="692" y="1277" on="0"/>
        <pt x="619" y="1292" on="0"/>
        <pt x="538" y="1303" on="0"/>
        <pt x="501" y="1303" on="1"/>
        <pt x="471" y="1303" on="0"/>
        <pt x="418" y="1295" on="0"/>
        <pt x="378" y="1276" on="0"/>
        <pt x="355" y="1245" on="0"/>
        <pt x="355" y="1221" on="1"/>
        <pt x="355" y="1185" on="0"/>
        <pt x="398" y="1118" on="0"/>
        <pt x="470" y="1051" on="0"/>
        <pt x="561" y="983" on="0"/>
        <pt x="655" y="909" on="0"/>
        <pt x="746" y="826" on="0"/>
        <pt x="818" y="729" on="0"/>
        <pt x="861" y="616" on="0"/>
        <pt x="861" y="549" on="1"/>
        <pt x="861" y="490" on="0"/>
        <pt x="814" y="391" on="0"/>
        <pt x="739" y="302" on="0"/>
        <pt x="646" y="218" on="0"/>
        <pt x="601" y="174" on="1"/>
        <pt x="628" y="153" on="0"/>
        <pt x="682" y="103" on="0"/>
        <pt x="724" y="43" on="0"/>
        <pt x="751" y="-30" on="0"/>
        <pt x="751" y="-74" on="1"/>
        <pt x="751" y="-130" on="0"/>
        <pt x="707" y="-218" on="0"/>
        <pt x="633" y="-280" on="0"/>
        <pt x="535" y="-313" on="0"/>
        <pt x="480" y="-313" on="1"/>
        <pt x="429" y="-313" on="0"/>
        <pt x="349" y="-310" on="0"/>
        <pt x="278" y="-303" on="0"/>
        <pt x="210" y="-288" on="0"/>
        <pt x="171" y="-276" on="1"/>
        <pt x="175" y="-156" on="1"/>
        <pt x="193" y="-162" on="0"/>
        <pt x="253" y="-178" on="0"/>
        <pt x="327" y="-193" on="0"/>
        <pt x="408" y="-203" on="0"/>
        <pt x="446" y="-203" on="1"/>
        <pt x="476" y="-203" on="0"/>
        <pt x="528" y="-195" on="0"/>
        <pt x="568" y="-176" on="0"/>
        <pt x="591" y="-145" on="0"/>
      </contour>
    </TTGlyph>
    <TTGlyph name="semicolon" xMin="82" yMin="-172" xMax="373" yMax="942">
      <contour>
        <pt x="373" y="782" on="1"/>
        <pt x="170" y="782" on="1"/>
        <pt x="170" y="942" on="1"/>
        <pt x="373" y="942" on="1"/>
      </contour>
      <contour>
        <pt x="170" y="160" on="1"/>
        <pt x="373" y="160" on="1"/>
        <pt x="373" y="0" on="1"/>
        <pt x="373" y="-41" on="0"/>
        <pt x="343" y="-105" on="0"/>
        <pt x="291" y="-149" on="0"/>
        <pt x="221" y="-172" on="0"/>
        <pt x="181" y="-172" on="1"/>
        <pt x="82" y="-172" on="1"/>
        <pt x="82" y="-82" on="1"/>
        <pt x="111" y="-82" on="0"/>
        <pt x="146" y="-79" on="0"/>
        <pt x="164" y="-63" on="0"/>
        <pt x="170" y="-30" on="0"/>
        <pt x="170" y="0" on="1"/>
      </contour>
    </TTGlyph>
    <TTGlyph name="seven" xMin="52" yMin="0" xMax="930" yMax="1356">
      <contour>
        <pt x="930" y="1356" on="1"/>
        <pt x="326" y="0" on="1"/>
        <pt x="203" y="0" on="1"/>
        <pt x="713" y="1157" on="1"/>
        <pt x="52" y="1157" on="1"/>
        <pt x="146" y="1356" on="1"/>
      </contour>
    </TTGlyph>
    <TTGlyph name="six" xMin="109" yMin="-29" xMax="1051" yMax="1376">
      <contour>
        <pt x="580" y="61" on="1"/>
        <pt x="642" y="61" on="0"/>
        <pt x="737" y="125" on="0"/>
        <pt x="801" y="223" on="0"/>
        <pt x="834" y="337" on="0"/>
        <pt x="834" y="387" on="1"/>
        <pt x="834" y="492" on="0"/>
        <pt x="784" y="629" on="0"/>
        <pt x="708" y="710" on="0"/>
        <pt x="618" y="743" on="0"/>
        <pt x="578" y="743" on="1"/>
        <pt x="538" y="743" on="0"/>
        <pt x="466" y="725" on="0"/>
        <pt x="404" y="695" on="0"/>
        <pt x="351" y="655" on="0"/>
        <pt x="330" y="633" on="1"/>
        <pt x="330" y="483" on="1"/>
        <pt x="330" y="271" on="0"/>
        <pt x="446" y="61" on="0"/>
      </contour>
      <contour>
        <pt x="269" y="1026" on="1"/>
        <pt x="312" y="1084" on="0"/>
        <pt x="437" y="1199" on="0"/>
        <pt x="593" y="1296" on="0"/>
        <pt x="773" y="1365" on="0"/>
        <pt x="871" y="1376" on="1"/>
        <pt x="871" y="1290" on="1"/>
        <pt x="784" y="1270" on="0"/>
        <pt x="652" y="1213" on="0"/>
        <pt x="551" y="1142" on="0"/>
        <pt x="476" y="1061" on="0"/>
        <pt x="447" y="1016" on="1"/>
        <pt x="410" y="960" on="0"/>
        <pt x="356" y="828" on="0"/>
        <pt x="342" y="735" on="1"/>
        <pt x="379" y="766" on="0"/>
        <pt x="457" y="807" on="0"/>
        <pt x="533" y="832" on="0"/>
        <pt x="605" y="842" on="0"/>
        <pt x="637" y="842" on="1"/>
        <pt x="748" y="842" on="0"/>
        <pt x="906" y="765" on="0"/>
        <pt x="1005" y="645" on="0"/>
        <pt x="1051" y="497" on="0"/>
        <pt x="1051" y="426" on="1"/>
        <pt x="1051" y="367" on="0"/>
        <pt x="1026" y="269" on="0"/>
        <pt x="987" y="188" on="0"/>
        <pt x="937" y="125" on="0"/>
        <pt x="912" y="102" on="1"/>
        <pt x="886" y="75" on="0"/>
        <pt x="819" y="27" on="0"/>
        <pt x="737" y="-9" on="0"/>
        <pt x="641" y="-29" on="0"/>
        <pt x="586" y="-29" on="1"/>
        <pt x="456" y="-29" on="0"/>
        <pt x="277" y="57" on="0"/>
        <pt x="164" y="205" on="0"/>
        <pt x="112" y="403" on="0"/>
        <pt x="109" y="516" on="1"/>
        <pt x="109" y="583" on="0"/>
        <pt x="130" y="720" on="0"/>
        <pt x="170" y="852" on="0"/>
        <pt x="230" y="974" on="0"/>
      </contour>
    </TTGlyph>
    <TTGlyph name="slash" xMin="26" yMin="-320" xMax="1031" yMax="1486">
      <contour>
        <pt x="880" y="1486" on="1"/>
        <pt x="1031" y="1486" on="1"/>
        <pt x="178" y="-320" on="1"/>
        <pt x="26" y="-320" on="1"/>
      </contour>
    </TTGlyph>
    <TTGlyph name="sterling" xMin="123" yMin="0" xMax="1200" yMax="1516">
      <contour>
        <pt x="123" y="938" on="1"/>
        <pt x="229" y="938" on="1"/>
        <pt x="229" y="1255" on="1"/>
        <pt x="229" y="1331" on="0"/>
        <pt x="288" y="1432" on="0"/>
        <pt x="400" y="1492" on="0"/>
        <pt x="560" y="1516" on="0"/>
        <pt x="662" y="1516" on="1"/>
        <pt x="696" y="1516" on="0"/>
        <pt x="781" y="1511" on="0"/>
        <pt x="876" y="1497" on="0"/>
        <pt x="979" y="1475" on="0"/>
        <pt x="1032" y="1458" on="1"/>
        <pt x="1028" y="1358" on="1"/>
        <pt x="979" y="1376" on="0"/>
        <pt x="889" y="1403" on="0"/>
        <pt x="804" y="1421" on="0"/>
        <pt x="720" y="1430" on="0"/>
        <pt x="676" y="1430" on="1"/>
        <pt x="554" y="1430" on="0"/>
        <pt x="449" y="1349" on="0"/>
        <pt x="449" y="1274" on="1"/>
        <pt x="449" y="938" on="1"/>
        <pt x="756" y="938" on="1"/>
        <pt x="756" y="848" on="1"/>
        <pt x="449" y="848" on="1"/>
        <pt x="449" y="90" on="1"/>
        <pt x="1200" y="90" on="1"/>
        <pt x="1200" y="0" on="1"/>
        <pt x="123" y="0" on="1"/>
        <pt x="123" y="90" on="1"/>
        <pt x="229" y="90" on="1"/>
        <pt x="229" y="848" on="1"/>
        <pt x="123" y="848" on="1"/>
      </contour>
    </TTGlyph>
    <TTGlyph name="t" xMin="47" yMin="0" xMax="504" yMax="1307">
      <contour>
        <pt x="504" y="852" on="1"/>
        <pt x="369" y="852" on="1"/>
        <pt x="369" y="0" on="1"/>
        <pt x="177" y="0" on="1"/>
        <pt x="177" y="852" on="1"/>
        <pt x="47" y="852" on="1"/>
        <pt x="47" y="942" on="1"/>
        <pt x="177" y="942" on="1"/>
        <pt x="177" y="1249" on="1"/>
        <pt x="369" y="1307" on="1"/>
        <pt x="369" y="942" on="1"/>
        <pt x="504" y="942" on="1"/>
      </contour>
    </TTGlyph>
    <TTGlyph name="thorn" xMin="134" yMin="-420" xMax="1049" yMax="1487">
      <contour>
        <pt x="134" y="-420" on="1"/>
        <pt x="134" y="1487" on="1"/>
        <pt x="322" y="1487" on="1"/>
        <pt x="322" y="892" on="1"/>
        <pt x="379" y="927" on="0"/>
        <pt x="507" y="961" on="0"/>
        <pt x="558" y="961" on="1"/>
        <pt x="685" y="961" on="0"/>
        <pt x="870" y="892" on="0"/>
        <pt x="991" y="771" on="0"/>
        <pt x="1049" y="604" on="0"/>
        <pt x="1049" y="506" on="1"/>
        <pt x="1049" y="407" on="0"/>
        <pt x="996" y="224" on="0"/>
        <pt x="861" y="84" on="0"/>
        <pt x="629" y="0" on="0"/>
        <pt x="451" y="0" on="1"/>
        <pt x="322" y="0" on="1"/>
        <pt x="322" y="-362" on="1"/>
      </contour>
      <contour>
        <pt x="537" y="877" on="1"/>
        <pt x="473" y="877" on="0"/>
        <pt x="370" y="847" on="0"/>
        <pt x="322" y="818" on="1"/>
        <pt x="322" y="82" on="1"/>
        <pt x="451" y="82" on="1"/>
        <pt x="541" y="82" on="0"/>
        <pt x="669" y="126" on="0"/>
        <pt x="757" y="199" on="0"/>
        <pt x="810" y="290" on="0"/>
        <pt x="838" y="385" on="0"/>
        <pt x="847" y="474" on="0"/>
        <pt x="847" y="508" on="1"/>
        <pt x="847" y="581" on="0"/>
        <pt x="806" y="714" on="0"/>
        <pt x="727" y="816" on="0"/>
        <pt x="612" y="877" on="0"/>
      </contour>
    </TTGlyph>
    <TTGlyph name="three" xMin="116" yMin="-20" xMax="912" yMax="1356">
      <contour>
        <pt x="116" y="1255" on="1"/>
        <pt x="116" y="1356" on="1"/>
        <pt x="716" y="1356" on="1"/>
        <pt x="776" y="1356" on="0"/>
        <pt x="848" y="1330" on="0"/>
        <pt x="886" y="1292" on="0"/>
        <pt x="898" y="1249" on="0"/>
        <pt x="898" y="1231" on="1"/>
        <pt x="898" y="1183" on="0"/>
        <pt x="853" y="1101" on="0"/>
        <pt x="814" y="1061" on="1"/>
        <pt x="554" y="797" on="1"/>
        <pt x="643" y="797" on="0"/>
        <pt x="777" y="753" on="0"/>
        <pt x="867" y="676" on="0"/>
        <pt x="912" y="569" on="0"/>
        <pt x="912" y="506" on="1"/>
        <pt x="912" y="413" on="0"/>
        <pt x="844" y="267" on="0"/>
        <pt x="727" y="155" on="0"/>
        <pt x="571" y="75" on="0"/>
        <pt x="394" y="20" on="0"/>
        <pt x="206" y="-12" on="0"/>
        <pt x="116" y="-20" on="1"/>
        <pt x="116" y="80" on="1"/>
        <pt x="168" y="82" on="0"/>
        <pt x="301" y="103" on="0"/>
        <pt x="386" y="135" on="1"/>
        <pt x="462" y="164" on="0"/>
        <pt x="570" y="237" on="0"/>
        <pt x="638" y="325" on="0"/>
        <pt x="669" y="427" on="0"/>
        <pt x="669" y="484" on="1"/>
        <pt x="669" y="527" on="0"/>
        <pt x="645" y="600" on="0"/>
        <pt x="589" y="654" on="0"/>
        <pt x="496" y="684" on="0"/>
        <pt x="427" y="684" on="1"/>
        <pt x="251" y="684" on="1"/>
        <pt x="251" y="741" on="1"/>
        <pt x="587" y="1077" on="1"/>
        <pt x="612" y="1102" on="0"/>
        <pt x="656" y="1164" on="0"/>
        <pt x="656" y="1194" on="1"/>
        <pt x="656" y="1229" on="0"/>
        <pt x="610" y="1253" on="0"/>
        <pt x="554" y="1253" on="1"/>
      </contour>
    </TTGlyph>
    <TTGlyph name="threequarters" xMin="120" yMin="-106" xMax="1599" yMax="1439">
      <component glyphName="fraction" x="483" y="0" flags="0x4"/>
      <component glyphName="foursuperior" x="849" y="-472" flags="0x4"/>
      <component glyphName="threesuperior" x="0" y="0" flags="0x4"/>
    </TTGlyph>
    <TTGlyph name="threesuperior" xMin="120" yMin="459" xMax="644" yMax="1356">
      <contour>
        <pt x="120" y="1284" on="1"/>
        <pt x="120" y="1356" on="1"/>
        <pt x="512" y="1356" on="1"/>
        <pt x="552" y="1356" on="0"/>
        <pt x="601" y="1339" on="0"/>
        <pt x="627" y="1314" on="0"/>
        <pt x="635" y="1286" on="0"/>
        <pt x="635" y="1274" on="1"/>
        <pt x="635" y="1245" on="0"/>
        <pt x="606" y="1190" on="0"/>
        <pt x="580" y="1164" on="1"/>
        <pt x="411" y="992" on="1"/>
        <pt x="469" y="992" on="0"/>
        <pt x="556" y="963" on="0"/>
        <pt x="615" y="912" on="0"/>
        <pt x="644" y="842" on="0"/>
        <pt x="644" y="801" on="1"/>
        <pt x="644" y="741" on="0"/>
        <pt x="600" y="647" on="0"/>
        <pt x="524" y="574" on="0"/>
        <pt x="422" y="522" on="0"/>
        <pt x="305" y="485" on="0"/>
        <pt x="180" y="464" on="0"/>
        <pt x="120" y="459" on="1"/>
        <pt x="120" y="529" on="1"/>
        <pt x="152" y="531" on="0"/>
        <pt x="242" y="544" on="0"/>
        <pt x="297" y="565" on="1"/>
        <pt x="393" y="601" on="0"/>
        <pt x="476" y="716" on="0"/>
        <pt x="476" y="790" on="1"/>
        <pt x="476" y="817" on="0"/>
        <pt x="460" y="862" on="0"/>
        <pt x="424" y="895" on="0"/>
        <pt x="366" y="913" on="0"/>
        <pt x="323" y="913" on="1"/>
        <pt x="203" y="913" on="1"/>
        <pt x="203" y="955" on="1"/>
        <pt x="422" y="1174" on="1"/>
        <pt x="439" y="1191" on="0"/>
        <pt x="468" y="1231" on="0"/>
        <pt x="468" y="1250" on="1"/>
        <pt x="468" y="1270" on="0"/>
        <pt x="439" y="1284" on="0"/>
        <pt x="406" y="1284" on="1"/>
      </contour>
    </TTGlyph>
    <TTGlyph name="tilde" xMin="-14" yMin="1046" xMax="588" yMax="1277">
      <contour>
        <pt x="238" y="1114" on="1"/>
        <pt x="209" y="1130" on="0"/>
        <pt x="158" y="1153" on="0"/>
        <pt x="129" y="1153" on="1"/>
        <pt x="92" y="1153" on="0"/>
        <pt x="55" y="1103" on="0"/>
        <pt x="55" y="1046" on="1"/>
        <pt x="-14" y="1046" on="1"/>
        <pt x="-14" y="1163" on="0"/>
        <pt x="80" y="1277" on="0"/>
        <pt x="156" y="1277" on="1"/>
        <pt x="174" y="1277" on="0"/>
        <pt x="210" y="1269" on="0"/>
        <pt x="245" y="1256" on="0"/>
        <pt x="277" y="1241" on="0"/>
        <pt x="291" y="1234" on="1"/>
        <pt x="338" y="1210" on="1"/>
        <pt x="368" y="1194" on="0"/>
        <pt x="419" y="1171" on="0"/>
        <pt x="444" y="1171" on="1"/>
        <pt x="482" y="1171" on="0"/>
        <pt x="518" y="1222" on="0"/>
        <pt x="518" y="1277" on="1"/>
        <pt x="588" y="1277" on="1"/>
        <pt x="588" y="1162" on="0"/>
        <pt x="493" y="1046" on="0"/>
        <pt x="418" y="1046" on="1"/>
        <pt x="381" y="1047" on="0"/>
        <pt x="316" y="1071" on="0"/>
        <pt x="287" y="1087" on="1"/>
      </contour>
    </TTGlyph>
    <TTGlyph name="two" xMin="68" yMin="0" xMax="899" yMax="1378">
      <contour>
        <pt x="648" y="981" on="1"/>
        <pt x="648" y="1045" on="0"/>
        <pt x="619" y="1152" on="0"/>
        <pt x="559" y="1229" on="0"/>
        <pt x="467" y="1272" on="0"/>
        <pt x="404" y="1272" on="1"/>
        <pt x="372" y="1272" on="0"/>
        <pt x="310" y="1270" on="0"/>
        <pt x="241" y="1259" on="0"/>
        <pt x="162" y="1239" on="0"/>
        <pt x="113" y="1221" on="1"/>
        <pt x="113" y="1321" on="1"/>
        <pt x="166" y="1340" on="0"/>
        <pt x="254" y="1363" on="0"/>
        <pt x="326" y="1375" on="0"/>
        <pt x="382" y="1378" on="0"/>
        <pt x="404" y="1378" on="1"/>
        <pt x="642" y="1378" on="0"/>
        <pt x="889" y="1178" on="0"/>
        <pt x="889" y="981" on="1"/>
        <pt x="889" y="913" on="0"/>
        <pt x="835" y="776" on="0"/>
        <pt x="743" y="638" on="0"/>
        <pt x="623" y="498" on="0"/>
        <pt x="491" y="355" on="0"/>
        <pt x="355" y="208" on="0"/>
        <pt x="295" y="131" on="1"/>
        <pt x="899" y="131" on="1"/>
        <pt x="899" y="0" on="1"/>
        <pt x="68" y="0" on="1"/>
        <pt x="381" y="399" on="1"/>
        <pt x="462" y="501" on="0"/>
        <pt x="565" y="676" on="0"/>
        <pt x="625" y="823" on="0"/>
        <pt x="648" y="939" on="0"/>
      </contour>
    </TTGlyph>
    <TTGlyph name="twosuperior" xMin="87" yMin="475" xMax="649" yMax="1370">
      <contour>
        <pt x="456" y="1112" on="1"/>
        <pt x="456" y="1191" on="0"/>
        <pt x="391" y="1286" on="0"/>
        <pt x="315" y="1286" on="1"/>
        <pt x="295" y="1286" on="0"/>
        <pt x="254" y="1284" on="0"/>
        <pt x="208" y="1277" on="0"/>
        <pt x="156" y="1263" on="0"/>
        <pt x="124" y="1251" on="1"/>
        <pt x="124" y="1333" on="1"/>
        <pt x="194" y="1358" on="0"/>
        <pt x="287" y="1370" on="0"/>
        <pt x="315" y="1370" on="1"/>
        <pt x="394" y="1370" on="0"/>
        <pt x="518" y="1340" on="0"/>
        <pt x="604" y="1277" on="0"/>
        <pt x="649" y="1179" on="0"/>
        <pt x="649" y="1112" on="1"/>
        <pt x="649" y="1038" on="0"/>
        <pt x="578" y="905" on="0"/>
        <pt x="470" y="775" on="0"/>
        <pt x="342" y="642" on="0"/>
        <pt x="284" y="567" on="1"/>
        <pt x="636" y="567" on="1"/>
        <pt x="636" y="475" on="1"/>
        <pt x="87" y="475" on="1"/>
        <pt x="286" y="733" on="1"/>
        <pt x="337" y="800" on="0"/>
        <pt x="403" y="914" on="0"/>
        <pt x="441" y="1009" on="0"/>
        <pt x="456" y="1085" on="0"/>
      </contour>
    </TTGlyph>
    <TTGlyph name="u" xMin="128" yMin="-18" xMax="908" yMax="942">
      <contour>
        <pt x="706" y="78" on="1"/>
        <pt x="641" y="50" on="0"/>
        <pt x="533" y="13" on="0"/>
        <pt x="440" y="-9" on="0"/>
        <pt x="358" y="-18" on="0"/>
        <pt x="321" y="-18" on="1"/>
        <pt x="227" y="-18" on="0"/>
        <pt x="128" y="79" on="0"/>
        <pt x="128" y="188" on="1"/>
        <pt x="128" y="942" on="1"/>
        <pt x="331" y="942" on="1"/>
        <pt x="331" y="219" on="1"/>
        <pt x="331" y="196" on="0"/>
        <pt x="340" y="151" on="0"/>
        <pt x="363" y="115" on="0"/>
        <pt x="403" y="92" on="0"/>
        <pt x="435" y="92" on="1"/>
        <pt x="486" y="92" on="0"/>
        <pt x="621" y="117" on="0"/>
        <pt x="706" y="156" on="1"/>
        <pt x="706" y="942" on="1"/>
        <pt x="908" y="942" on="1"/>
        <pt x="908" y="0" on="1"/>
        <pt x="706" y="0" on="1"/>
      </contour>
    </TTGlyph>
    <TTGlyph name="uacute" xMin="128" yMin="-18" xMax="908" yMax="1378">
      <component glyphName="u" x="0" y="0" flags="0x204"/>
      <component glyphName="acute" x="374" y="61" flags="0x4"/>
    </TTGlyph>
    <TTGlyph name="ucircumflex" xMin="128" yMin="-18" xMax="908" yMax="1378">
      <component glyphName="u" x="0" y="0" flags="0x204"/>
      <component glyphName="circumflex" x="335" y="61" flags="0x4"/>
    </TTGlyph>
    <TTGlyph name="udieresis" xMin="128" yMin="-18" xMax="908" yMax="1303">
      <component glyphName="u" x="0" y="0" flags="0x204"/>
      <component glyphName="dieresis" x="215" y="79" flags="0x4"/>
    </TTGlyph>
    <TTGlyph name="ugrave" xMin="128" yMin="-18" xMax="908" yMax="1378">
      <component glyphName="u" x="0" y="0" flags="0x204"/>
      <component glyphName="grave" x="183" y="61" flags="0x4"/>
    </TTGlyph>
    <TTGlyph name="underscore" xMin="0" yMin="-248" xMax="877" yMax="-109">
      <contour>
        <pt x="0" y="-248" on="1"/>
        <pt x="0" y="-109" on="1"/>
        <pt x="877" y="-109" on="1"/>
        <pt x="877" y="-248" on="1"/>
      </contour>
    </TTGlyph>
    <TTGlyph name="uni00AD" xMin="114" yMin="481" xMax="647" yMax="635">
      <contour>
        <pt x="114" y="481" on="1"/>
        <pt x="114" y="635" on="1"/>
        <pt x="647" y="635" on="1"/>
        <pt x="647" y="481" on="1"/>
      </contour>
    </TTGlyph>
    <TTGlyph name="v" xMin="1" yMin="0" xMax="919" yMax="942">
      <contour>
        <pt x="546" y="217" on="1"/>
        <pt x="823" y="942" on="1"/>
        <pt x="919" y="942" on="1"/>
        <pt x="599" y="102" on="1"/>
        <pt x="646" y="0" on="1"/>
        <pt x="435" y="0" on="1"/>
        <pt x="1" y="942" on="1"/>
        <pt x="214" y="942" on="1"/>
      </contour>
    </TTGlyph>
    <TTGlyph name="w" xMin="21" yMin="0" xMax="1194" yMax="942">
      <contour>
        <pt x="871" y="285" on="1"/>
        <pt x="1099" y="942" on="1"/>
        <pt x="1194" y="942" on="1"/>
        <pt x="915" y="142" on="1"/>
        <pt x="960" y="0" on="1"/>
        <pt x="783" y="0" on="1"/>
        <pt x="619" y="519" on="1"/>
        <pt x="469" y="123" on="1"/>
        <pt x="505" y="0" on="1"/>
        <pt x="312" y="0" on="1"/>
        <pt x="21" y="942" on="1"/>
        <pt x="212" y="942" on="1"/>
        <pt x="426" y="261" on="1"/>
        <pt x="576" y="660" on="1"/>
        <pt x="492" y="942" on="1"/>
        <pt x="667" y="942" on="1"/>
      </contour>
    </TTGlyph>
</ttFont>
